<svg xmlns="http://www.w3.org/2000/svg" viewBox="0 0 152.92 157.47"><defs><style>.cls-1{fill:#1e9200;}.cls-2{fill:#fff;}</style></defs><g id="レイヤー_2" data-name="レイヤー 2"><g id="txt"><path class="cls-1" d="M92.32,157.47c1.11,0,1.38-.56.64-1-1.78-.95-5.72-3.91-7.28-6.67-2.72-4.83-3-9.14,5.71-9.92,25.53-2.29,53.35-24.19,60-56.48C160.07,41.6,130.93.51,77.79,0,14.13-.6-8,46.81,2.5,87,14.58,133.16,65.75,157.09,92.32,157.47Z"/><path class="cls-2" d="M41.88,63.37c15.81,5.9,11.81,16,6.85,12.35-.95-3.46-4.07-7.74-6.85-10.79V97.24c0,.41-1.84,1.77-4.42,1.77h-.88V70.36A58.29,58.29,0,0,1,23.41,86.79l-.95-.88c6.11-7.4,10.46-17.45,13-27.36H23.68l-.54-2H36.58V45.51c-4.21.75-8.69,1.43-12.83,1.84l-.27-1C31.9,44,42.42,39.74,47.71,36.62l6.39,5.63c-.68.62-2,.68-3.74.07-2.37.68-5.29,1.43-8.48,2.11V56.58H46l3.39-4.35s3.74,3.06,6,5.23c-.14.75-.82,1.09-1.77,1.09H41.88Zm28.78,5.5C91.09,87,87.36,102.67,81,96.9a49.61,49.61,0,0,0-2.58-9.09c-6.65,1.9-15.55,4.34-27.77,7.26a2.55,2.55,0,0,1-1.9,1.49l-2.85-7.33c2.11-.07,5.23-.34,9-.68,3.73-16.22,7.81-39,9.17-50.37l8.75,2a2.6,2.6,0,0,1-2.58,2c-2.44,11.07-7.6,31-13.78,46.17,6-.55,13.58-1.22,21.39-2a133.76,133.76,0,0,0-8.22-17.11Z"/><path class="cls-2" d="M115.22,63.51a12,12,0,0,1,3.66.85c1.8,1,3.18,2.9,3.18,4.09,0,1-1.09,1.42-3.09,2.09a77.12,77.12,0,0,0-12,5.51c-3.94,2.28-8.7,6.08-8.7,10.26,0,2.81,2.66,4.8,9.6,4.8,6.7,0,10.31-1.38,11.6-1.38,2,0,3.75.53,3.75,2.19,0,.76-.81,1.47-1.85,1.81a49,49,0,0,1-12.12,1.18c-8.32,0-13.59-2.7-13.59-7.88,0-5.37,5.37-10,8.65-12.41a8.1,8.1,0,0,1-2.8-3.84,51.22,51.22,0,0,1-2.1-9.84,2.06,2.06,0,0,0-1.37-1.81c-.76-.28-1.9-.57-2.66-.76l0-.9a11,11,0,0,1,3.28-.62c2.47,0,5.08,1.71,5.13,2.95,0,.86-.33,1.52-.33,2.71a28.4,28.4,0,0,0,1,6.84A6.79,6.79,0,0,0,107,72.91c3.47-2.09,8-4.41,9.6-5.32.71-.38.86-.76.57-1.38a5.27,5.27,0,0,0-2.28-2Z"/></g></g></svg>