<svg xmlns="http://www.w3.org/2000/svg" viewBox="0 0 54.06 124"><defs><style>.cls-1{fill:#1da1f2;}.cls-2{fill:#333;}.cls-3{fill:#fff;}</style></defs><g id="レイヤー_2" data-name="レイヤー 2"><g id="back"><polygon class="cls-1" points="32 124 16 114.1 0 124 0 0 32 0 32 124"/></g><g id="txt"><path class="cls-2" d="M51.52,27.58h-1.1v2.24h-.85V27.58H46V27l3.43-5.23h1v5.1h1.1Zm-2-.71V24.25c0-.4,0-1,.07-1.43h0c-.2.38-.42.78-.64,1.16l-2,2.89Z"/><path class="cls-2" d="M52.32,42c0,.56-.15.8-.55.93a9.28,9.28,0,0,1-2.3.15,3.65,3.65,0,0,0-.31-.77c.93,0,1.81,0,2.07,0s.33-.09.33-.32V39.65H46.18a6.24,6.24,0,0,1-1.9,3.45,3.06,3.06,0,0,0-.55-.53c1.78-1.58,2-3.81,2-5.6V33.65h6.62Zm-.76-3V37H46.43a14.88,14.88,0,0,1-.12,2Zm-5.13-4.56v1.92h5.13V34.37Z"/><path class="cls-2" d="M48.57,50.78a3.31,3.31,0,0,1-1.16-2.45,3.26,3.26,0,0,1,1.91-2.86l.43.68a2.49,2.49,0,0,0-1.54,2.16,2.59,2.59,0,0,0,.93,1.92,3.31,3.31,0,0,1,1.16,2.45,3.26,3.26,0,0,1-1.91,2.86L48,54.86a2.52,2.52,0,0,0,1.54-2.17A2.58,2.58,0,0,0,48.57,50.78Z"/><path class="cls-2" d="M47,65.89a1.82,1.82,0,0,0,1.37.62c1.06,0,2-.89,2.07-3.49a2.53,2.53,0,0,1-1.89,1c-1.34,0-2.2-.87-2.2-2.53a2.39,2.39,0,0,1,2.27-2.6c1.55,0,2.67,1.27,2.67,3.79,0,3.3-1.4,4.55-2.89,4.55a2.5,2.5,0,0,1-1.9-.81Zm3.43-3.63c-.09-1.68-.72-2.64-1.81-2.64-.81,0-1.41.77-1.41,1.9s.48,1.85,1.48,1.85A2.2,2.2,0,0,0,50.41,62.26Z"/><path class="cls-2" d="M52.32,79.25c0,.56-.15.8-.55.93a9.28,9.28,0,0,1-2.3.15,3.65,3.65,0,0,0-.31-.77c.93,0,1.81,0,2.07,0s.33-.09.33-.32V76.94H46.18a6.24,6.24,0,0,1-1.9,3.45,3.06,3.06,0,0,0-.55-.53c1.78-1.58,2-3.81,2-5.6V70.94h6.62Zm-.76-3v-2H46.43a14.88,14.88,0,0,1-.12,2Zm-5.13-4.56v1.92h5.13V71.66Z"/><path class="cls-2" d="M49.71,88.11a11.37,11.37,0,0,0,4.23,3.4,2.76,2.76,0,0,0-.54.63,12.32,12.32,0,0,1-4.18-3.64v4.29h-.76V88.56a12,12,0,0,1-4.12,3.6,3.88,3.88,0,0,0-.52-.61A11.11,11.11,0,0,0,48,88.11H44.64V87.4h3.82v-2H44.07v-.73h4.39V82.78h.76v1.89H53.7v.73H49.22v2h3.89v.71Z"/><path class="cls-2" d="M46.69,102.5c.32,0,.37-.3.4-1.71a1.87,1.87,0,0,0,.66.3c-.07,1.62-.26,2.12-1,2.12H45.46c-.79,0-1-.25-1-1.17V95.55h.71v3.24A17.83,17.83,0,0,0,47,97.34l.53.5a18.71,18.71,0,0,1-2.38,1.68V102c0,.39.06.46.39.46Zm3.41,1.29a10.12,10.12,0,0,1-2.8,1.43c-.11-.14-.33-.37-.47-.52a8.33,8.33,0,0,0,2.62-1.31Zm0-6.29a11.32,11.32,0,0,0,.26-1.12H47.73v-.64h6.08v.64H51.19c-.12.38-.25.77-.37,1.12h2.63v5.66H48.32V97.5Zm2.65.58H49V99.2h3.75Zm0,1.66H49v1.13h3.75Zm0,1.69H49v1.15h3.75Zm-.91,2a13.87,13.87,0,0,1,2.22,1.35l-.57.45a13.77,13.77,0,0,0-2.2-1.41Z"/><path class="cls-2" d="M48.85,112.33l3.63-3.63.32.32-3.63,3.63,3.63,3.63-.32.32L48.85,113l-3.64,3.64-.32-.31,3.65-3.65L44.9,109l.32-.32Zm-2.31.32a.83.83,0,0,1-.82.83.84.84,0,0,1-.83-.83.83.83,0,0,1,.83-.82A.82.82,0,0,1,46.54,112.65Zm2.31-2.31a.82.82,0,0,1-.82-.82.83.83,0,1,1,.82.82Zm0,4.62a.83.83,0,0,1,.83.83.83.83,0,1,1-.83-.83Zm2.32-2.31a.82.82,0,1,1,1.64,0,.82.82,0,1,1-1.64,0Z"/><path class="cls-3" d="M20.86,30.72A8.73,8.73,0,0,1,17.8,33.3a25.7,25.7,0,0,0,5.73.86,8.82,8.82,0,0,0-.85,1.33,21.13,21.13,0,0,1-6.61-1.43,28.33,28.33,0,0,1-6.85,1.43,5,5,0,0,0-.56-1.22,28.45,28.45,0,0,0,5.87-1,8.73,8.73,0,0,1-2-1.64A15.44,15.44,0,0,1,9.68,33a3.46,3.46,0,0,0-.86-1.06,10.82,10.82,0,0,0,4.64-2.47H10.79v-6h4.14c.07-.25.11-.52.18-.78H9.32V21.48H22.81V22.7H16.74l-.3.78h4.91v6h-6.1a8.09,8.09,0,0,1-.7.74h5.09l.27-.08Zm-8.63-5.56h7.63v-.78H12.23Zm0,1.7h7.63v-.8H12.23Zm0,1.7h7.63v-.8H12.23Zm1.65,2.67a7.38,7.38,0,0,0,2.29,1.49,8.49,8.49,0,0,0,2.43-1.49Z"/><path class="cls-3" d="M15.29,45.53V43.34A14.7,14.7,0,0,1,11.84,46H19l.32-.08.9.75a15.58,15.58,0,0,1-3.46,2.08v0H23.1V50H16.77v1.69c0,.77-.19,1.14-.8,1.33a10.6,10.6,0,0,1-2.93.21,6.3,6.3,0,0,0-.52-1.3c1.05,0,2.14,0,2.41,0s.39-.08.39-.31V50H9V48.75h6.28v-.88H16a12,12,0,0,0,1.42-.75H11.75V46a18.47,18.47,0,0,1-2.24,1,6.75,6.75,0,0,0-.92-1.14,15.39,15.39,0,0,0,5.21-2.83H9.06V41.82h6.23v-1.3c-1.65.12-3.35.2-4.9.23a5.18,5.18,0,0,0-.34-1.19,62.59,62.59,0,0,0,10.23-1l1.22,1.06a36.11,36.11,0,0,1-4.76.73v1.43h6.34v1.25h-4.8a14.68,14.68,0,0,0,5.15,2.67,6.35,6.35,0,0,0-.94,1.17,15.39,15.39,0,0,1-5.75-3.65v2.27Z"/><path class="cls-3" d="M14.45,57.53c-.46,1.36-1.09,3-1.63,4.29a4.67,4.67,0,0,1,1.43,3.35,2.15,2.15,0,0,1-.71,1.93,1.87,1.87,0,0,1-.9.32,7.11,7.11,0,0,1-1.15,0,3.27,3.27,0,0,0-.35-1.36c.35,0,.66,0,.9,0a.89.89,0,0,0,.52-.15,1.09,1.09,0,0,0,.32-1,4.27,4.27,0,0,0-1.4-3c.43-1.09.89-2.54,1.21-3.65h-1.9V71H9.38V57h3.86l.2-.05ZM23.1,65.3c-.76.68-1.64,1.42-2.4,2a6.67,6.67,0,0,0,2.78,2.41,5.87,5.87,0,0,0-1,1.24c-2.35-1.21-3.7-3.64-4.44-6.74H16.57v4.54l2.72-.51.11,1.3-5.51,1.23-.49-1.44L15.12,69V57h7.26v7.19H19.33a14.7,14.7,0,0,0,.77,2.05,18.42,18.42,0,0,0,1.83-1.78Zm-6.53-7V60h4.35V58.3Zm0,4.63h4.35V61.21H16.57Z"/><path class="cls-3" d="M16.81,86.94a15.93,15.93,0,0,0,2.25.15c.69,0,3.38,0,4.29,0a4.6,4.6,0,0,0-.56,1.5H19c-3.13,0-5.44-.53-6.9-3a8.1,8.1,0,0,1-2.25,3.33,8.17,8.17,0,0,0-1.24-1c1.77-1.31,2.58-3.55,2.92-6.35l1.53.14a17.88,17.88,0,0,1-.38,2.1,4.59,4.59,0,0,0,2.61,2.82V80.32h-3.7V78.89h9v1.43H16.81v2.35h4.57v1.39H16.81Zm-6-7.45H9.38V75.8h5.86V74.09h1.58V75.8h5.92v3.69H21.22V77.21H10.84Z"/></g></g></svg>