<svg xmlns="http://www.w3.org/2000/svg" viewBox="0 0 54.06 188.95"><defs><style>.cls-1{fill:#a0d71e;}.cls-2{fill:#333;}.cls-3{fill:#fff;}</style></defs><g id="レイヤー_2" data-name="レイヤー 2"><g id="back"><polygon class="cls-1" points="32 188.94 16 179.05 0 188.94 0 0 32 0 32 188.94"/></g><g id="txt"><path class="cls-2" d="M51.52,26.53h-1.1v2.24h-.85V26.53H46v-.59l3.43-5.22h1v5.09h1.1Zm-2-.72V23.19c0-.39,0-1,.07-1.43h0c-.2.39-.42.78-.64,1.17l-2,2.88Z"/><path class="cls-2" d="M52.32,40.9c0,.56-.15.81-.55.94a9.45,9.45,0,0,1-2.3.14,3.88,3.88,0,0,0-.31-.77c.93,0,1.81,0,2.07,0s.33-.09.33-.32V38.59H46.18a6.24,6.24,0,0,1-1.9,3.46,2.75,2.75,0,0,0-.55-.53c1.78-1.59,2-3.82,2-5.6V32.6h6.62Zm-.76-3v-2H46.43a15.09,15.09,0,0,1-.12,2Zm-5.13-4.57v1.93h5.13V33.31Z"/><path class="cls-2" d="M53.78,48.73a15,15,0,0,1-2,2.65L51.19,51a9.92,9.92,0,0,0,1.39-1.79H49.29V53.5c0,.48-.12.69-.49.8a8.46,8.46,0,0,1-2,.12,2.57,2.57,0,0,0-.26-.7c.78,0,1.5,0,1.71,0s.27-.06.27-.23V49.21H44v-.7H49.8C48.85,48,47.52,47.4,46.5,47l.39-.53,2,.88a12.19,12.19,0,0,0,2.23-1.59H45V45h6.86L52,45l.53.41a16.13,16.13,0,0,1-2.93,2.25c.48.23.93.44,1.25.61l-.18.26h2.38l.14,0Z"/><path class="cls-2" d="M45.06,63.2A9.76,9.76,0,0,1,44.27,66a2.46,2.46,0,0,0-.59-.27,7.76,7.76,0,0,0,.74-2.63Zm2-2.81a9.23,9.23,0,0,1,1.11,2.23l-.58.27c-.06-.19-.13-.41-.23-.65l-1,.07v4.61h-.66V62.34l-1.83.1,0-.67.7,0c.25-.31.52-.66.78-1a10.18,10.18,0,0,0-1.46-1.59l.37-.48.34.3a12.73,12.73,0,0,0,1-2.07l.65.26A20.21,20.21,0,0,1,45,59.34a7.09,7.09,0,0,1,.71.81,22.11,22.11,0,0,0,1.23-2l.62.28a32.82,32.82,0,0,1-2.31,3.33l1.88-.07a10.13,10.13,0,0,0-.57-1Zm.3,2.64a9.26,9.26,0,0,1,.75,2.13l-.6.2a9.34,9.34,0,0,0-.7-2.14Zm6.28-4.17s0,.3,0,.39c-.19,5-.35,6.66-.8,7.19a1.1,1.1,0,0,1-.88.42c-.37,0-1.05,0-1.71,0a1.63,1.63,0,0,0-.22-.72c.73.07,1.42.07,1.7.07a.55.55,0,0,0,.47-.16c.36-.39.56-2.07.72-6.46H49.2a8.46,8.46,0,0,1-1,1.56,4.88,4.88,0,0,0-.65-.43,9.62,9.62,0,0,0,2-3.83l.73.17a14.35,14.35,0,0,1-.69,1.83Zm-3.1,5.23A11.94,11.94,0,0,0,49,61.5l.58-.29a11,11,0,0,1,1.57,2.53Z"/><path class="cls-2" d="M45.09,73.42v5.91h-.71V69.78h3.95v3.64Zm0-3.07v.94h2.54v-.94Zm2.54,2.5v-1H45.09v1Zm2.64,3.77v2.49h-.65V76.62H48a3.58,3.58,0,0,1-1.51,2.63,2.67,2.67,0,0,0-.49-.44,2.84,2.84,0,0,0,1.35-2.19H45.91V76h1.44V74.75H46.13v-.62h5.44v.62h-1.3V76h1.54v.62ZM49.62,76V74.75H48V76Zm3.77,2.33c0,.47-.11.71-.42.84a5.81,5.81,0,0,1-1.7.13,2.29,2.29,0,0,0-.23-.73c.63,0,1.23,0,1.39,0s.24-.07.24-.25v-4.9H49.34V69.78h4Zm-3.35-8v.94h2.63v-.94Zm2.63,2.51v-1H50v1Z"/><path class="cls-2" d="M47.91,84.08a14.85,14.85,0,0,1-1,4.78,8.57,8.57,0,0,1,1.29,1.19l-.44.58a9,9,0,0,0-1.16-1.13,6,6,0,0,1-2.16,2.28,3.24,3.24,0,0,0-.45-.6,5,5,0,0,0,2-2.12c-.39-.3-.82-.58-1.23-.84l-.13.49L44,88.39c.29-1,.63-2.32,1-3.71H43.88V84H45.1c.18-.8.34-1.59.48-2.29l.69.08c-.13.68-.3,1.44-.47,2.21h1.54l.13,0Zm-2.27.6c-.23,1-.48,2-.71,2.9.44.25.91.55,1.36.85a12.85,12.85,0,0,0,.88-3.75Zm6.59-1.26A12.11,12.11,0,0,1,54,86.34l-.61.37c-.09-.23-.21-.51-.35-.8-1.81.14-3.67.28-5,.36L48,85.56l.86,0a26.22,26.22,0,0,0,1.31-3.8l.8.18c-.39,1.13-.91,2.54-1.38,3.57l3.11-.19a14.23,14.23,0,0,0-1-1.57Zm-3.49,3.91h4.65v4.38h-.73v-.46H49.44v.51h-.7Zm.7.67v2.58h3.22V88Z"/><path class="cls-2" d="M48.57,99.44A3.31,3.31,0,0,1,47.41,97a3.28,3.28,0,0,1,1.91-2.86l.43.68A2.52,2.52,0,0,0,48.21,97a2.57,2.57,0,0,0,.93,1.91,3.33,3.33,0,0,1,1.16,2.46,3.29,3.29,0,0,1-1.91,2.86l-.43-.68a2.52,2.52,0,0,0,1.54-2.17A2.62,2.62,0,0,0,48.57,99.44Z"/><path class="cls-2" d="M50.74,109a1.72,1.72,0,0,0-1.3-.62c-1.13,0-2.09.87-2.13,3.44a2.55,2.55,0,0,1,1.86-1c1.36,0,2.22.84,2.22,2.53a2.39,2.39,0,0,1-2.27,2.59c-1.55,0-2.66-1.34-2.66-4,0-3.18,1.41-4.37,2.95-4.37a2.44,2.44,0,0,1,1.84.81Zm-.21,4.38c0-1.13-.47-1.86-1.51-1.86a2.17,2.17,0,0,0-1.69,1.06c.11,1.71.73,2.68,1.79,2.68C49.93,115.21,50.53,114.44,50.53,113.33Z"/><path class="cls-2" d="M52.32,127.91c0,.56-.15.81-.55.94a9.45,9.45,0,0,1-2.3.14,3.88,3.88,0,0,0-.31-.77c.93,0,1.81,0,2.07,0s.33-.09.33-.32V125.6H46.18a6.24,6.24,0,0,1-1.9,3.46,2.75,2.75,0,0,0-.55-.53c1.78-1.59,2-3.82,2-5.6v-3.32h6.62Zm-.76-3v-2H46.43a15,15,0,0,1-.12,2Zm-5.13-4.57v1.93h5.13v-1.93Z"/><path class="cls-2" d="M49.71,136.78a11.47,11.47,0,0,0,4.23,3.4,2.94,2.94,0,0,0-.54.62,12.11,12.11,0,0,1-4.18-3.64v4.29h-.76v-4.22a12.21,12.21,0,0,1-4.12,3.6,4,4,0,0,0-.52-.62A11,11,0,0,0,48,136.78H44.64v-.72h3.82v-2H44.07v-.73h4.39v-1.89h.76v1.89H53.7v.73H49.22v2h3.89v.72Z"/><path class="cls-2" d="M46.69,151.17c.32,0,.37-.3.4-1.72a2.1,2.1,0,0,0,.66.31c-.07,1.62-.26,2.11-1,2.11H45.46c-.79,0-1-.24-1-1.17v-6.49h.71v3.25A17.83,17.83,0,0,0,47,146l.53.49a17.76,17.76,0,0,1-2.38,1.68v2.52c0,.4.06.47.39.47Zm3.41,1.28a10.12,10.12,0,0,1-2.8,1.43c-.11-.14-.33-.37-.47-.51a8.54,8.54,0,0,0,2.62-1.31Zm0-6.29a11.13,11.13,0,0,0,.26-1.11H47.73v-.65h6.08v.65H51.19c-.12.37-.25.77-.37,1.11h2.63v5.67H48.32v-5.67Zm2.65.58H49v1.13h3.75Zm0,1.66H49v1.14h3.75Zm0,1.7H49v1.14h3.75Zm-.91,2a14.63,14.63,0,0,1,2.22,1.35l-.57.46a13.11,13.11,0,0,0-2.2-1.41Z"/><path class="cls-2" d="M48.85,161l3.63-3.63.32.32-3.63,3.63L52.8,165l-.32.32-3.63-3.63-3.64,3.64-.32-.32,3.65-3.64-3.64-3.63.32-.32Zm-2.31.32a.82.82,0,0,1-.82.82.83.83,0,0,1-.83-.82.84.84,0,0,1,.83-.83A.83.83,0,0,1,46.54,161.32ZM48.85,159a.83.83,0,0,1-.82-.83.83.83,0,0,1,1.65,0A.83.83,0,0,1,48.85,159Zm0,4.62a.83.83,0,1,1-.82.83A.83.83,0,0,1,48.85,163.63Zm2.32-2.31a.82.82,0,1,1,1.64,0,.82.82,0,1,1-1.64,0Z"/><path class="cls-3" d="M14.85,32.19c-.32-.38-1-1-1.55-1.58V34.4H11.86V30.66a12.23,12.23,0,0,1-2.38,2.69,6.24,6.24,0,0,0-1-1.08,11,11,0,0,0,3.06-3.36H8.9V27.65h3V26.19h-3V24.93H10.5a7.82,7.82,0,0,0-.56-2.07L11,22.59h-2V21.36h2.8V19.84H13.3v1.52h2.8v1.23H14.17l1.12.26c-.31.75-.61,1.53-.88,2.08h1.87v1.26h-3v1.46h2.83v1.26H13.3v.27c.58.4,2,1.61,2.42,1.91Zm-3.76-9.6a7.24,7.24,0,0,1,.64,2.1l-.93.24h3.53l-1.11-.24a15.29,15.29,0,0,0,.72-2.1ZM23.4,26.41H21.72v7.93H20.28V26.41H18.21v.15c0,2.37-.28,5.7-2.49,7.92a3.56,3.56,0,0,0-1.06-1c1.94-2,2.13-4.71,2.13-6.92V21l1,.29A21.38,21.38,0,0,0,22,19.92L23.24,21a25,25,0,0,1-5,1.46V25H23.4Z"/><path class="cls-3" d="M16.71,40.93a14.44,14.44,0,0,0,6.88,4.12,8,8,0,0,0-.85,1.37A16.85,16.85,0,0,1,16,42.22a16.34,16.34,0,0,1-6.64,4.29,5.63,5.63,0,0,0-.79-1.26,14.29,14.29,0,0,0,6.6-4.32Zm-4.32-.76H9.08V38.78h3.31V37.5h1.47v1.28h4.26V37.5h1.47v1.28h3.47v1.39H19.59v1.56H18.12V40.17H13.86v1.56H12.39Zm1.34,8.21a11.31,11.31,0,0,1-3.29,3.48,8.39,8.39,0,0,0-1.28-1,8.38,8.38,0,0,0,3-2.92Zm3-1.1v4.91H15.22V47.28H11V45.89h4.21V44.14h1.51v1.75h4.38v1.39Zm2.69.61a22.47,22.47,0,0,1,3.31,3l-1.28.9a19.81,19.81,0,0,0-3.24-3.09Z"/><path class="cls-3" d="M14.1,61.55l-.91,1.39A37,37,0,0,0,9.7,60.75l.88-1.36C11.57,59.92,13.36,61,14.1,61.55Zm1.59,3.68a15.73,15.73,0,0,0,6-5.81l1,1.65a18.54,18.54,0,0,1-6.14,5.64,19.22,19.22,0,0,1-5.22,2L10.39,67A16.89,16.89,0,0,0,15.69,65.23Zm.78-7.17-.93,1.36c-.81-.59-2.48-1.69-3.46-2.24l.9-1.34C13.94,56.38,15.72,57.53,16.47,58.06Z"/><path class="cls-3" d="M14.84,85A20.13,20.13,0,0,0,15,82.53c0-.88,0-7,0-8.21a11.14,11.14,0,0,0-.12-1.95h2a12,12,0,0,0-.11,1.93v8.23A21.05,21.05,0,0,0,16.87,85Z"/><path class="cls-3" d="M20.68,92.13a4.75,4.75,0,0,0-.45.8,21.7,21.7,0,0,1-2.58,4.49,42.74,42.74,0,0,1,4.52,4.6l-1.41,1.21a37,37,0,0,0-4.16-4.57,20.67,20.67,0,0,1-6,4.51l-1.28-1.33a17.59,17.59,0,0,0,6.47-4.59,13.47,13.47,0,0,0,2.5-4.15H12.47c-.61,0-1.47.07-1.71.08V91.42c.3,0,1.23.1,1.71.1h5.84a4.87,4.87,0,0,0,1.36-.16l.63.46a21.68,21.68,0,0,0-1.14-1.95l1-.42a20.42,20.42,0,0,1,1.26,2.15l-.91.41ZM22,88.91A23.41,23.41,0,0,1,23.34,91l-1,.45A16.71,16.71,0,0,0,21,89.32Z"/><path class="cls-3" d="M16.41,115.47a14.65,14.65,0,0,0,5.45-5.92l1,1.71a16.14,16.14,0,0,1-5.5,5.69,16.87,16.87,0,0,1-6,2.35l-1-1.62A16.34,16.34,0,0,0,16.41,115.47Zm-.66-4.9-1.25,1.27a32.74,32.74,0,0,0-3.9-3.25l1.13-1.22A32.26,32.26,0,0,1,15.75,110.57Z"/><path class="cls-3" d="M14.45,123.48c-.46,1.37-1.09,3-1.63,4.29a4.67,4.67,0,0,1,1.43,3.35,2.18,2.18,0,0,1-.71,1.94,2.1,2.1,0,0,1-.9.32,8.55,8.55,0,0,1-1.15,0,3.35,3.35,0,0,0-.35-1.36c.35,0,.66,0,.9,0a1,1,0,0,0,.52-.14,1.12,1.12,0,0,0,.32-1,4.29,4.29,0,0,0-1.4-3c.43-1.08.89-2.54,1.21-3.64h-1.9V137H9.38v-14h3.86l.2,0Zm8.65,7.77c-.76.69-1.64,1.42-2.4,2a6.77,6.77,0,0,0,2.78,2.42,5.57,5.57,0,0,0-1,1.23c-2.35-1.2-3.7-3.64-4.44-6.74H16.57v4.55l2.72-.52.11,1.3c-1.94.45-4,.9-5.51,1.23l-.49-1.44,1.72-.3V123h7.26v7.19H19.33a14.24,14.24,0,0,0,.77,2.05,17.37,17.37,0,0,0,1.83-1.78Zm-6.53-7v1.67h4.35v-1.67Zm0,4.63h4.35v-1.71H16.57Z"/><path class="cls-3" d="M16.81,152.9a17.64,17.64,0,0,0,2.25.14c.69,0,3.38,0,4.29,0a4.6,4.6,0,0,0-.56,1.5H19c-3.13,0-5.44-.52-6.9-3a8.1,8.1,0,0,1-2.25,3.33,8.13,8.13,0,0,0-1.24-1c1.77-1.32,2.58-3.56,2.92-6.36l1.53.15a18.09,18.09,0,0,1-.38,2.09,4.59,4.59,0,0,0,2.61,2.82v-6.21h-3.7v-1.42h9v1.42H16.81v2.35h4.57V150H16.81Zm-6-7.46H9.38v-3.68h5.86V140h1.58v1.72h5.92v3.68H21.22v-2.27H10.84Z"/></g></g></svg>