<svg xmlns="http://www.w3.org/2000/svg" viewBox="0 0 100 100"><defs><style>.cls-1{fill:#f02121;}.cls-2{fill:none;stroke:#fff;stroke-miterlimit:10;}.cls-3{fill:#fff;}</style></defs><g id="レイヤー_2" data-name="レイヤー 2"><g id="img"><circle class="cls-1" cx="50" cy="50" r="50"/><circle class="cls-2" cx="50" cy="50" r="46.88"/><path class="cls-3" d="M35.56,43.56l-2.3.35-.07,17.32h-1.3L20.77,45.78l.07,14,3.05.38v.9h-6.6v-.9l2.3-.35.1-15.57-.35-.45-1.92-.25v-.9h4.67l10,13.9L32,43.93,29,43.56v-.9h6.6Z"/><path class="cls-3" d="M53.41,56.13l-.07,4.95H39.07v-.9l2.47-.28c.05-2.42.05-4.89.05-7.39V51.23c0-2.45,0-4.95-.05-7.4l-2.47-.27v-.9H52.81l.08,4.82H51.56l-.82-3.72H44.52c0,2.4,0,4.85,0,7.42h4l.38-2.7H50v6.35H48.84l-.35-2.62h-4c0,2.77,0,5.29,0,7.77h6.74l.83-3.85Z"/><path class="cls-3" d="M82,43.56l-2.33.32L75,61.23H73.54L68.91,46.76,64.52,61.23H63.09l-5-17.42-2.13-.25v-.9h7.63v.9l-2.48.3,3.5,13.32,4.12-13.3-2.62-.32v-.9h7.5v.9l-2.78.32,4.08,13.35,3.55-13.32-2.53-.35v-.9H82Z"/></g></g></svg>