<svg xmlns="http://www.w3.org/2000/svg" viewBox="0 0 54.06 123.57"><defs><style>.cls-1{fill:#1da1f2;}.cls-2{fill:#333;}.cls-3{fill:#fff;}</style></defs><g id="レイヤー_2" data-name="レイヤー 2"><g id="txt"><polygon class="cls-1" points="32 123.57 16 113.67 0 123.57 0 0 32 0 32 123.57"/><path class="cls-2" d="M51.52,7h-1.1V9.25h-.85V7H46V6.42l3.42-5.23h1v5.1h1.1Zm-2-.71V3.67c0-.4,0-1,.07-1.43h0c-.2.38-.42.78-.64,1.16L47,6.29Z"/><path class="cls-2" d="M52.32,21.38c0,.56-.15.8-.55.93a8.8,8.8,0,0,1-2.3.15,3.88,3.88,0,0,0-.31-.77c.93,0,1.81,0,2.07,0s.33-.09.33-.32V19.07H46.18a6.21,6.21,0,0,1-1.9,3.45,2.7,2.7,0,0,0-.55-.52c1.78-1.59,2-3.82,2-5.61V13.07h6.62Zm-.76-3V16.41H46.43a14.83,14.83,0,0,1-.12,1.94Zm-5.13-4.56v1.92h5.13V13.79Z"/><path class="cls-2" d="M48.57,30.2a3.31,3.31,0,0,1-1.16-2.45,3.26,3.26,0,0,1,1.91-2.86l.43.68a2.52,2.52,0,0,0-1.54,2.17,2.57,2.57,0,0,0,.93,1.91,3.33,3.33,0,0,1,1.16,2.46A3.26,3.26,0,0,1,48.39,35L48,34.28a2.49,2.49,0,0,0,1.54-2.16A2.6,2.6,0,0,0,48.57,30.2Z"/><path class="cls-2" d="M47,45.32a1.85,1.85,0,0,0,1.37.61c1.06,0,2-.89,2.07-3.49a2.53,2.53,0,0,1-1.89,1c-1.34,0-2.2-.87-2.2-2.53a2.4,2.4,0,0,1,2.27-2.6c1.55,0,2.67,1.28,2.67,3.8,0,3.3-1.4,4.54-2.89,4.54a2.53,2.53,0,0,1-1.9-.8Zm3.43-3.63C50.32,40,49.69,39,48.6,39c-.81,0-1.41.77-1.41,1.9s.48,1.86,1.48,1.86A2.23,2.23,0,0,0,50.41,41.69Z"/><path class="cls-2" d="M52.32,58.67c0,.56-.15.8-.55.93a8.8,8.8,0,0,1-2.3.15,3.88,3.88,0,0,0-.31-.77c.93,0,1.81,0,2.07,0s.33-.09.33-.32V56.36H46.18a6.21,6.21,0,0,1-1.9,3.45,2.7,2.7,0,0,0-.55-.52c1.78-1.59,2-3.82,2-5.6V50.36h6.62Zm-.76-3V53.7H46.43a14.83,14.83,0,0,1-.12,1.94Zm-5.13-4.56V53h5.13V51.08Z"/><path class="cls-2" d="M49.71,67.54a11.47,11.47,0,0,0,4.23,3.4,2.71,2.71,0,0,0-.54.62,12.31,12.31,0,0,1-4.18-3.64v4.29h-.76V68a12.07,12.07,0,0,1-4.12,3.59,4.4,4.4,0,0,0-.52-.61A11,11,0,0,0,48,67.54H44.64v-.72h3.82v-2H44.07v-.73h4.39V62.2h.76v1.89H53.7v.73H49.22v2h3.89v.72Z"/><path class="cls-2" d="M46.69,81.92c.32,0,.37-.29.4-1.71a2,2,0,0,0,.66.31c-.07,1.61-.26,2.11-1,2.11H45.46c-.79,0-1-.25-1-1.17V75h.71v3.25A17.84,17.84,0,0,0,47,76.76l.54.5a20.35,20.35,0,0,1-2.39,1.68v2.52c0,.4.06.46.39.46Zm3.41,1.29a10.12,10.12,0,0,1-2.8,1.43c-.11-.14-.33-.37-.47-.52a8.12,8.12,0,0,0,2.62-1.31Zm0-6.29a11.13,11.13,0,0,0,.26-1.11H47.73v-.65H53.8v.65H51.19c-.12.37-.24.77-.37,1.11h2.63v5.66H48.32V76.92Zm2.65.58H49v1.12h3.75Zm0,1.66H49v1.13h3.75Zm0,1.7H49V82h3.75Zm-.91,2a13.87,13.87,0,0,1,2.22,1.35l-.57.45a14.5,14.5,0,0,0-2.2-1.41Z"/><path class="cls-2" d="M48.86,91.76l3.62-3.63.32.32-3.63,3.63,3.63,3.63-.32.32-3.62-3.64L45.21,96l-.32-.32,3.65-3.64L44.9,88.45l.32-.32Zm-2.32.32a.82.82,0,0,1-.82.82.83.83,0,1,1,.82-.82Zm2.32-2.31a.83.83,0,0,1-.83-.83.83.83,0,1,1,.83.83Zm0,4.62a.82.82,0,0,1,.82.82.83.83,0,1,1-.82-.82Zm2.31-2.31a.82.82,0,1,1,.82.82A.83.83,0,0,1,51.17,92.08Z"/><path class="cls-3" d="M20.86,30.29a8.71,8.71,0,0,1-3.06,2.57,25.67,25.67,0,0,0,5.73.87,8.35,8.35,0,0,0-.85,1.33,21.42,21.42,0,0,1-6.61-1.43,28.33,28.33,0,0,1-6.85,1.43,5,5,0,0,0-.56-1.22,27.8,27.8,0,0,0,5.87-1,8.44,8.44,0,0,1-2-1.63,14.83,14.83,0,0,1-2.88,1.31,3.54,3.54,0,0,0-.86-1.05A11,11,0,0,0,13.46,29H10.79v-6h4.14c.07-.26.11-.53.18-.78H9.32V21.05H22.81v1.22H16.74l-.3.78h4.91v6h-6.1a8.09,8.09,0,0,1-.7.74h5.09l.27-.08Zm-8.63-5.56h7.63V24H12.23Zm0,1.7h7.63v-.8H12.23Zm0,1.69h7.63v-.8H12.23Zm1.65,2.68a7.38,7.38,0,0,0,2.29,1.49A8.71,8.71,0,0,0,18.6,30.8Z"/><path class="cls-3" d="M15.29,45.1V42.91a14.7,14.7,0,0,1-3.45,2.61H19l.32-.08.9.75a15.58,15.58,0,0,1-3.46,2.08v0H23.1v1.26H16.77v1.7c0,.77-.19,1.14-.8,1.33a10.6,10.6,0,0,1-2.93.21,6.09,6.09,0,0,0-.52-1.3c1.05,0,2.14,0,2.41,0s.39-.08.39-.31V49.58H9V48.32h6.28v-.88H16a10.74,10.74,0,0,0,1.42-.76H11.75v-1.1a20.14,20.14,0,0,1-2.24,1,6.75,6.75,0,0,0-.92-1.14,15.41,15.41,0,0,0,5.21-2.84H9.06V41.39h6.23v-1.3c-1.65.11-3.35.19-4.9.22a5,5,0,0,0-.34-1.18,63.72,63.72,0,0,0,10.23-1l1.22,1.06a36.11,36.11,0,0,1-4.76.73v1.43h6.34v1.24h-4.8a14.54,14.54,0,0,0,5.15,2.68,5.74,5.74,0,0,0-.94,1.17,15.39,15.39,0,0,1-5.75-3.65V45.1Z"/><path class="cls-3" d="M14.45,57.1c-.46,1.36-1.09,3-1.63,4.29a4.64,4.64,0,0,1,1.43,3.34,2.18,2.18,0,0,1-.71,1.94,2,2,0,0,1-.9.32,6.17,6.17,0,0,1-1.15,0,3.35,3.35,0,0,0-.35-1.36c.35,0,.66,0,.9,0a.88.88,0,0,0,.52-.14,1.11,1.11,0,0,0,.32-1,4.27,4.27,0,0,0-1.4-3c.43-1.09.89-2.55,1.21-3.65h-1.9V70.58H9.38v-14h3.86l.2,0Zm8.65,7.76c-.76.69-1.64,1.43-2.4,2a6.63,6.63,0,0,0,2.78,2.42,5.81,5.81,0,0,0-1,1.23c-2.35-1.2-3.7-3.63-4.44-6.74H16.57v4.55l2.72-.51.11,1.29c-1.94.45-4,.9-5.51,1.24l-.49-1.45,1.72-.3v-12h7.26v7.18H19.33a14.24,14.24,0,0,0,.77,2A16.43,16.43,0,0,0,21.93,64Zm-6.53-7v1.66h4.35V57.87Zm0,4.62h4.35V60.78H16.57Z"/><path class="cls-3" d="M16.81,86.51a15.93,15.93,0,0,0,2.25.15c.69,0,3.38,0,4.29,0a4.65,4.65,0,0,0-.56,1.51H19c-3.13,0-5.44-.53-6.9-3a8.1,8.1,0,0,1-2.25,3.33,7.62,7.62,0,0,0-1.24-1c1.77-1.31,2.58-3.55,2.92-6.35l1.53.14a18.27,18.27,0,0,1-.38,2.1,4.55,4.55,0,0,0,2.61,2.81V79.88h-3.7V78.46h9v1.42H16.81v2.36h4.57v1.39H16.81Zm-6-7.46H9.38V75.37h5.86V73.66h1.58v1.71h5.92v3.68H21.22V76.78H10.84Z"/></g></g></svg>