<svg xmlns="http://www.w3.org/2000/svg" viewBox="0 0 54.06 189"><defs><style>.cls-1{fill:#a0d71e;}.cls-2{fill:#333;}.cls-3{fill:#fff;}</style></defs><g id="レイヤー_2" data-name="レイヤー 2"><g id="txt"><polygon class="cls-1" points="32 189 16 179.1 0 189 0 0 32 0 32 189"/><path class="cls-2" d="M51.52,6.44h-1.1V8.68h-.85V6.44H46V5.85L49.46.63h1V5.72h1.1Zm-2-.72V3.1c0-.39,0-1,.07-1.43h0c-.2.39-.42.78-.64,1.17L47,5.72Z"/><path class="cls-2" d="M52.32,20.81c0,.56-.15.81-.55.94a9.45,9.45,0,0,1-2.3.14,3.88,3.88,0,0,0-.31-.77c.93,0,1.81,0,2.07,0s.33-.09.33-.32V18.5H46.18A6.24,6.24,0,0,1,44.28,22a2.75,2.75,0,0,0-.55-.53c1.78-1.59,2-3.82,2-5.6V12.51h6.62Zm-.76-3V15.84H46.43a15.09,15.09,0,0,1-.12,1.95Zm-5.13-4.57v1.93h5.13V13.22Z"/><path class="cls-2" d="M53.78,28.64a15,15,0,0,1-2,2.65l-.59-.38a9.92,9.92,0,0,0,1.39-1.79H49.29v4.29c0,.48-.12.69-.49.8a8.46,8.46,0,0,1-2,.12,2.57,2.57,0,0,0-.26-.7c.78,0,1.5,0,1.71,0s.27-.06.27-.23V29.12H44v-.7H49.8c-.94-.48-2.28-1.11-3.3-1.56l.38-.53,2,.88a12.19,12.19,0,0,0,2.23-1.59H45v-.68h6.86l.16-.05.53.41a16.13,16.13,0,0,1-2.93,2.25l1.25.61-.18.26h2.38l.14-.05Z"/><path class="cls-2" d="M45.06,43.11a9.76,9.76,0,0,1-.79,2.78,2.46,2.46,0,0,0-.59-.27A7.76,7.76,0,0,0,44.42,43Zm2-2.81a9.23,9.23,0,0,1,1.11,2.23l-.58.27a5.18,5.18,0,0,0-.23-.65l-1,.07v4.61h-.66V42.25l-1.83.1-.06-.67.71,0c.25-.31.52-.66.78-1A9.71,9.71,0,0,0,43.83,39l.37-.48.34.3a12.73,12.73,0,0,0,1-2.07l.65.26A20.21,20.21,0,0,1,45,39.25a7.09,7.09,0,0,1,.71.81,19.87,19.87,0,0,0,1.22-2l.63.28a32.82,32.82,0,0,1-2.31,3.33l1.88-.07a9,9,0,0,0-.57-1Zm.3,2.64a9.42,9.42,0,0,1,.75,2.13l-.6.2a9.34,9.34,0,0,0-.7-2.14Zm6.28-4.17s0,.3,0,.39c-.19,5-.35,6.66-.8,7.19a1.1,1.1,0,0,1-.88.42c-.37,0-1.05,0-1.71,0A1.63,1.63,0,0,0,50,46c.73.07,1.42.07,1.69.07a.56.56,0,0,0,.48-.16c.36-.39.56-2.07.72-6.46H49.2a8.46,8.46,0,0,1-1,1.56,4.88,4.88,0,0,0-.65-.43,9.62,9.62,0,0,0,2-3.83l.73.17a14.35,14.35,0,0,1-.69,1.83ZM50.54,44A11.29,11.29,0,0,0,49,41.42l.58-.3a11,11,0,0,1,1.57,2.53Z"/><path class="cls-2" d="M45.09,53.33v5.91h-.71V49.69h3.95v3.64Zm0-3.07v.94h2.54v-.94Zm2.54,2.5v-1H45.09v1Zm2.64,3.77V59h-.65V56.53H48a3.58,3.58,0,0,1-1.51,2.63,2.67,2.67,0,0,0-.49-.44,2.84,2.84,0,0,0,1.35-2.19H45.91v-.62h1.44V54.66H46.13V54h5.44v.62h-1.3v1.25h1.54v.62Zm-.65-.62V54.66H48v1.25Zm3.77,2.34c0,.46-.11.7-.42.83a5.77,5.77,0,0,1-1.69.13,2.6,2.6,0,0,0-.24-.73c.63,0,1.23,0,1.39,0s.24-.07.24-.24V53.34H49.34V49.69h4Zm-3.35-8v.94h2.63v-.94Zm2.63,2.51v-1H50v1Z"/><path class="cls-2" d="M47.91,64a15.15,15.15,0,0,1-1,4.78A8.44,8.44,0,0,1,48.16,70l-.44.58a8.54,8.54,0,0,0-1.17-1.13,5.86,5.86,0,0,1-2.15,2.28,3.24,3.24,0,0,0-.45-.6A5,5,0,0,0,46,69c-.39-.3-.82-.58-1.23-.84l-.13.49L44,68.3c.29-1,.63-2.32,1-3.71H43.88v-.67H45.1c.18-.8.34-1.59.48-2.29l.69.08c-.13.68-.3,1.44-.47,2.21h1.54l.13,0Zm-2.27.6c-.23,1-.48,2-.71,2.9.44.25.91.55,1.36.85a12.85,12.85,0,0,0,.88-3.75Zm6.59-1.26A12.11,12.11,0,0,1,54,66.25l-.61.37c-.09-.23-.21-.51-.35-.8-1.81.14-3.67.28-5,.36L48,65.47l.87,0a27.44,27.44,0,0,0,1.3-3.8l.8.18c-.39,1.13-.91,2.54-1.38,3.57l3.12-.19a15.89,15.89,0,0,0-1.05-1.57Zm-3.49,3.91h4.65v4.38h-.73v-.46H49.44v.51h-.7Zm.7.68v2.57h3.22V67.92Z"/><path class="cls-2" d="M48.57,79.35a3.31,3.31,0,0,1-1.16-2.45A3.28,3.28,0,0,1,49.32,74l.43.68a2.52,2.52,0,0,0-1.54,2.17,2.57,2.57,0,0,0,.93,1.91,3.33,3.33,0,0,1,1.16,2.46,3.29,3.29,0,0,1-1.91,2.86L48,83.44a2.52,2.52,0,0,0,1.54-2.17A2.62,2.62,0,0,0,48.57,79.35Z"/><path class="cls-2" d="M50.74,88.86a1.72,1.72,0,0,0-1.3-.62c-1.13,0-2.09.87-2.13,3.44a2.55,2.55,0,0,1,1.86-1c1.36,0,2.22.84,2.22,2.53a2.39,2.39,0,0,1-2.27,2.59c-1.55,0-2.66-1.34-2.66-4,0-3.18,1.41-4.37,2.95-4.37a2.44,2.44,0,0,1,1.84.81Zm-.21,4.38c0-1.13-.47-1.86-1.5-1.86a2.17,2.17,0,0,0-1.7,1.06c.11,1.71.73,2.68,1.79,2.68C49.93,95.12,50.53,94.35,50.53,93.24Z"/><path class="cls-2" d="M52.32,107.82c0,.56-.15.81-.55.94a9.45,9.45,0,0,1-2.3.14,3.88,3.88,0,0,0-.31-.77c.93,0,1.81,0,2.07,0s.33-.09.33-.32v-2.31H46.18a6.24,6.24,0,0,1-1.9,3.46,2.75,2.75,0,0,0-.55-.53c1.78-1.59,2-3.82,2-5.6V99.52h6.62Zm-.76-3v-2H46.43a14.88,14.88,0,0,1-.12,2Zm-5.13-4.57v1.93h5.13v-1.93Z"/><path class="cls-2" d="M49.71,116.69a11.47,11.47,0,0,0,4.23,3.4,2.94,2.94,0,0,0-.54.62,12.2,12.2,0,0,1-4.18-3.64v4.29h-.76v-4.22a12.21,12.21,0,0,1-4.12,3.6,4,4,0,0,0-.52-.62A11,11,0,0,0,48,116.69H44.64V116h3.82v-2H44.07v-.72h4.39v-1.9h.76v1.9H53.7V114H49.22v2h3.89v.72Z"/><path class="cls-2" d="M46.69,131.08c.32,0,.37-.3.4-1.72a2,2,0,0,0,.66.31c-.07,1.62-.26,2.11-1,2.11H45.46c-.79,0-1-.24-1-1.17v-6.49h.71v3.25A17.83,17.83,0,0,0,47,125.92l.54.49a19.22,19.22,0,0,1-2.39,1.68v2.52c0,.4.06.47.39.47Zm3.41,1.28a10.12,10.12,0,0,1-2.8,1.43c-.11-.14-.33-.37-.47-.51A8.54,8.54,0,0,0,49.45,132Zm0-6.29a11.13,11.13,0,0,0,.26-1.11H47.73v-.65H53.8V125H51.19c-.12.37-.24.77-.37,1.11h2.63v5.67H48.32v-5.67Zm2.65.58H49v1.13h3.75Zm0,1.66H49v1.14h3.75Zm0,1.7H49v1.14h3.75Zm-.91,2a14.63,14.63,0,0,1,2.22,1.35l-.57.46a13.11,13.11,0,0,0-2.2-1.41Z"/><path class="cls-2" d="M48.86,140.91l3.62-3.63.32.32-3.63,3.63,3.63,3.63-.32.32-3.62-3.63-3.65,3.64-.32-.32,3.65-3.64L44.9,137.6l.32-.32Zm-2.32.32a.82.82,0,0,1-.82.82.83.83,0,0,1-.83-.82.84.84,0,0,1,.83-.83A.83.83,0,0,1,46.54,141.23Zm2.32-2.31a.83.83,0,0,1-.83-.83.83.83,0,1,1,.83.83Zm0,4.62a.83.83,0,1,1-.83.83A.83.83,0,0,1,48.86,143.54Zm2.31-2.31a.82.82,0,1,1,1.64,0,.82.82,0,0,1-1.64,0Z"/><path class="cls-3" d="M14.85,32.25a21.78,21.78,0,0,0-1.55-1.59v3.8H11.86V30.71A12.23,12.23,0,0,1,9.48,33.4a5.83,5.83,0,0,0-1-1.07A11,11,0,0,0,11.57,29H8.9V27.7h3V26.25h-3V25H10.5a7.75,7.75,0,0,0-.56-2.06L11,22.64h-2V21.41h2.8V19.89H13.3v1.52h2.8v1.23H14.17l1.12.26c-.31.75-.61,1.54-.88,2.08h1.87v1.27h-3V27.7h2.83V29H13.3v.27c.58.4,2,1.6,2.42,1.9Zm-3.76-9.61a7.33,7.33,0,0,1,.64,2.1L10.8,25h3.53l-1.11-.24a14.85,14.85,0,0,0,.72-2.1ZM23.4,26.47H21.72v7.92H20.28V26.47H18.21v.14c0,2.37-.28,5.7-2.49,7.93a3.59,3.59,0,0,0-1.06-1c1.94-2,2.13-4.7,2.13-6.91V21.06l1,.29A21.33,21.33,0,0,0,22,20L23.24,21a24.35,24.35,0,0,1-5,1.46v2.59H23.4Z"/><path class="cls-3" d="M16.71,41a14.46,14.46,0,0,0,6.88,4.13,7.51,7.51,0,0,0-.85,1.36A16.94,16.94,0,0,1,16,42.28a16.45,16.45,0,0,1-6.64,4.29,5.93,5.93,0,0,0-.79-1.27A14.14,14.14,0,0,0,15.19,41Zm-4.32-.75H9.08v-1.4h3.31V37.55h1.47v1.28h4.26V37.55h1.47v1.28h3.47v1.4H19.59v1.55H18.12V40.23H13.86v1.55H12.39Zm1.34,8.21a11.17,11.17,0,0,1-3.29,3.47,8.39,8.39,0,0,0-1.28-1,8.44,8.44,0,0,0,3-2.91Zm3-1.11v4.92H15.22V47.33H11V45.94h4.21V44.2h1.51v1.74h4.38v1.39Zm2.69.61a22.5,22.5,0,0,1,3.31,3l-1.28.89a20.68,20.68,0,0,0-3.24-3.09Z"/><path class="cls-3" d="M14.1,61.61,13.19,63A37,37,0,0,0,9.7,60.81l.88-1.36C11.57,60,13.36,61.09,14.1,61.61Zm1.59,3.68a15.8,15.8,0,0,0,6-5.81l1,1.65a18.51,18.51,0,0,1-6.14,5.63,19.22,19.22,0,0,1-5.22,1.95l-.91-1.63A17.13,17.13,0,0,0,15.69,65.29Zm.78-7.17-.93,1.36a39.68,39.68,0,0,0-3.46-2.24l.9-1.35C13.94,56.44,15.72,57.59,16.47,58.12Z"/><path class="cls-3" d="M14.84,85A20,20,0,0,0,15,82.58c0-.88,0-7,0-8.21a11.2,11.2,0,0,0-.12-2h2a12.14,12.14,0,0,0-.11,1.94v8.22A21.05,21.05,0,0,0,16.87,85Z"/><path class="cls-3" d="M20.68,92.18a4.75,4.75,0,0,0-.45.8,21.75,21.75,0,0,1-2.58,4.5,43.67,43.67,0,0,1,4.52,4.59l-1.41,1.22a37.09,37.09,0,0,0-4.16-4.58,20.67,20.67,0,0,1-6,4.51L9.28,101.9a17.61,17.61,0,0,0,6.47-4.6,13.54,13.54,0,0,0,2.5-4.14H12.47c-.61,0-1.47.06-1.71.08V91.48c.3,0,1.23.09,1.71.09h5.84a4.52,4.52,0,0,0,1.36-.16l.63.47c-.32-.61-.77-1.41-1.14-2l1-.41a19.33,19.33,0,0,1,1.26,2.14l-.91.42ZM22,89a24.87,24.87,0,0,1,1.3,2.13l-1,.45A16.59,16.59,0,0,0,21,89.38Z"/><path class="cls-3" d="M16.41,115.53a14.77,14.77,0,0,0,5.45-5.92l1,1.71a16.12,16.12,0,0,1-5.5,5.68,16.87,16.87,0,0,1-6,2.35l-1-1.61A16.34,16.34,0,0,0,16.41,115.53Zm-.66-4.9-1.25,1.26a33.72,33.72,0,0,0-3.9-3.25l1.13-1.21A32.26,32.26,0,0,1,15.75,110.63Z"/><path class="cls-3" d="M14.45,123.54c-.46,1.36-1.09,3-1.63,4.29a4.64,4.64,0,0,1,1.43,3.34,2.17,2.17,0,0,1-.71,1.94,2,2,0,0,1-.9.32,6.17,6.17,0,0,1-1.15,0,3.35,3.35,0,0,0-.35-1.36c.35,0,.66,0,.9,0a.88.88,0,0,0,.52-.14,1.11,1.11,0,0,0,.32-1,4.27,4.27,0,0,0-1.4-3c.43-1.09.89-2.55,1.21-3.65h-1.9V137H9.38V123h3.86l.2,0Zm8.65,7.76c-.76.69-1.64,1.43-2.4,2a6.63,6.63,0,0,0,2.78,2.42,5.81,5.81,0,0,0-1,1.23c-2.35-1.2-3.7-3.63-4.44-6.74H16.57v4.55l2.72-.51.11,1.29c-1.94.45-4,.9-5.51,1.24l-.49-1.44,1.72-.31V123h7.26v7.18H19.33a14.24,14.24,0,0,0,.77,2,17.34,17.34,0,0,0,1.83-1.77Zm-6.53-7V126h4.35v-1.66Zm0,4.62h4.35v-1.71H16.57Z"/><path class="cls-3" d="M16.81,153a15.93,15.93,0,0,0,2.25.15c.69,0,3.38,0,4.29,0a4.74,4.74,0,0,0-.56,1.51H19c-3.13,0-5.44-.53-6.9-3a8.1,8.1,0,0,1-2.25,3.33,7.62,7.62,0,0,0-1.24-1c1.77-1.31,2.58-3.55,2.92-6.35l1.53.14a18.27,18.27,0,0,1-.38,2.1,4.59,4.59,0,0,0,2.61,2.82v-6.21h-3.7V144.9h9v1.43H16.81v2.35h4.57v1.39H16.81Zm-6-7.46H9.38v-3.68h5.86V140.1h1.58v1.71h5.92v3.68H21.22v-2.27H10.84Z"/></g></g></svg>