<svg xmlns="http://www.w3.org/2000/svg" viewBox="0 0 160.01 160"><defs><style>.cls-1{fill:#6fb72c;}.cls-2{fill:#fff;}.cls-3{fill:#e53828;}.cls-4{fill:#231815;}.cls-5{fill:#44ad35;}</style></defs><g id="レイヤー_2" data-name="レイヤー 2"><g id="img"><path class="cls-1" d="M159.74,80c0,.21.15.43.15.64s.12.44.12.65-.43.42-.44.64.06.43.05.65,0,.43,0,.64-.17.43-.18.64.17.44.15.66.13.44.12.65.1.44.08.66-.38.4-.4.61.13.45.11.66.13.45.11.66-.1.43-.12.64-.36.4-.39.61,0,.43,0,.64.28.48.26.69-.26.4-.29.61.13.46.1.67-.07.43-.1.64-.26.4-.29.61-.15.41-.18.63-.07.42-.1.63-.14.42-.17.63-.2.4-.25.61,0,.44,0,.65.17.47.12.68-.37.36-.42.57.27.51.22.72-.15.4-.2.61-.2.4-.25.61-.14.41-.19.62-.27.38-.32.58.15.49.09.7,0,.45-.05.65-.25.39-.31.59-.33.35-.39.56-.19.39-.26.6-.05.43-.11.64-.05.43-.11.64,0,.45-.09.65-.32.35-.39.55-.26.37-.33.57-.12.41-.2.62,0,.43-.12.64-.09.42-.17.62-.17.4-.25.6.05.49,0,.69-.37.31-.45.51-.31.34-.4.54,0,.48-.05.67-.19.39-.28.59-.07.44-.16.63-.36.31-.45.51,0,.5,0,.69-.3.34-.4.53-.27.35-.37.54,0,.48-.09.68-.15.41-.24.6-.32.32-.42.51-.17.4-.27.59-.22.37-.32.56-.37.29-.48.48-.25.35-.35.54,0,.49-.11.68-.17.4-.28.59-.5.2-.61.39.11.57,0,.75-.38.27-.49.46-.2.38-.32.56-.39.26-.51.44-.11.44-.23.62-.12.44-.24.62-.19.39-.31.57-.47.21-.59.38-.2.38-.33.56-.18.4-.3.57-.22.38-.35.55-.12.44-.25.62-.46.19-.59.37-.39.24-.52.41-.1.47-.23.64-.14.44-.27.61-.49.16-.63.33-.35.26-.49.43,0,.52-.18.69-.49.15-.62.32-.09.49-.23.66-.2.39-.34.55-.24.37-.38.53-.51.13-.65.29-.07.51-.22.67-.57.06-.71.22-.24.37-.39.53-.27.33-.42.48-.27.34-.42.5-.21.4-.36.55-.34.27-.5.42-.35.25-.5.4-.21.41-.37.56-.5.09-.66.24-.27.34-.42.49-.25.37-.41.51-.16.46-.32.61-.61,0-.77.1-.18.46-.34.6-.28.34-.44.48-.36.24-.53.38-.22.4-.39.53-.55,0-.71.16-.17.47-.34.61-.4.18-.57.32-.21.43-.38.56-.6-.07-.77.07-.26.36-.43.49-.31.31-.48.44-.23.42-.4.54-.42.16-.59.29-.44.13-.61.25l-.53.38c-.18.12-.38.2-.56.32s-.29.34-.47.46-.39.19-.57.31-.27.37-.45.49-.48,0-.67.16-.23.43-.41.54-.39.2-.57.32-.33.29-.51.4-.5,0-.69.11-.23.46-.41.57-.43.13-.62.23-.38.2-.57.31-.3.34-.49.44-.54-.08-.73,0-.22.49-.41.59-.52-.06-.71,0-.23.5-.42.6-.58-.19-.77-.1-.36.24-.56.33-.25.47-.44.57-.56-.16-.75-.07-.34.28-.54.37-.36.24-.56.33l-.59.26c-.2.09-.3.39-.5.48l-.59.25c-.2.09-.45.06-.65.14s-.41.12-.61.2-.44.05-.64.13-.45,0-.65.11-.3.43-.5.51-.45,0-.65.1-.39.2-.59.27-.45,0-.66.08-.34.34-.54.4-.39.22-.59.28-.46,0-.66.06-.43.08-.63.14-.36.32-.56.38-.46,0-.67,0-.42.08-.63.14-.43.07-.63.13-.38.25-.59.3-.48-.13-.69-.08-.4.16-.61.21-.34.42-.55.47L98,158c-.21,0-.47-.11-.68-.07s-.45-.07-.66,0-.39.26-.6.3-.44,0-.65.06-.37.34-.58.38-.46-.08-.67,0-.4.21-.61.24-.44,0-.65.07-.45-.09-.66-.06-.43,0-.65,0-.41.13-.63.16-.44-.09-.66-.06-.41.19-.62.22-.44,0-.65,0l-.64.09c-.21,0-.43,0-.65.05s-.42.12-.63.14-.41.26-.63.28-.45-.28-.66-.27-.42.2-.64.21-.42.09-.64.1-.44-.1-.65-.09-.43.08-.64.09-.43,0-.65,0-.43.05-.65.05-.43,0-.64,0-.43.17-.65.17H80c-.22,0-.43-.29-.65-.29s-.43,0-.64,0-.43.14-.65.13-.42-.19-.64-.2-.44.16-.65.15-.43-.16-.64-.17-.44.22-.66.21-.41-.34-.62-.36-.45.24-.67.22-.42-.06-.64-.08-.41-.22-.63-.24-.43,0-.65,0-.43,0-.64,0-.44,0-.65,0-.45.18-.67.15-.39-.35-.6-.38-.42-.15-.63-.18-.48.33-.69.3-.37-.45-.59-.49-.48.29-.69.26-.4-.22-.61-.26l-.64-.11c-.21,0-.41-.17-.62-.21s-.44,0-.65,0-.44,0-.65-.05-.44,0-.65-.06-.4-.17-.61-.22-.4-.19-.61-.24-.38-.27-.59-.32l-.62-.17c-.21-.05-.45,0-.66,0s-.4-.19-.61-.25-.42-.07-.63-.13-.46,0-.67,0l-.62-.17c-.21-.06-.45,0-.65-.08s-.43-.08-.64-.14-.42-.1-.62-.17-.36-.29-.57-.36-.39-.19-.59-.26-.34-.33-.55-.4-.51.16-.71.08-.3-.45-.5-.52-.48,0-.68,0-.33-.34-.54-.41-.53.19-.73.12-.38-.24-.58-.32-.3-.4-.5-.48-.54.17-.74.09-.31-.36-.51-.44-.48,0-.67-.08-.3-.4-.49-.49-.48,0-.68-.08-.41-.14-.6-.23-.32-.35-.51-.45-.41-.15-.6-.24-.41-.15-.6-.24-.32-.33-.51-.43-.51,0-.7-.06-.36-.24-.55-.34-.28-.39-.47-.49-.4-.16-.59-.27l-.56-.32c-.19-.11-.42-.14-.6-.25s-.35-.27-.53-.38-.43-.13-.61-.24-.27-.39-.45-.5l-.56-.32c-.19-.12-.34-.28-.52-.39s-.45-.1-.63-.22-.3-.33-.48-.44-.4-.18-.58-.3-.45-.1-.63-.22-.31-.31-.49-.43-.19-.48-.37-.6-.57.06-.74-.07-.13-.55-.31-.68-.41-.17-.58-.29-.32-.29-.49-.42l-.52-.39c-.17-.13-.46-.1-.63-.23s-.38-.22-.55-.35-.32-.29-.49-.42l-.5-.42c-.17-.13-.19-.45-.35-.58s-.49-.09-.65-.23-.4-.2-.57-.34-.1-.54-.27-.68-.52-.05-.69-.19-.18-.44-.34-.59-.22-.39-.38-.53-.34-.27-.5-.42-.27-.33-.43-.48-.55-.05-.7-.2-.18-.44-.33-.59-.22-.39-.37-.54-.62,0-.77-.14-.24-.37-.39-.52-.18-.44-.33-.59-.47-.14-.62-.3-.22-.39-.37-.54-.08-.51-.23-.67-.54-.09-.68-.25-.37-.25-.51-.41-.12-.47-.27-.63-.2-.39-.34-.56-.17-.42-.31-.58-.48-.16-.62-.33-.26-.34-.4-.5-.24-.37-.37-.53-.38-.25-.52-.42,0-.52-.16-.69-.59-.09-.72-.26-.25-.36-.38-.53-.21-.38-.33-.55,0-.51-.17-.69-.22-.37-.35-.54-.38-.25-.51-.43-.22-.37-.34-.55-.48-.19-.6-.37,0-.53-.11-.71-.36-.27-.48-.45-.06-.48-.18-.66-.36-.27-.48-.45-.05-.49-.16-.67-.41-.25-.53-.43-.28-.33-.39-.52-.06-.46-.17-.65-.32-.31-.42-.5-.15-.41-.26-.6-.47-.22-.58-.41,0-.47-.14-.66-.05-.46-.16-.65-.48-.23-.58-.43.14-.55,0-.74-.43-.27-.53-.46,0-.47-.12-.66-.33-.32-.43-.51-.14-.41-.23-.6-.38-.3-.47-.5-.07-.44-.16-.64-.07-.44-.16-.63-.38-.31-.46-.51.1-.51,0-.71-.19-.38-.27-.58-.12-.42-.2-.62-.2-.38-.28-.58-.35-.33-.42-.53.08-.49,0-.69-.23-.38-.31-.58-.1-.42-.17-.62-.21-.38-.28-.59-.44-.3-.51-.5-.09-.43-.16-.63.2-.52.14-.73-.2-.39-.27-.59-.28-.36-.35-.57.11-.48.05-.69-.35-.34-.41-.55-.25-.38-.31-.58,0-.45-.06-.66-.23-.38-.29-.59-.1-.42-.16-.63.13-.47.08-.68-.23-.39-.28-.6,0-.44,0-.66,0-.43-.09-.64-.05-.42-.1-.64L1.94,96c-.05-.21-.33-.37-.37-.58s.1-.46.06-.67-.36-.38-.4-.59.28-.48.24-.7-.11-.41-.15-.63-.4-.37-.43-.58.32-.49.29-.7,0-.43,0-.65S1,90.53,1,90.31s-.24-.4-.26-.61,0-.43-.05-.65,0-.44,0-.65,0-.44,0-.65-.11-.42-.13-.64-.23-.41-.25-.62,0-.44,0-.65.17-.45.15-.66.05-.43,0-.65-.15-.42-.16-.64,0-.43,0-.64-.15-.43-.15-.64.27-.44.26-.66-.3-.42-.3-.64S0,80.88,0,80.66s.23-.43.23-.64,0-.44,0-.65,0-.43,0-.65-.14-.43-.13-.65.1-.42.11-.64S.2,77,.2,76.78s.24-.42.25-.63.07-.43.08-.65-.4-.45-.39-.67.36-.41.37-.62-.2-.45-.18-.66,0-.44,0-.65.25-.41.27-.63-.06-.44,0-.65S.45,71.17.47,71s.06-.43.08-.65.36-.39.39-.6S.76,69.25.79,69s.41-.38.44-.59S1,68,1,67.76s.25-.4.29-.61.23-.4.27-.61-.07-.44,0-.66,0-.44,0-.65,0-.44.07-.65,0-.45,0-.66.13-.41.18-.62.1-.42.15-.63.24-.39.29-.6.31-.37.36-.58-.26-.51-.21-.71.36-.36.42-.57-.07-.46,0-.67.29-.36.35-.57.18-.4.24-.6,0-.45,0-.66,0-.44.08-.65.33-.35.39-.56l.19-.61c.07-.21-.08-.48,0-.69s0-.45.07-.66.43-.31.51-.51.13-.41.2-.61.21-.38.29-.58.06-.44.14-.64.09-.42.17-.63.3-.34.38-.54.13-.41.21-.61,0-.48.06-.68l.26-.59c.08-.2.1-.42.19-.62s.44-.27.53-.47.12-.42.21-.62.1-.42.19-.62.17-.4.26-.59.26-.35.36-.54,0-.49.07-.68.1-.44.2-.63.36-.3.46-.49.29-.34.39-.53.24-.36.34-.55,0-.48.12-.67,0-.47.14-.66.3-.33.4-.51.23-.37.33-.56l.33-.56c.11-.19.35-.3.46-.48s0-.51.1-.7.28-.33.4-.51.56-.16.68-.34.14-.41.26-.6-.07-.55.05-.73L13.2,36c.11-.18.27-.34.39-.52s.49-.18.61-.36.33-.3.45-.48.08-.46.21-.64.12-.44.25-.62.42-.22.55-.4,0-.5.17-.67.38-.26.51-.43.17-.41.3-.59.4-.23.53-.4.15-.43.29-.6.49-.16.62-.32.14-.45.27-.62.18-.41.31-.58.47-.17.6-.34.23-.37.37-.53.14-.46.28-.62.54-.1.69-.26,0-.53.19-.69.44-.18.59-.34.14-.46.28-.62.49-.13.64-.29.38-.23.53-.38,0-.59.16-.75l.47-.45c.15-.15.57,0,.72-.18s.16-.46.31-.61.35-.25.51-.4.27-.34.43-.49.16-.46.32-.61.46-.13.62-.28.44-.14.6-.29.29-.32.45-.46.27-.35.43-.5.26-.35.43-.49l.48-.43c.17-.13.43-.16.6-.29s.14-.51.31-.64.39-.2.56-.34.37-.23.54-.36.45-.12.62-.25.28-.34.46-.47.43-.14.6-.27.4-.19.57-.31.12-.57.29-.7l.53-.38c.17-.13.31-.31.49-.43s.37-.22.55-.34.53,0,.71-.11.29-.33.47-.45.4-.18.58-.3.45-.1.63-.21.15-.57.33-.68.55.06.73,0,.22-.47.4-.58.39-.19.58-.3.3-.34.49-.45.48,0,.67-.13.35-.25.54-.36.41-.15.6-.25.28-.38.47-.49.49,0,.68-.1.44-.08.63-.17.36-.24.56-.34.4-.16.59-.25.29-.39.48-.48.35-.27.55-.36.35-.27.54-.36.42-.14.61-.23.42-.13.61-.22.39-.19.59-.28.37-.23.57-.32.53.15.73.07.27-.47.47-.55.47,0,.67-.07.37-.21.58-.29.41-.12.61-.2.47,0,.67-.06.33-.35.53-.42l.61-.22c.2-.07.49.1.7,0s.38-.21.58-.28.35-.3.56-.37.47.08.68,0,.3-.46.51-.53.47.06.67,0,.35-.35.55-.41.49.14.7.08.34-.38.55-.43.51.25.72.19.36-.34.57-.39.44,0,.65-.06.43-.06.64-.11.37-.28.58-.33.45,0,.66,0,.43,0,.64-.08.41-.16.62-.2.46.14.68.1.35-.43.56-.47.48.18.69.15.38-.32.59-.36.44,0,.66,0,.4-.24.61-.28.44,0,.65,0,.47.27.69.24.4-.19.62-.22l.64-.07c.21,0,.4-.28.61-.31s.44,0,.65-.06.44,0,.65,0,.43,0,.65,0,.43,0,.65,0l.64-.06c.21,0,.43-.06.64-.07s.43-.11.64-.12.44,0,.65,0,.43-.12.65-.13.44.22.65.21.43-.25.64-.26.44.44.66.44.43-.16.64-.16.43-.06.65-.06.43.2.64.21.43,0,.65,0,.43-.15.65-.14.44-.25.65-.24.42.33.64.33.44-.29.66-.28.42.23.63.24.44,0,.65,0,.42.16.64.18.42.17.63.19l.64,0c.22,0,.44,0,.65,0s.47-.32.68-.3.42.1.64.13.4.23.62.26.46-.22.67-.19.41.2.63.23.38.35.59.38.44,0,.65,0,.42.13.63.17.44,0,.65,0,.47-.21.68-.18.45,0,.66,0,.37.36.58.4l.64.11c.21,0,.41.14.62.19s.43.05.64.09.47-.13.68-.09.37.33.58.38.39.19.6.24.41.15.62.21.48-.14.69-.09.43.07.63.13.43.09.63.15.32.44.53.5.52-.22.72-.16.38.25.59.31.35.32.55.38.52-.2.73-.13.32.4.52.47.39.19.59.26.46,0,.66.09.36.26.56.34.4.16.6.24.42.11.62.19.48,0,.68,0l.61.22c.2.08.31.38.51.47s.47,0,.67.06.35.29.54.37.5-.06.7,0,.41.13.61.22.26.48.45.57.47,0,.67.1l.57.29.58.29c.2.09.31.34.51.44s.37.21.57.3.41.13.61.23.46,0,.65.14.23.49.42.59.4.17.59.27.51,0,.69.08l.59.28c.18.11.3.35.48.45s.42.15.61.26.43.11.62.22.18.53.36.64.42.14.61.25.4.17.58.29.39.19.57.3.32.31.5.42.31.31.49.43.31.31.49.44.31.3.49.42.6-.11.78,0,.36.24.53.37.12.58.29.7.41.17.59.3.46.09.64.22.27.35.44.48.27.36.44.49l.5.41c.17.14.48.09.65.23s.23.4.39.54.31.3.48.44.42.17.58.3.32.3.48.44.19.44.35.58l.47.44c.17.14.35.26.51.4s.45.15.61.29.17.45.33.6.54.05.7.2.13.49.28.64.24.37.39.52.27.33.43.49.56,0,.71.19.18.43.33.59.16.45.31.6.62,0,.77.16,0,.58.15.74.32.29.46.45.39.24.53.4.31.3.45.46.41.21.55.38.08.5.22.66.24.36.38.52.36.27.5.43.25.35.39.52.19.4.32.57.28.32.41.49.34.29.47.46.31.31.44.48.38.25.51.42,0,.56.09.73.35.29.47.46.37.27.5.44.22.37.34.55.21.38.33.56.32.3.44.48.31.32.43.49,0,.54.09.72.29.32.41.5.15.41.27.59.54.18.65.36,0,.48.15.67.25.35.36.54.26.34.37.53.07.45.18.64.47.23.58.41.08.45.19.64.15.4.26.59l.3.57c.1.19.12.43.22.62s.17.4.27.59.16.39.26.59.34.31.43.5,0,.5.06.69.25.36.34.55.24.37.33.56.25.36.34.56.23.36.32.56-.09.51,0,.71l.26.59c.08.19.52.24.6.44s-.18.54-.1.74.18.39.26.59.16.4.23.6.13.42.2.62.4.31.47.51,0,.45.09.66.08.42.16.63.19.38.26.59.3.35.36.56,0,.46,0,.67.34.34.41.55,0,.44.1.64,0,.45,0,.66.43.33.49.54-.07.46,0,.67.12.41.18.62.25.38.31.59.06.43.11.64.09.42.14.63.17.4.22.61-.17.48-.13.69.31.38.36.59-.05.45,0,.66-.13.47-.09.68.45.35.48.56-.21.48-.17.69.12.42.16.63.32.38.36.59-.13.46-.1.67.07.43.1.64.28.4.31.61-.3.48-.28.69.16.41.19.63,0,.43,0,.65,0,.43,0,.65.35.39.37.61-.13.44-.11.66-.1.44-.08.65.39.4.41.62,0,.43,0,.65.2.42.21.64-.4.45-.39.66.41.42.42.63-.1.44-.09.65-.12.44-.12.65-.12.44-.12.65.26.43.26.65S159.74,79.8,159.74,80Z"/><path class="cls-2" d="M13.17,119c-.16-.28.25-.13.41-.41s0-.36.18-.63.07-.34.23-.62.35-.16.51-.44.12-.31.28-.58.24-.23.4-.51.12-.3.29-.58,0-.36.18-.63.09-.32.25-.6.17-.28.33-.55.25-.23.41-.51.21-.25.37-.53.17-.27.33-.55.05-.34.22-.61.3-.2.46-.48.15-.28.32-.56.09-.31.25-.59.27-.22.43-.5-.05-.39.11-.67.23-.24.39-.52,0-.38.15-.66.46-.1.62-.38-.13-.45,0-.73.23-.23.39-.51.21-.25.37-.53.12-.29.28-.57.21-.25.37-.52.08-.33.24-.6l.31-.56c.16-.28.32-.19.48-.46s.09-.32.25-.59.35-.17.51-.45.08-.32.24-.6.1-.31.26-.59.06-.33.22-.61.34-.17.5-.45-.06-.4.1-.68.31-.19.47-.47,0-.35.19-.63.36-.16.52-.44-.11-.43,0-.71.33-.18.49-.46,0-.38.14-.66.46-.1.62-.38,0-.39.11-.67.19-.26.35-.54,0-.35.2-.63.4-.14.56-.42.2-.25.36-.53-.08-.42.08-.7.24-.23.4-.51.35-.17.51-.45,0-.36.18-.64.11-.31.27-.59.23-.24.39-.52.07-.33.23-.61.41-.13.57-.41,0-.38.14-.66.24-.23.4-.51,0-.36.19-.63.07-.34.23-.61.32-.19.48-.47.24-.23.4-.5,0-.4.12-.68.33-.18.49-.46,0-.35.18-.63.35-.17.51-.45.2-.25.36-.53.17-.27.33-.55,0-.36.17-.64.12-.3.28-.58.21-.25.37-.53.29-.2.45-.47,0-.37.17-.65.08-.32.24-.6.22-.24.38-.52.34-.17.5-.45.19-.26.35-.54,0-.39.13-.67.27-.21.43-.49.07-.33.23-.6.15-.29.31-.57,0-.34.21-.62.32-.18.48-.46.17-.27.33-.55.09-.32.25-.6.27-.21.43-.49.24-.23.4-.51,0-.4.11-.68.18-.27.34-.55.17-.27.33-.55.3-.2.46-.48.1-.32.26-.59,0-.36.19-.64.13-.3.29-.57.26-.23.42-.51.33-.18.49-.46-.08-.41.08-.69.09-.32.25-.6.39-.15.55-.43,0-.36.17-.64.24-.23.4-.51.29-.2.45-.48.13-.3.29-.58.1-.31.26-.59.24-.23.4-.51-.08-.42.08-.69.24-.24.4-.52.1-.31.26-.59.29-.2.45-.48.06-.34.22-.61.12-.31.28-.59.32-.18.48-.46.14-.29.3-.57,0-.39.14-.67.18-.26.34-.54.19-.26.35-.54.33-.18.49-.46,0-.39.13-.67.19-.27.35-.55.23-.24.39-.51.15-.29.31-.57.4-.14.56-.42-.14-.45,0-.73.25-.23.42-.5.12-.3.28-.58.08-.33.24-.61.48-.09.64-.37-.14-.46,0-.73.47-.1.63-.38-.09-.42.08-.7l.31-.56c.16-.28.08-.33.24-.61s.37-.16.53-.44.19-.26.35-.54.2-.25.36-.53.17-.28.34-.55.2-.26.36-.54,0-.39.13-.67.09-.32.25-.6.14-.29.31-.57.27-.21.43-.49.29-.21.45-.49.15-.28.31-.56.21-.25.37-.53,0-.38.15-.66.3-.19.46-.47.18-.27.34-.55-.14-.45,0-.73.31-.19.48-.47,0-.38.14-.66.29-.21.45-.49.25-.22.42-.5.21-.25.37-.53,0-.35.19-.63.32-.19.48-.47-.11-.44.05-.71.16-.29.32-.56.41-.14.57-.42.1-.31.26-.59.09-.31.26-.59.13-.29.3-.57.13-.29.29-.57.4-.14.56-.42,0-.36.17-.64.31-.19.47-.47.17-.28.34-.56,0-.35.18-.63.09-.33.25-.61.33-.18.5-.46,0-.36.16-.64.3-.2.46-.48,0-.36.18-.64.12-.31.28-.59.31-.19.47-.47.14-.29.3-.57.06-.33.22-.61.37-.16.53-.44,0-.39.14-.67.08-.33.24-.61.41-.13.57-.41.09-.33.25-.61,0-.35.19-.63.06-.34.22-.62.47-.1.63-.38-.13-.45,0-.73.28-.22.44-.5.36-.16.52-.44l.33-.56c.16-.28-.14-.45,0-.73s.15-.29.31-.57.18-.27.34-.55.19-.26.36-.54.39-.15.56-.43.06-.33.22-.61.13-.3.29-.58.18-.27.34-.55.22-.24.38-.53,0-.4.11-.68.13-.3.29-.58.47-.11.63-.39-.12-.44,0-.72.25-.24.41-.52.17-.27.34-.55.37-.16.53-.44,0-.37.18-.65.22-.25.39-.53S79.67,3.05,80,3s.1.39.26.67.26.21.42.49.25.23.41.51.1.31.26.59,0,.36.17.64.1.32.26.6l.32.55c.16.28.34.18.5.46s0,.36.17.64.44.11.6.39,0,.36.19.63,0,.37.18.64l.31.56c.16.28.45.12.61.4s-.11.43,0,.71.39.14.55.42-.05.4.11.68.18.27.34.55.23.23.39.51,0,.37.17.65.36.16.52.44.22.25.38.52,0,.36.18.64.12.31.28.59.07.32.23.6.25.22.41.5.11.3.27.58.35.17.51.44.18.27.34.55-.06.4.1.68.19.25.35.53.32.19.48.46.07.33.23.61l.32.55c.16.28.35.17.51.45s-.16.46,0,.73l.32.56c.16.28.49.09.65.36s.15.29.31.56,0,.4.11.68.36.16.52.44l.32.55c.16.28,0,.4.12.68s.34.17.5.45-.1.42.06.7.26.22.43.5.33.18.49.46.17.27.33.55.08.32.24.6.09.32.25.6,0,.37.16.65.28.21.44.49.17.27.33.55.12.31.28.58.32.19.48.47l.32.56.32.55c.16.28.08.33.24.6s.13.3.29.58.19.26.35.54.25.23.41.51.2.25.36.53l.31.56c.16.28.2.26.36.53s-.12.44,0,.72.43.12.59.4.18.27.34.54.1.32.26.59,0,.36.19.63,0,.35.2.63.45.11.61.38,0,.39.13.67.33.18.49.46.13.29.29.57.24.23.4.51-.14.45,0,.73.2.26.36.53.22.24.38.52.27.21.43.49.18.27.34.54.23.25.39.52,0,.39.13.67.12.3.28.58.28.21.44.49.11.3.27.58,0,.34.21.62.4.14.56.42.2.26.36.53,0,.35.2.63,0,.36.18.64l.32.56c.16.28.35.17.51.45s.1.31.26.59.24.24.4.52.12.3.28.58,0,.36.17.64.36.17.52.45.21.25.37.53-.06.4.1.68.22.24.39.52,0,.37.15.65.28.21.44.49l.31.56c.16.28.31.2.47.48s0,.36.17.64.33.18.49.46.18.26.34.54,0,.35.2.63.08.32.24.6.07.33.23.61.19.26.35.54.22.24.38.52.36.17.52.45-.09.42.07.7.43.12.59.4.13.3.29.58,0,.37.16.65.39.15.55.42,0,.37.18.65.24.23.4.51,0,.4.12.68.27.21.43.49.17.27.33.55,0,.39.14.66.29.21.45.49,0,.35.19.63.19.27.35.55.33.17.5.45.22.24.38.52.2.26.36.54.12.3.28.58,0,.34.21.62.34.17.5.45.07.33.23.61.06.34.22.62.34.18.5.46.13.3.29.58.19.25.36.53.08.33.24.61,0,.34.2.62.29.21.45.49,0,.37.17.65.17.27.33.55.21.25.37.53.07.33.23.61l.32.56c.16.28.32.18.49.46s.08.32.25.6.27.22.43.5-.09.42.07.7.3.2.46.48.07.34.23.62.44.12.6.4.14.28.3.56.12.31.28.59,0,.35.19.63.33.19.49.47,0,.36.18.64.08.32.24.6.1.31.26.59.28.21.44.49.18.26.34.54.1.31.26.59.24.23.4.51.3.2.46.47l.33.56c.16.28-.15.46,0,.74s.29.21.45.49.32.18.48.46,0,.4.11.68.22.25.38.53.23.24.39.52.1.31.26.59,0,.36.19.64.24.23.41.51.21.24.38.52.29.2.46.48,0,.36.18.64.25.23.41.51.18.27.35.55,0,.39.12.67.28.21.44.49.23.24.39.52-.06.4.11.68.24.24.4.52.13.29.3.57.23.24.39.52.22.25.38.53,0,.38.15.66.45.12.61.4l.32.55c.17.28.15.3.31.58s-.13.44,0,.73.39.14.56.42,0,.39.13.67.19.26.35.54.43.13.59.41.05.34.21.62.26.23.42.51.11.31.27.59.2.26.36.54,0,.39.13.67.1.32.27.6.38.15.54.43l.32.57c.17.28-.08.42.08.7s.42.14.59.42.4.36.24.65-.35.07-.67.07-.32-.19-.65-.19-.32.08-.64.08-.32.07-.64.07-.32,0-.64,0-.32,0-.64,0-.32,0-.65,0-.32.12-.64.12-.32,0-.64,0-.32,0-.64,0-.32-.17-.64-.17-.33-.14-.65-.14-.32.31-.64.31-.32-.26-.64-.26-.32.3-.64.3-.33-.19-.65-.19-.32-.13-.64-.13-.32,0-.64,0-.32.29-.64.29-.33,0-.65,0-.32,0-.64,0-.32-.15-.64-.15-.33,0-.65,0-.32.13-.64.13-.32-.16-.64-.16-.33-.12-.65-.12-.32.11-.64.11-.32-.12-.64-.12-.33.25-.65.25-.32-.28-.64-.28-.32.16-.64.16-.32-.05-.64-.05-.33.16-.65.16-.32-.2-.64-.2-.32.12-.64.12h-.64c-.33,0-.33-.11-.65-.11s-.32,0-.64,0-.32.17-.64.17h-.64c-.33,0-.33-.25-.65-.25s-.32,0-.64,0-.32.19-.64.19-.32,0-.64,0-.33-.26-.65-.26-.32.26-.64.26-.32-.1-.64-.1-.32-.1-.65-.1-.32-.1-.64-.1-.32.28-.64.28-.32-.15-.64-.15-.33-.09-.65-.09-.32-.07-.64-.07-.32.05-.64.05-.33.09-.65.09-.32.2-.64.2-.32-.19-.64-.19-.32,0-.64,0-.33,0-.65,0-.32.21-.64.21-.32-.3-.64-.3-.32.32-.64.32-.32,0-.64,0-.32-.09-.64-.09-.32-.19-.64-.19-.33.29-.65.29-.32-.23-.64-.23-.32-.12-.64-.12-.32.27-.64.27-.32.1-.64.1-.32-.23-.64-.23-.32.17-.64.17-.32-.3-.64-.3h-.64c-.32,0-.32.07-.64.07s-.32.27-.64.27-.32-.24-.64-.24-.32.18-.64.18-.32-.12-.64-.12h-.64c-.32,0-.32.08-.64.08s-.33-.23-.65-.23-.32.35-.64.35H93c-.32,0-.32-.35-.64-.35s-.32.35-.64.35-.32-.23-.64-.23-.33.17-.65.17-.32-.25-.64-.25-.32.17-.64.17h-.65c-.32,0-.32-.17-.64-.17s-.32.15-.64.15-.33.1-.65.1-.32,0-.64,0-.32.06-.65.06-.32-.12-.64-.12-.32-.1-.64-.1-.32.1-.64.1-.33,0-.65,0-.32.16-.64.16H81.4c-.32,0-.32-.2-.64-.2s-.32-.1-.65-.1-.32.26-.64.26-.32-.23-.64-.23-.32,0-.64,0-.32.07-.64.07-.32-.11-.65-.11h-.64c-.32,0-.32.07-.64.07s-.32.1-.64.1-.32-.15-.65-.15-.32.18-.64.18-.32.08-.64.08-.32-.23-.64-.23-.33.07-.65.07-.32-.08-.64-.08-.32.09-.65.09-.32.23-.64.23-.32-.2-.64-.2-.33-.14-.65-.14-.32.25-.64.25-.32-.09-.65-.09-.32.14-.64.14-.32-.21-.64-.21H64c-.32,0-.32.18-.64.18s-.33-.23-.65-.23-.32.23-.64.23-.32-.19-.64-.19-.33,0-.65,0-.32,0-.64,0-.32.26-.65.26-.32-.27-.64-.27-.32-.12-.64-.12-.33.27-.65.27-.32-.16-.64-.16-.33.06-.65.06-.32-.09-.64-.09-.32.24-.65.24-.32-.15-.64-.15-.32.22-.64.22-.32-.25-.65-.25-.32,0-.64,0-.32.07-.64.07h-.65c-.32,0-.32.13-.64.13h-.65c-.32,0-.32-.11-.64-.11s-.33,0-.65,0-.32-.16-.64-.16-.32-.07-.65-.07-.32.13-.64.13-.32.16-.64.16-.33-.09-.65-.09-.32-.26-.64-.26-.33.33-.65.33-.32-.25-.64-.25-.33,0-.65,0-.32.15-.64.15-.33,0-.65,0-.32-.22-.64-.22-.32.1-.65.1-.32-.16-.64-.16-.32,0-.64,0h-.65c-.32,0-.32.16-.64.16s-.33-.2-.65-.2-.32.17-.64.17-.32.13-.64.13-.32-.11-.65-.11-.32.11-.64.11-.32-.1-.64-.1-.32.15-.65.15-.32-.32-.64-.32-.32,0-.65,0-.32.31-.64.31-.32-.25-.65-.25-.32.1-.64.1h-.64c-.33,0-.33,0-.65,0s-.32-.24-.65-.24-.32.23-.64.23-.32-.21-.65-.21-.32.34-.64.34-.32-.17-.65-.17-.32-.11-.64-.11-.33.15-.65.15-.32.13-.65.13-.32-.13-.64-.13-.33-.23-.65-.23-.32.19-.65.19-.32,0-.64,0-.32-.21-.64-.21-.33.14-.65.14-.32.06-.65.06-.32-.18-.64-.18-.33,0-.65,0-.32.22-.65.22-.32.08-.65.08S16,119,15.69,119s-.33-.09-.65-.09-.33.07-.65.07-.31.07-.63.14S13.34,119.24,13.17,119Z"/><path class="cls-3" d="M144.77,132.36a1.1,1.1,0,0,0-.26-.06,9,9,0,0,0-.92-.08l-1,0H140.9a4.51,4.51,0,0,0-.52,0c-.28,0-.59,0-.93,0h-.14l-.29,0a2,2,0,0,0-.26.06.39.39,0,0,0-.14.08.17.17,0,0,0-.09.18.18.18,0,0,0,.12.16.47.47,0,0,0,.17,0,2.54,2.54,0,0,0,.39,0h.47l.1,0c.07,0,.1.06.08.13a.5.5,0,0,1,0,.13l0,.09a.36.36,0,0,0,0,.09l-.28.79a8.84,8.84,0,0,0-.4,1.41,1.72,1.72,0,0,0,0,.58,1,1,0,0,0,.37.64,1,1,0,0,0,.41.19,2.82,2.82,0,0,0,.69.07h2.6a1.89,1.89,0,0,0,.69-.14.71.71,0,0,0,.34-.25,1.15,1.15,0,0,0,.26-.9,3.16,3.16,0,0,0-.12-.64c-.07-.28-.16-.56-.25-.83L144,134c-.1-.28-.19-.58-.28-.87a.43.43,0,0,1,0-.14c0-.08,0-.12.1-.13h.77a1.06,1.06,0,0,0,.24,0,.48.48,0,0,0,.14,0,.19.19,0,0,0,.11-.15.2.2,0,0,0-.07-.17A.33.33,0,0,0,144.77,132.36Zm-4.15.54a.28.28,0,0,1,.25-.16h1.73l.09,0a.25.25,0,0,1,.17.11l0,.11a16.37,16.37,0,0,1,.68,1.76v0a6.36,6.36,0,0,1,.19.66c0,.11,0,.2,0,.29a.57.57,0,0,1-.41.6,1.18,1.18,0,0,1-.4,0h-.34l-.84,0h-.26l-1.16,0h-.32a.57.57,0,0,1-.28-.11.56.56,0,0,1-.24-.44.9.9,0,0,1,0-.31,3.82,3.82,0,0,1,.15-.48l0-.06c.24-.7.53-1.38.75-1.89Z"/><path class="cls-3" d="M138.8,131.06l.17,0h.7c.3,0,.61,0,.92,0l.54,0h.19l.36,0h1.78l.78,0h.14l.2,0h0a.44.44,0,0,0,.17-.06.18.18,0,0,0,0-.27.28.28,0,0,0-.12-.1.78.78,0,0,0-.23-.07l-.48-.06c-.2,0-.41,0-.61,0H141l-.52,0h-.17l-.53,0h-.27a2.85,2.85,0,0,0-.53.08.77.77,0,0,0-.19.08.22.22,0,0,0-.11.21A.2.2,0,0,0,138.8,131.06Z"/><path class="cls-3" d="M147.52,133.13l.2-.12.41-.25.33-.18.32-.19.25-.15.34-.19a3.73,3.73,0,0,1,.75-.33h0a1.8,1.8,0,0,1,.4-.1h.17a1.69,1.69,0,0,1,.66.12,8.16,8.16,0,0,1,1.18.57l1,.61.14.08c.16.1.32.21.49.3a2.74,2.74,0,0,0,.42.21l.12,0h.12l.08,0a.15.15,0,0,0,.1-.15.2.2,0,0,0-.06-.15l-.13-.13a1.87,1.87,0,0,0-.29-.2l0,0-1.19-.71-.92-.55a6.63,6.63,0,0,0-.76-.37,1.76,1.76,0,0,0-.49-.14l-.21,0h-.16a1.11,1.11,0,0,0-.36,0,2.88,2.88,0,0,0-.59.19c-.25.11-.5.23-.74.36l-1.14.64-.54.31-.11.06-.41.24-.26.18-.06,0a.57.57,0,0,0-.13.14.2.2,0,0,0,0,.21.19.19,0,0,0,.18.09.34.34,0,0,0,.1,0l.1,0a1.75,1.75,0,0,0,.43-.17Z"/><path class="cls-3" d="M151.26,134.16h.21l.94,0,.32,0c.15,0,.33,0,.52,0h.54a.4.4,0,0,0,.24-.07.18.18,0,0,0,0-.32.4.4,0,0,0-.17-.09h0l-.22-.05-.88-.08-.22,0h-.13c-.33,0-.6,0-.84,0h-.34l-.1,0a.13.13,0,0,1-.11-.11.53.53,0,0,1,0-.13V133a1.59,1.59,0,0,0,0-.4.5.5,0,0,0-.05-.13.16.16,0,0,0-.06-.08.18.18,0,0,0-.25,0,.46.46,0,0,0-.11.18,1.39,1.39,0,0,0-.06.4v.45a.16.16,0,0,1-.14.14h-1a10,10,0,0,0-1.07.08,5.26,5.26,0,0,0-.52.08l-.24.07h0a.31.31,0,0,0-.15.1.17.17,0,0,0,0,.24.39.39,0,0,0,.11.06.65.65,0,0,0,.19,0H148l.35,0,.34,0h.6l.36,0h0l.46,0h.12a.16.16,0,0,1,.17.17s0,0,0,.09v.2c0,.14,0,.27,0,.41v.89a2.26,2.26,0,0,0,0,.26c0,.2,0,.41,0,.61s0,.44,0,.69,0,.2,0,.29a.34.34,0,0,0,.09.17.19.19,0,0,0,.13.07.21.21,0,0,0,.13,0,.42.42,0,0,0,.09-.14c0-.07,0-.14,0-.21a4,4,0,0,0,0-.49v0c0-.45,0-.9,0-1.36v-1.38s0-.07,0-.1a.13.13,0,0,1,.11-.09Z"/><path class="cls-3" d="M154.19,137.33l0,0a.43.43,0,0,0-.1-.09,2.3,2.3,0,0,1-.5-.67l-.21-.43,0-.06-.09-.25a2.13,2.13,0,0,1-.1-.56c0-.08,0-.16,0-.26a.29.29,0,0,0-.09-.16.19.19,0,0,0-.29,0,.34.34,0,0,0-.06.15v0c0,.05,0,.11,0,.17a2.93,2.93,0,0,0,0,.61,2.83,2.83,0,0,0,.35.95,3.74,3.74,0,0,0,.84.94l.14.09a.27.27,0,0,0,.12,0h0c.12,0,.19-.09.2-.23v0a.31.31,0,0,0,0-.08A.74.74,0,0,0,154.19,137.33Z"/><path class="cls-3" d="M156.44,137.27c0-.14,0-.27,0-.4a6,6,0,0,0,0-.7,3.27,3.27,0,0,1,0-.61c0-.22,0-.44,0-.67a7,7,0,0,0,0-.81.91.91,0,0,1,0-.17c0-.07,0-.15,0-.22,0-.31,0-.61,0-.88,0-.62,0-1.25,0-1.85v-.11a1.7,1.7,0,0,0,0-.22v-.07c0-.06,0-.12,0-.18s0-.25,0-.37a3.41,3.41,0,0,0-.05-.66,3.25,3.25,0,0,0-.31-.83,2.62,2.62,0,0,0-.27-.43,2.41,2.41,0,0,0-.7-.59,3.17,3.17,0,0,0-1.54-.41h-.05l-.51,0a5.62,5.62,0,0,0-1.09,0h-.11l-.34,0h-2.89c-.36,0-.7,0-1.12,0h-.94l-1,0-.22,0c-.25,0-.51,0-.77,0h-5.55a2.5,2.5,0,0,0-.42,0,3,3,0,0,0-1.42.63,4.47,4.47,0,0,0-.6.63,2.15,2.15,0,0,0-.37.76,2.57,2.57,0,0,0-.08.62c0,.12,0,.24,0,.36v.26c0,.07,0,.13,0,.2s0,.24,0,.36v.16c0,.7,0,1.43,0,2.15,0,.32,0,.66,0,1,0,.15,0,.3,0,.45s0,.17,0,.25V135a.53.53,0,0,1,0,.13c0,.08,0,.16,0,.24,0,.39,0,.77,0,1.16v.54c0,.18,0,.36,0,.55s0,.28,0,.42v1.28c0,.13,0,.27,0,.4V141c0,.12,0,.24,0,.36v.32a2.81,2.81,0,0,0,0,.29,2.62,2.62,0,0,0,0,.28,4.44,4.44,0,0,0,0,.63c0,.17,0,.35,0,.52a6.2,6.2,0,0,1,0,.76c0,.3,0,.59,0,.84,0,.09,0,.17,0,.26a1.34,1.34,0,0,0,0,.2c0,.2,0,.41,0,.61h0a2.89,2.89,0,0,0,.06.55,2.65,2.65,0,0,0,.47,1,2.4,2.4,0,0,0,.78.67,3.8,3.8,0,0,0,.78.33,2.33,2.33,0,0,0,.65.11h.57c.24,0,.5,0,.79,0h.91l.75,0a7.51,7.51,0,0,0,.95,0l.41,0h4.51c.29,0,.57,0,.85,0h.17c.23,0,.46,0,.68,0h.26l.49,0h3.33a2.38,2.38,0,0,0,.78-.14,3.33,3.33,0,0,0,.77-.35,3.61,3.61,0,0,0,1-1,1.65,1.65,0,0,0,.23-.48,2.79,2.79,0,0,0,.14-.9c0-.22,0-.44,0-.65a2.81,2.81,0,0,1,0-.29,4.54,4.54,0,0,1,0-.74c0-.32,0-.65,0-1,0-.09,0-.18,0-.27s0-.25,0-.37c0-.41,0-.83,0-1.26V141c0-.52,0-1,0-1.58a10.79,10.79,0,0,0,0-1.14v-.12a4.84,4.84,0,0,1,0-.54C156.43,137.53,156.44,137.4,156.44,137.27Zm-3.19,10.23a4.9,4.9,0,0,1-.83-.16l-.33-.09-.12,0a4.12,4.12,0,0,1-.56-.18l-.12-.06-.06-.05a.09.09,0,0,1,0-.1.21.21,0,0,1,0-.06.46.46,0,0,1,.07-.07,1.84,1.84,0,0,0,.49-1l0-.13a.14.14,0,0,1,.18-.1l.14,0c.33.1.61.18.88.24a2.83,2.83,0,0,0,.77,0,1.45,1.45,0,0,0,.6-.19.9.9,0,0,0,.47-.64,1.61,1.61,0,0,0-.25-1.26.64.64,0,0,0-.1-.13.61.61,0,0,0-.24-.17l-.4-.16a1.17,1.17,0,0,0-.38-.07h-.29l-.26,0a5.83,5.83,0,0,0-.7-.15h-.06a.9.9,0,0,1-.16,0,.28.28,0,0,1-.22-.28.52.52,0,0,1,0-.21.83.83,0,0,1,.07-.13l.06-.12c0-.09.06-.15.08-.22a.3.3,0,0,0,0-.13.61.61,0,0,0-.05-.12.22.22,0,0,0-.22-.07.39.39,0,0,0-.14.12,1.57,1.57,0,0,0-.38.88v0a.74.74,0,0,0,0,.21.51.51,0,0,0,.23.39.71.71,0,0,0,.26.13l.54.14.36.07h.16a2,2,0,0,1,.34,0l.43.06h.08a1.18,1.18,0,0,1,.54.41.93.93,0,0,1,.12.38.69.69,0,0,1-.19.55.54.54,0,0,1-.21.13,1.47,1.47,0,0,1-.32,0h0a4.73,4.73,0,0,1-.78-.11,5.55,5.55,0,0,1-.72-.25h0l0,0h0a.18.18,0,0,1-.11-.17,1.23,1.23,0,0,1,0-.19,1,1,0,0,0-.18-.53v0a.19.19,0,0,0-.31,0,.53.53,0,0,0-.11.24,2.71,2.71,0,0,0,0,.29,5,5,0,0,0,.07.54v.13a1.12,1.12,0,0,1-.06.58v0c0,.1-.07.2-.11.31a1.06,1.06,0,0,1-.11.21.55.55,0,0,1-.2.17.19.19,0,0,1-.24-.05.74.74,0,0,1-.09-.12l-.06-.11-.18-.33a1.79,1.79,0,0,1-.16-.94,2.34,2.34,0,0,0,0-.38.7.7,0,0,0-.06-.35A.34.34,0,0,0,150,144a.21.21,0,0,0-.32,0,.31.31,0,0,0-.1.15,1.29,1.29,0,0,0,0,.19c0,.06,0,.12,0,.18v.08s0,.11,0,.16v0a.22.22,0,0,1-.18.2l-.28.07-.14,0a2.11,2.11,0,0,1-.46.07l-.44.08a1.54,1.54,0,0,1-.3,0h0a.57.57,0,0,1-.56-.47,1.07,1.07,0,0,1,0-.56.55.55,0,0,1,.12-.24,1.13,1.13,0,0,1,.3-.24.74.74,0,0,1,.3-.08H148a3.08,3.08,0,0,0,.53,0h0a4.86,4.86,0,0,0,.55-.1l.16,0,.1,0,.16,0a1.15,1.15,0,0,0,.32-.12.66.66,0,0,0,.29-.8,2.13,2.13,0,0,1-.13-.45.8.8,0,0,0-.11-.25.34.34,0,0,0-.14-.15.24.24,0,0,0-.14-.05.26.26,0,0,0-.22.15.34.34,0,0,0,0,.22.58.58,0,0,0,.05.14l.08.18c0,.08.07.17.1.26a.19.19,0,0,1,0,.08.24.24,0,0,1-.13.29.78.78,0,0,1-.23.08l-.29,0-.31,0-.41,0a3.68,3.68,0,0,0-.68.13,2.9,2.9,0,0,0-.38.11.75.75,0,0,0-.3.17.78.78,0,0,0-.3.46,1.74,1.74,0,0,0-.06.72,3.29,3.29,0,0,0,.07.36,1.18,1.18,0,0,0,.3.53.77.77,0,0,0,.5.23h.42a1.86,1.86,0,0,0,.52,0l.22-.06c.25-.06.51-.12.77-.2l.11,0h0a.15.15,0,0,1,.14.09v.09h0a3.83,3.83,0,0,0,.35.83l.05.1a1.71,1.71,0,0,0,.6.66,2.33,2.33,0,0,0,.69.34l.82.23a1.76,1.76,0,0,0,.38.06h0l.43,0,.24.05.09,0a2.37,2.37,0,0,0,.43.05l.23,0h0s.05,0,.07,0,0,0-.06,0h0a1,1,0,0,1-.32.07c-.25,0-.55,0-.81,0l-.46,0-.4,0a7.82,7.82,0,0,1-1.25,0h-1.41l-.9,0h-1.69c-.21,0-.44,0-.66,0a8,8,0,0,1-1,0h-.05c-.32,0-.65,0-1,0-.15,0-.28,0-.42,0h-.82l-.44,0h-.12l-.22,0a2.66,2.66,0,0,1-.82-.2,1.79,1.79,0,0,1-.51-.31,4.79,4.79,0,0,1-.41-.36l0,0-.06-.07a.26.26,0,0,1,0-.21.64.64,0,0,1,.13-.26,1.18,1.18,0,0,1,.25-.25,2.62,2.62,0,0,1,.57-.32l.53-.19.56-.22a3.84,3.84,0,0,0,.95-.61,5.9,5.9,0,0,0,.68-.74,3.23,3.23,0,0,0,.47-.8,5.58,5.58,0,0,0,.28-.87c0-.15,0-.3.07-.45v0c0-.25.05-.49.07-.73,0-.06,0-.11,0-.16a4.89,4.89,0,0,0,0-.54c0-.07,0-.13,0-.21a.72.72,0,0,1,.16-.38l.16-.15a1.7,1.7,0,0,1,1-.29h.08a.47.47,0,0,1,.17,0,.32.32,0,0,1,.19.15l.08.12a2,2,0,0,0,.58.67l.1.07,0,0a.83.83,0,0,0,.35.1h.12l.12,0a.28.28,0,0,1,.23.25v.17a.76.76,0,0,0,0,.15.79.79,0,0,0,0,.13l.06.08a.17.17,0,0,0,.14.07.17.17,0,0,0,.16-.12.32.32,0,0,0,0-.09c0-.09.05-.19.07-.29l0-.16,0-.07a.17.17,0,0,1,.14-.12h.19a.68.68,0,0,0,.48-.19l.17-.11a1.26,1.26,0,0,0,.31-.3,1.73,1.73,0,0,0,.29-.78,4,4,0,0,1,.08-.5v-.05a1.34,1.34,0,0,0,0-.35c0-.07,0-.13,0-.18a.26.26,0,0,0-.08-.13.19.19,0,0,0-.27,0,.27.27,0,0,0-.09.12.48.48,0,0,0-.08.22,1.55,1.55,0,0,0,0,.21c0,.05,0,.11,0,.16l0,.15a1.91,1.91,0,0,1-.06.33,1.16,1.16,0,0,1-.21.48,1,1,0,0,1-.63.37h0a.13.13,0,0,1-.14-.11v-.6c0-.09,0-.19,0-.28v-.16c0-.14,0-.28,0-.43a3.31,3.31,0,0,0-.06-.54.5.5,0,0,0,0-.13.41.41,0,0,0-.05-.09.22.22,0,0,0-.32,0,.34.34,0,0,0-.06.12.67.67,0,0,0-.05.19,3.45,3.45,0,0,0,0,.45,4,4,0,0,1,0,.6c0,.17,0,.34,0,.51v.17a.57.57,0,0,1,0,.14c0,.1-.06.14-.17.15h0a.46.46,0,0,1-.21-.05l-.27-.17a.71.71,0,0,1-.24-.27,1.43,1.43,0,0,1-.2-.55,4.14,4.14,0,0,1-.09-.63.77.77,0,0,0,0-.15v0a.31.31,0,0,0-.09-.14.24.24,0,0,0-.31,0,.23.23,0,0,0-.1.16.49.49,0,0,0,0,.2c0,.06,0,.12,0,.2s0,.08,0,.11,0,.08-.1.06l-.07,0-.13-.08a4.57,4.57,0,0,0-1.23-.56l-.45-.14-.4-.11a3.72,3.72,0,0,0-.79-.13,5.87,5.87,0,0,0-.73,0,5.3,5.3,0,0,0-2.09.5l-.55.26-.1,0a3.57,3.57,0,0,0-1,.73,5.17,5.17,0,0,0-1.3,2.22,5.42,5.42,0,0,0-.17.82,4.48,4.48,0,0,0,0,.64,4.11,4.11,0,0,0,0,.68v0c0,.13,0,.27.07.4a2.73,2.73,0,0,0,.24.65c.14.28.3.57.5.91a6.2,6.2,0,0,0,.68.88,5.85,5.85,0,0,0,1.22,1c.07.05.15.09.22.15a.24.24,0,0,1,.09.08s0,.06,0,.08,0,0-.08.05h-.47l-.82,0a2.76,2.76,0,0,1-.54,0,2.19,2.19,0,0,1-1.31-.77,2.4,2.4,0,0,1-.49-1,2.48,2.48,0,0,1,0-.56v-.71c0-.29,0-.59,0-.89v-.31c0-.42,0-.76,0-1.07a4.93,4.93,0,0,0,0-.77,9.85,9.85,0,0,1,0-1.2v-.09c0-.17,0-.35,0-.52a5.62,5.62,0,0,0,0-.71,3.9,3.9,0,0,1,0-.83v-.15c0-.13,0-.26,0-.39a2.91,2.91,0,0,0,0-.59l0-.33a2,2,0,0,1,0-.23,4.34,4.34,0,0,1,0-.63,10.07,10.07,0,0,0,0-1.14c0-.12,0-.24,0-.37a5,5,0,0,1,0-.67v-.06c0-.3,0-.64,0-1,0-.1,0-.21,0-.32v-.06l0-.41V131a2.5,2.5,0,0,0,0-.4,3.82,3.82,0,0,1,0-.65,1.71,1.71,0,0,1,.12-.62,2.8,2.8,0,0,1,.56-.94,2.5,2.5,0,0,1,1.34-.73,1.91,1.91,0,0,1,.43,0h.46l.69,0a4.68,4.68,0,0,0,.64,0l.33,0h0l.18,0c.09,0,.14.07.14.15a2.87,2.87,0,0,1,0,.62.52.52,0,0,1-.06.16.26.26,0,0,1-.22.14h0a2.27,2.27,0,0,0-.45,0l-.22,0h-.31l-.35,0c-.19,0-.39,0-.59,0a1.66,1.66,0,0,0-.32,0h0a.85.85,0,0,0-.36.14l-.3.19a1,1,0,0,0-.45.7l-.06.34-.09.57a1.94,1.94,0,0,0,0,.24v0c0,.13,0,.27,0,.4a2.47,2.47,0,0,0,0,.38,2.27,2.27,0,0,1,0,.58c0,.33-.07.61-.08.87s0,.27,0,.41,0,.26,0,.39a2.25,2.25,0,0,0,0,.26v2c0,.18,0,.36,0,.53s0,.36,0,.54a1.65,1.65,0,0,0,0,.36.37.37,0,0,0,.08.18.22.22,0,0,0,.36,0,.5.5,0,0,0,.08-.21,2.06,2.06,0,0,0,0-.34v-.23c0-.13,0-.25,0-.38,0-.3,0-.61,0-.91s0-.4,0-.61,0-.39,0-.64,0-.78.06-1.26c0-.1,0-.21,0-.32l0-.55v-.65a4.72,4.72,0,0,1,0-.64,2,2,0,0,1,0-.24l0-.17v-.09c0-.1,0-.2,0-.3s0-.29.07-.43a.82.82,0,0,1,.26-.47.54.54,0,0,1,.38-.15h.13a3.15,3.15,0,0,0,.56,0,5.43,5.43,0,0,1,.67-.05l.7,0a1.88,1.88,0,0,0,.52-.13l.09,0a.36.36,0,0,1,.23,0l.15.06a2,2,0,0,0,.62.15l.61,0h.93a1.86,1.86,0,0,1,.34,0,.61.61,0,0,1,.33.15,1.5,1.5,0,0,1,.27.29.66.66,0,0,1,.12.32,2.21,2.21,0,0,0,.08.35,1.93,1.93,0,0,1,.06.36l0,.33c0,.16,0,.31,0,.47s0,.29,0,.46,0,.28,0,.42v.16c0,.37,0,.67,0,1v1.14c0,.08,0,.16,0,.25v.37c0,.13,0,.26,0,.39v.09a7.64,7.64,0,0,0,0,.83c0,.12,0,.24,0,.36v.12s0,.1,0,.15a2.45,2.45,0,0,0,0,.27.72.72,0,0,0,0,.22.26.26,0,0,0,.06.13.19.19,0,0,0,.16.09.21.21,0,0,0,.17-.1.61.61,0,0,0,0-.12,1,1,0,0,0,0-.17v-.68c0-.28,0-.56,0-.84s0-.61,0-1c0-.12,0-.24,0-.36s0-.2,0-.3a4.38,4.38,0,0,1,0-.63,2.42,2.42,0,0,0,0-.39c0-.19,0-.39,0-.59s0-.29,0-.44c0-.34,0-.68,0-1a5.41,5.41,0,0,0-.07-.68c0-.12,0-.25,0-.37v-.06l0-.33a1,1,0,0,0-.23-.48l-.25-.3a.62.62,0,0,0-.31-.22,3.06,3.06,0,0,0-.63-.12l-.89,0h-.05a4,4,0,0,1-.49,0,4.85,4.85,0,0,1-.59-.1l-.16-.06a.32.32,0,0,1-.21-.29,5,5,0,0,1,0-.55.19.19,0,0,1,.18-.2,1.15,1.15,0,0,1,.32,0,5.36,5.36,0,0,0,.76,0H144l.54,0h.74l.42,0h.74c.26,0,.52,0,.78,0h.56a1.06,1.06,0,0,1,.26,0,.17.17,0,0,1,.16.17c0,.1,0,.21,0,.3s0,.19,0,.29,0,.25,0,.38a.53.53,0,0,0,0,.21,1.24,1.24,0,0,1,0,.43v0a.36.36,0,0,1,0,.1.12.12,0,0,1-.12.08h-.13l-.28-.05h0A.76.76,0,0,1,147,129l0-.18v0s0-.06,0-.08a1,1,0,0,0,0-.17l-.06-.15v0a.21.21,0,0,0-.06-.08.19.19,0,0,0-.31,0,.3.3,0,0,0,0,.16v.14a5.52,5.52,0,0,0,0,.57.8.8,0,0,0,0,.15v0a.66.66,0,0,0,.21.31l.28.23a1.23,1.23,0,0,0,.53.23l.39.06h0l.09,0a.16.16,0,0,1,.12.12.86.86,0,0,1,0,.17v0a.37.37,0,0,1,0,.11v.13s0,.1,0,.16a.38.38,0,0,0,.06.16.18.18,0,0,0,.29,0,.5.5,0,0,0,.07-.13,1,1,0,0,0,.08-.35v0s0-.1,0-.15a.21.21,0,0,1,.21-.2h.13a1.32,1.32,0,0,0,.36,0,1.29,1.29,0,0,0,.68-.4,1.17,1.17,0,0,0,.23-.43,2.71,2.71,0,0,0,.06-.38,3.38,3.38,0,0,0,0-.45v-.08a.39.39,0,0,0,0-.13.17.17,0,0,0-.24-.07.57.57,0,0,0-.11.11.85.85,0,0,0-.12.38c0,.05,0,.1,0,.15v.06a.64.64,0,0,1-.36.54.9.9,0,0,1-.39.13l-.21,0h-.06a.13.13,0,0,1-.15-.12.66.66,0,0,1,0-.14,1.41,1.41,0,0,1,0-.2c0-.1,0-.2,0-.3s0-.33,0-.48V128c0-.06,0-.12,0-.19a.31.31,0,0,1,0-.1.13.13,0,0,1,.11-.12l.15,0h3.44l.13,0a.16.16,0,0,1,.13.15V128c0,.16,0,.33,0,.49a.45.45,0,0,0,0,.11,1,1,0,0,0,0,.17v.61a.34.34,0,0,1,0,.1.17.17,0,0,1-.18.18.43.43,0,0,1-.19,0,1.07,1.07,0,0,1-.58-.37.79.79,0,0,1-.17-.41,2.51,2.51,0,0,0,0-.27.45.45,0,0,0-.12-.25.28.28,0,0,0-.13-.11.18.18,0,0,0-.23.1.43.43,0,0,0,0,.11,4.43,4.43,0,0,0,0,.64,1.58,1.58,0,0,0,.09.31,1.13,1.13,0,0,0,.21.35,2.54,2.54,0,0,0,.36.29.84.84,0,0,0,.37.14l.14,0,.18,0,.16,0a.18.18,0,0,1,.13.15s0,.08,0,.11v0a.38.38,0,0,1,0,.1.71.71,0,0,1,0,.14.58.58,0,0,0,.1.23l0,.05a.18.18,0,0,0,.3,0,.35.35,0,0,0,.06-.14,1.55,1.55,0,0,0,0-.21s0-.06,0-.1a1.42,1.42,0,0,1,0-.2.19.19,0,0,1,.18-.17l.28,0a1.92,1.92,0,0,0,.6-.19,1.14,1.14,0,0,0,.53-.63,1.93,1.93,0,0,0,.09-.5,2.35,2.35,0,0,0,0-.28l0-.15a.31.31,0,0,0-.05-.1.18.18,0,0,0-.27,0,.33.33,0,0,0-.11.15,1.84,1.84,0,0,0-.09.25c0,.12-.05.26-.07.41a.46.46,0,0,1-.12.24.88.88,0,0,1-.34.24,1.58,1.58,0,0,1-.41.11h-.11a.16.16,0,0,1-.13-.12.66.66,0,0,1,0-.14v-.14c0-.21,0-.42,0-.63s0-.51,0-.73v-.13a.29.29,0,0,1,0-.09.11.11,0,0,1,.08-.08l.1,0a2.46,2.46,0,0,1,1.29.35,2.33,2.33,0,0,1,.85.86,2.14,2.14,0,0,1,.29,1c0,.12,0,.23,0,.35v.32c0,.16,0,.32,0,.48s0,.5,0,.78,0,.63,0,.91v.14c0,.3,0,.61,0,.91,0,.1,0,.21,0,.31v.11a6.46,6.46,0,0,1,0,.88V135a5.49,5.49,0,0,0,0,.58c0,.23,0,.46,0,.66a5.08,5.08,0,0,1,0,.78c0,.09,0,.18,0,.27s0,.42,0,.64,0,.35,0,.52v.18a5.75,5.75,0,0,1,0,.72,9.22,9.22,0,0,0,0,1.19v.17c0,.09,0,.19,0,.29s0,.17,0,.24v.34c0,.34,0,.68,0,1a2.53,2.53,0,0,1,0,.27s0,.08,0,.12a6.46,6.46,0,0,0,0,.87V144c0,.18,0,.36,0,.54,0,.43,0,.87,0,1.3v.06a1.35,1.35,0,0,1-.09.47,3.48,3.48,0,0,1-.51,1,1.6,1.6,0,0,1-.16.19.3.3,0,0,1-.29.07h0l-.39-.08-.26,0-.26,0h-.32Zm-14.49-7.09.1-.12a4.38,4.38,0,0,1,1-.84l.2-.11a.19.19,0,0,1,.1,0h0s.06,0,.07.07v.13c0,.24,0,.48-.05.72v.06a1.41,1.41,0,0,0,0,.2.5.5,0,0,1-.14.35l-.3.33a4.26,4.26,0,0,0-.35.45l-.1.12a.08.08,0,0,1-.13,0,.61.61,0,0,1-.07-.14l-.2-.51-.06-.16s-.05-.1-.07-.16l0-.15A.26.26,0,0,1,138.76,140.41Zm5.45.29h0l-.06,0-.11-.06h0a4.16,4.16,0,0,0-.84-.36,5.16,5.16,0,0,0-.68-.13l-.24,0-.09,0h0a0,0,0,0,1,0,0,.1.1,0,0,1,.06-.05l.14-.08a4.19,4.19,0,0,1,1-.3,6,6,0,0,1,1-.08h.31l.19,0,.09,0s.05,0,0,.07l0,.06-.06,0h0l-.08.07,0,0a1.29,1.29,0,0,0-.37.64c0,.06,0,.1-.05.15S144.28,140.7,144.21,140.7Zm-2-1.8-.09.23a1.8,1.8,0,0,1-.08.21.42.42,0,0,1-.21.24l-.18.08a6.55,6.55,0,0,0-.65.33.53.53,0,0,1-.1.06l-.07,0s-.07,0-.08,0a.28.28,0,0,1,0-.09,2.73,2.73,0,0,1,0-.32c0-.1,0-.21,0-.31v-.09l0-.12a.29.29,0,0,1,.17-.19h0a.11.11,0,0,1,.08,0,4.24,4.24,0,0,1,.94-.19h.12c.06,0,.07,0,.07.09A.45.45,0,0,1,142.19,138.9Zm-1,1.7h.5l.29,0a5.57,5.57,0,0,1,1.71.42l.36.19h0a.5.5,0,0,1,.12.08h0a.33.33,0,0,1,.13.25,1.48,1.48,0,0,1,0,.21,4.63,4.63,0,0,1-.18,1,.73.73,0,0,1-.05.12c0,.06-.07.07-.1.07h-.06l-.1-.06-.18-.12-.05,0a3.74,3.74,0,0,0-1-.46l-.06,0c-.31-.09-.64-.19-1-.26l-.65-.1-.47-.06-.14,0h-.24l-.06,0a.08.08,0,0,1-.05-.11.47.47,0,0,1,.05-.1l.17-.21.49-.54a.88.88,0,0,1,.21-.18A.71.71,0,0,1,141.17,140.6Zm-2,3v0a5.3,5.3,0,0,1,.33-1.07.32.32,0,0,1,.32-.21h.69a4,4,0,0,1,.8.15l.18.05.76.23a7.24,7.24,0,0,1,1.32.6l.13.1a.17.17,0,0,1,.05.21.47.47,0,0,1-.05.1l-.18.29a4.52,4.52,0,0,1-.45.55.89.89,0,0,1-.14.13.2.2,0,0,1-.14.06l-.1,0-.11-.05,0,0-.19-.09-.39-.18a3.46,3.46,0,0,0-.91-.26l-.81-.11h-.08l-.62,0a.9.9,0,0,1-.28,0s-.11,0-.12-.14A.83.83,0,0,1,139.13,143.64Zm.08.94a.32.32,0,0,1,.09,0l.4,0h0a4.57,4.57,0,0,1,1,.12,8.75,8.75,0,0,1,1.21.37l.05,0,.06,0q.12.06.12.12s0,.08-.1.12a.41.41,0,0,1-.11.07,4.43,4.43,0,0,1-.45.2,5.25,5.25,0,0,0-.8.33,3.26,3.26,0,0,0-.64.44l-.12.13-.06.06s0,.05-.07.06a.08.08,0,0,1-.12,0,.33.33,0,0,1-.06-.1l-.1-.22c-.15-.43-.27-.82-.37-1.2v0l0-.17a.76.76,0,0,1,0-.16A.14.14,0,0,1,139.21,144.58Zm5.18-5.61-.08,0h-.17l-.23,0-.35,0a3.74,3.74,0,0,0-.6.12h-.21s0,0-.05,0a0,0,0,0,1,0-.06.29.29,0,0,1,0-.1l.13-.23a.29.29,0,0,1,.25-.14h.1a4.14,4.14,0,0,1,.91.13l.2.08.08,0,0,0Zm-5.5,3.8v0c0,.13-.07.25-.1.38s-.07.31-.1.47a1.85,1.85,0,0,1,0,.23v0a.24.24,0,0,1,0,.08.07.07,0,0,1,0,.06s0,0-.05,0,0,0,0,0-.06-.09-.09-.12-.09-.18-.14-.27l-.34-.64-.08-.17a.48.48,0,0,1,0-.18v0a.11.11,0,0,1,0-.05,4.65,4.65,0,0,1,.35-1.16.91.91,0,0,1,.07-.14l.06-.07,0,0s0,0,0,0l.06.08.06.15c.1.3.22.65.36,1,0,0,0,0,0,0h0A.58.58,0,0,1,138.89,142.77Zm-1,1.34s0-.05,0-.08h0a.22.22,0,0,1,.07.06.77.77,0,0,1,.1.15l.06.1c.09.16.18.32.26.48l.22.44.09.17a1.45,1.45,0,0,1,.11.29c0,.05,0,.1,0,.15s0,.1,0,.15,0,.09,0,.14a.06.06,0,0,1,0,0h0l-.06,0a1.2,1.2,0,0,1-.16-.17,2.74,2.74,0,0,1-.38-.56,4.82,4.82,0,0,1-.4-1l0-.21,0-.07Z"/><path class="cls-3" d="M155.11,139v-.32a.48.48,0,0,0-.07-.21.19.19,0,0,0-.3,0,.31.31,0,0,0-.09.14c0,.08-.05.15-.07.22s-.05.26-.07.39l0,.18v0a3.15,3.15,0,0,1-.11.44,1,1,0,0,1-.29.4,1,1,0,0,1-.44.19.3.3,0,0,1-.13,0,.13.13,0,0,1-.14-.11s0-.07,0-.1v-.79h0v0a1.09,1.09,0,0,1,0-.18c0-.12,0-.24,0-.36s0-.31,0-.45a.62.62,0,0,0-.09-.29.22.22,0,0,0-.17-.1.22.22,0,0,0-.18.11l0,.06v0a.31.31,0,0,0,0,.08,3.67,3.67,0,0,0,0,.52,4.86,4.86,0,0,0,0,.54v.79a.88.88,0,0,1,0,.17.14.14,0,0,1-.14.14h-.09a.85.85,0,0,1-.66-.48,1.4,1.4,0,0,1-.13-.36c0-.17-.07-.34-.1-.51l0-.25c0-.07,0-.14-.05-.21a.37.37,0,0,0-.12-.2.19.19,0,0,0-.3.05.48.48,0,0,0-.05.17v.12c0,.07,0,.14,0,.21a3.07,3.07,0,0,0,.08.67,2.36,2.36,0,0,0,.22.62,1.35,1.35,0,0,0,.64.61,1.69,1.69,0,0,0,.5.14l.16,0a.13.13,0,0,1,.1.11.43.43,0,0,1,0,.11h0s0,.07,0,.11a1.13,1.13,0,0,0,0,.18.44.44,0,0,0,.06.16.19.19,0,0,0,.16.11.24.24,0,0,0,.17-.1.43.43,0,0,0,.05-.12,1,1,0,0,0,0-.2s0-.07,0-.1a.49.49,0,0,1,0-.12.17.17,0,0,1,.16-.17l.11,0a1.58,1.58,0,0,0,.5-.12,1.33,1.33,0,0,0,.7-.64,1.66,1.66,0,0,0,.15-.39A3.13,3.13,0,0,0,155.11,139Z"/><path class="cls-3" d="M148.81,135a.48.48,0,0,0-.06-.18.18.18,0,0,0-.3,0,.15.15,0,0,0-.06.09.28.28,0,0,0,0,.12v0a2.13,2.13,0,0,0,0,.25,2.78,2.78,0,0,1-.11.56,4.34,4.34,0,0,1-.28.63,2.79,2.79,0,0,1-.55.74.2.2,0,0,0-.09.09l0,0-.08.11a.34.34,0,0,0,0,.18.18.18,0,0,0,.18.17h0a.33.33,0,0,0,.13,0l.17-.12a3.25,3.25,0,0,0,.73-.8,2.79,2.79,0,0,0,.4-.9,2.74,2.74,0,0,0,.06-.56v-.09A2.11,2.11,0,0,0,148.81,135Z"/><path class="cls-3" d="M18.88,140.35l.09,0,.05,0,.05,0,.12-.06A2.83,2.83,0,0,1,20,140a3.55,3.55,0,0,1,.73-.08h0a4.4,4.4,0,0,1,.73.07,3,3,0,0,1,1,.39.6.6,0,0,0,.15.09.34.34,0,0,0,.16,0,.3.3,0,0,0,.22-.1l.13-.15a3,3,0,0,0,.26-.47.88.88,0,0,0,0-.15,1,1,0,0,0,0-.16.2.2,0,0,0-.19-.19H23a.84.84,0,0,1-.27,0c-.28,0-.53,0-.77,0h-.88c-.43,0-.78,0-1.11,0h-.1a.14.14,0,0,1-.14-.14.4.4,0,0,1,0-.16c0-.24,0-.48,0-.72v-.41c0-.23,0-.47,0-.77v-.12c0-.1,0-.29,0-.48v0c0-.24,0-.47,0-.71,0-.06,0-.13,0-.19v-.43a.69.69,0,0,0,0-.24.51.51,0,0,0-.1-.25.3.3,0,0,0-.23-.11.29.29,0,0,0-.22.11.44.44,0,0,0-.1.19,1.23,1.23,0,0,0,0,.2c0,.22,0,.44,0,.7s0,.79,0,1.2v1c0,.31,0,.61,0,.92a1.24,1.24,0,0,1-.25.71l-.14.18a.5.5,0,0,0-.1.19.42.42,0,0,0,0,.27A.26.26,0,0,0,18.88,140.35Z"/><path class="cls-3" d="M16.94,141.94a.2.2,0,0,0,0,.11.3.3,0,0,0,.25.31h0l.07,0a.13.13,0,0,1,.11.12.92.92,0,0,1,0,.16v.77c0,.15,0,.3,0,.45v.76c0,.3,0,.6,0,.88v.25c0,.13,0,.25,0,.37v.08a.27.27,0,0,1-.13.22l-.12.07a.63.63,0,0,0-.17.15.54.54,0,0,0-.09.46.22.22,0,0,0,.31.16l.1,0h0l.15-.06.28-.12a3.18,3.18,0,0,1,1.41-.18,2.25,2.25,0,0,1,1.14.43l.15.1a.39.39,0,0,0,.2.06.31.31,0,0,0,.26-.14,2,2,0,0,0,.34-.6.51.51,0,0,0,0-.13.19.19,0,0,0-.17-.2l-.13,0h0l-.33,0a4.18,4.18,0,0,0-.94-.11c-.34,0-.68,0-1,0h-.59a.21.21,0,0,1-.19-.13v0a0,0,0,0,1,0,0,1.84,1.84,0,0,1,0-.51l0-.26c0-.16,0-.32.05-.49s.06-.21.23-.22a3.24,3.24,0,0,1,.45,0h.68a6,6,0,0,0,.6,0H20a.35.35,0,0,0,.23-.16.38.38,0,0,0,.05-.32.3.3,0,0,0-.16-.19.35.35,0,0,0-.11,0l-.18,0-.7,0h-1a.19.19,0,0,1-.18-.14v0a0,0,0,0,1,0,0,2.14,2.14,0,0,1-.07-.48,2.25,2.25,0,0,1,.08-.71.14.14,0,0,1,0-.06.21.21,0,0,1,.16-.14l.08,0h.14l.33,0a5.76,5.76,0,0,1,.9,0,2.19,2.19,0,0,1,.63.13l.1,0h0a.28.28,0,0,0,.3-.11.91.91,0,0,0,.14-.38.19.19,0,0,0-.12-.22.23.23,0,0,0-.11,0l-.21,0h-.37l-.27,0-.42,0h-1l-.84,0a.47.47,0,0,0-.16,0A.36.36,0,0,0,16.94,141.94Z"/><path class="cls-3" d="M15.82,146.27h0l-.13,0a1,1,0,0,1-.38,0h0a2.46,2.46,0,0,0-.37,0h-.78q-.55,0-1,0H13c-.12,0-.17,0-.18-.18V145c0-.16,0-.32,0-.48v-.36h0v-.31c0-.29,0-.59,0-.88,0-.13,0-.26,0-.38v-.15a2.29,2.29,0,0,0,0-.47.54.54,0,0,0-.09-.27.23.23,0,0,0-.26-.12.25.25,0,0,0-.19.13.48.48,0,0,0-.07.21,1.89,1.89,0,0,0,0,.41v0c0,.08,0,.16,0,.24s0,.26,0,.39v2.63c0,.12,0,.24,0,.36a1,1,0,0,1-.19.56l-.12.19a.51.51,0,0,0-.11.22.39.39,0,0,0,0,.26.24.24,0,0,0,.23.19l.11,0,.15-.08a2.28,2.28,0,0,1,.64-.27,3.23,3.23,0,0,1,1.08-.06,2.4,2.4,0,0,1,.81.25l.23.13.11.06,0,0,.12.06.12,0a.23.23,0,0,0,.18-.09.35.35,0,0,0,.1-.12,2.13,2.13,0,0,0,.3-.63.44.44,0,0,0,0-.15.29.29,0,0,0-.05-.17A.21.21,0,0,0,15.82,146.27Z"/><path class="cls-3" d="M32.23,142.74c-.07-.38-.13-.74-.17-1.1a3.68,3.68,0,0,0-.23-.88l-.27-.65-.13-.32a16.73,16.73,0,0,0-1-2,9.53,9.53,0,0,0-.95-1.37l-.37-.45-.19-.24a1,1,0,0,0-.13-.16l-.05-.07a1,1,0,0,0-.25-.21,1.17,1.17,0,0,1-.29-.23c-.1-.12-.21-.24-.32-.35h0a3,3,0,0,0-.6-.51A2.79,2.79,0,0,0,27,134a10.6,10.6,0,0,1-1-.6,5.44,5.44,0,0,0-1.26-.67l-.45-.17-.36-.15-.71-.26-.8-.26-.58-.16-1-.15a6.43,6.43,0,0,0-.9,0l-.54,0h-.91l-.38,0c-.25,0-.5.06-.74.09a7.34,7.34,0,0,0-1,.2c-.48.15-.87.26-1.23.35a4.74,4.74,0,0,0-1,.4l-.07,0-.35.18a18.4,18.4,0,0,0-1.84,1,3.93,3.93,0,0,0-.83.67,6.65,6.65,0,0,1-.85.77l-.06.05h0a5.13,5.13,0,0,0-.53.51c-.23.27-.45.56-.68.87a2.9,2.9,0,0,0-.19.29l-.51.84L8,138.3a5.25,5.25,0,0,0-.5,1c-.11.32-.24.66-.41,1.06a5.24,5.24,0,0,0-.2.51c-.08.26-.15.53-.25.89a4.26,4.26,0,0,0-.13.82c0,.09,0,.18,0,.27a1.48,1.48,0,0,1,0,.21,1.5,1.5,0,0,1,0,.22s0,.1,0,.16,0,.12,0,.18,0,.31,0,.47,0,.39,0,.58V145a4.51,4.51,0,0,0,0,.65c0,.2,0,.41.06.62s.08.48.12.7a4.5,4.5,0,0,0,.19.68c.1.28.19.57.26.85a7.87,7.87,0,0,0,.31,1A9.67,9.67,0,0,0,8,150.82a15.89,15.89,0,0,0,.95,1.42A15.69,15.69,0,0,0,10,153.59a7.19,7.19,0,0,0,.94.88l0,0c.33.25.67.51,1,.76s.87.58,1.25.8c.15.09.32.18.53.28a12.19,12.19,0,0,0,2.21.77c.26.07.54.12.81.17l.1,0c.27.05.55.09.83.12l.73.07h.12c.22,0,.44,0,.65,0h.9a6.71,6.71,0,0,0,1.19-.14c.33-.07.62-.12.9-.16l.53-.09a5.16,5.16,0,0,0,.67-.2l.12,0a6.62,6.62,0,0,0,1.16-.5l.32-.18.14-.07a12.51,12.51,0,0,0,1.65-1h0c.28-.2.57-.42.86-.6a2.74,2.74,0,0,0,.59-.49,2.55,2.55,0,0,0,.26-.3c.23-.29.45-.55.67-.78a6,6,0,0,0,.88-1.13l.36-.58.16-.26a7.64,7.64,0,0,0,.62-1.25l.06-.15.15-.38a12.18,12.18,0,0,0,.54-1.61,7.28,7.28,0,0,0,.24-1.38c0-.07,0-.14,0-.22l0-.32c0-.23,0-.51,0-.79s0-.34,0-.5v-.28A6.06,6.06,0,0,0,32.23,142.74Zm-5.38,9.53a.1.1,0,0,1-.07.11h-.09l-.44,0-.22,0-.35,0h-.16l-.14,0a.11.11,0,0,1-.1-.13.38.38,0,0,1,0-.1l.05-.18c.07-.24.14-.5.22-.74s.12-.34.18-.51l.1-.25v0l.06-.16.06-.1,0,0,0,0,0,.05a.36.36,0,0,0,0,.09l.09.23c.11.25.22.5.31.76s.19.56.28.85A.25.25,0,0,1,26.85,152.27Zm.23-1.43a1.62,1.62,0,0,0-.1-.18,4,4,0,0,1-.32-.84c-.05-.17-.1-.35-.17-.55a.89.89,0,0,0-.12-.26.44.44,0,0,0-.26-.18.34.34,0,0,0-.34.14.61.61,0,0,0-.07.14.56.56,0,0,0,0,.12h0a4.55,4.55,0,0,1-.18.57c-.1.27-.21.55-.31.83s-.2.48-.34.77l-.09.21c-.1.2-.2.4-.29.61a3.55,3.55,0,0,1-.75,1.09c-.16.16-.34.33-.53.49l-.1.09L23,154a.35.35,0,0,0,0,.42.84.84,0,0,0,.47.34.36.36,0,0,0,.31,0l.16-.13a2.27,2.27,0,0,0,.3-.39l.51-.81.06-.1a.36.36,0,0,1,.25-.16l.24,0,.47-.07h.05a1.87,1.87,0,0,1,.62,0l.29,0a1.59,1.59,0,0,0,.3.06.47.47,0,0,1,.36.28l.06.12.06.11c.08.17.07.24-.06.36a5.65,5.65,0,0,1-.86.72l-.39.25-.28.17-.53.34a3.85,3.85,0,0,1-1,.5l-.37.13-.37.13c-.19.06-.38.12-.57.16l-.87.27a4.94,4.94,0,0,1-.9.2l-1,.09h-.48l-1.07,0-.33,0h-.34l-.41,0a3.34,3.34,0,0,1-1-.16l-.43-.14c-.28-.08-.57-.17-.84-.27l-1.21-.48a10.35,10.35,0,0,1-1.15-.59l-.1-.06a.38.38,0,0,1-.16-.27,1.2,1.2,0,0,1,0-.42,4.48,4.48,0,0,0,.05-.58c0-.41,0-.77,0-1.11,0-.12,0-.25,0-.37s0-.15,0-.22c0-.24,0-.52,0-.8v-.88a2.32,2.32,0,0,0-.07-.52.76.76,0,0,1,0-.26.27.27,0,0,1,0-.12.22.22,0,0,1,.23-.17h0a3.3,3.3,0,0,1,.47.08,4,4,0,0,1,.85.32l.23.12.13,0A.32.32,0,0,0,15,150a.52.52,0,0,0,.11-.1,2.36,2.36,0,0,0,.32-.48.47.47,0,0,0,.06-.21.2.2,0,0,0-.19-.2h-.14a.54.54,0,0,1-.31,0,4.28,4.28,0,0,0-.61-.09h-.14l-.54,0-.4,0h-.42l-.32,0h-.55l-.6,0-.47,0a5.24,5.24,0,0,0-.61.09.78.78,0,0,0-.46.26.6.6,0,0,0-.09.13.29.29,0,0,0,.09.35.52.52,0,0,0,.23.08.93.93,0,0,0,.33,0l.48-.16a3.58,3.58,0,0,1,.91-.18H12a.2.2,0,0,1,.2.15.55.55,0,0,1,0,.17,2.09,2.09,0,0,1,0,.26c0,.25,0,.5,0,.71s0,.22,0,.32a2.72,2.72,0,0,0,0,.28c0,.15,0,.29,0,.44s0,.18,0,.28a2.62,2.62,0,0,1,0,.28c0,.18,0,.35,0,.53s0,.3,0,.44v.79c0,.1,0,.19,0,.27l0,.1a.1.1,0,0,1-.12.06l-.11-.06a4.7,4.7,0,0,1-1-.81l0,0c-.11-.13-.23-.27-.36-.4s-.26-.25-.38-.37l-.13-.12a4.83,4.83,0,0,1-.38-.4,12.2,12.2,0,0,1-1.23-1.83,7.13,7.13,0,0,1-.35-.73c-.18-.41-.32-.75-.45-1.11a5.16,5.16,0,0,1-.24-1v-.11a.13.13,0,0,1,.09-.11h.65a6,6,0,0,0,.72,0,3.54,3.54,0,0,0,1.16-.27,2,2,0,0,0,.36-.18,1.17,1.17,0,0,0,.51-.83,3.45,3.45,0,0,0,0-.85,1.25,1.25,0,0,0-.37-.75l-.12-.1,0,0c-.12-.09-.12-.14-.05-.27s.19-.36.26-.51a1.49,1.49,0,0,0-.15-1.38,1.66,1.66,0,0,0-.43-.4,2,2,0,0,0-.93-.31h-.7l-.4,0H7.46a.1.1,0,0,1-.09,0,.09.09,0,0,1,0-.09.51.51,0,0,1,0-.17l.21-.67,0-.11c.07-.22.14-.43.22-.65a3.39,3.39,0,0,1,.31-.67l.19-.33.43-.75.14-.21.07-.12c.06-.09.12-.18.17-.27s.18-.28.26-.42a4,4,0,0,1,.78-.91.35.35,0,0,1,.1-.08l.07,0s0,0,.06.08a.59.59,0,0,1,0,.13,7.1,7.1,0,0,1,0,.77,7.45,7.45,0,0,1-.19,1,3.61,3.61,0,0,1-.52,1.09,1.26,1.26,0,0,1-.32.33l-.12.11a.28.28,0,0,0-.06.32,1.09,1.09,0,0,0,.43.47.32.32,0,0,0,.36,0,.78.78,0,0,0,.15-.16,2,2,0,0,0,.25-.43,4.18,4.18,0,0,0,.34-1.07c0-.26.06-.52.08-.77s0-.62.09-.94l0-.2c0-.06,0-.12,0-.17a.65.65,0,0,1,0-.13,0,0,0,0,1,0,0l0,0,.05.06.06.1a9,9,0,0,1,.38,1,1.94,1.94,0,0,0,.05.2l0,.12a4.83,4.83,0,0,0,.32.89,8.25,8.25,0,0,0,.42.85,1,1,0,0,0,.11.17.26.26,0,0,0,.11.1.2.2,0,0,0,.26,0l.08-.12.06-.18a1.94,1.94,0,0,1,.15-.36c.12-.23.22-.47.33-.7l.09-.22.27-.56.15-.32c.08-.16.16-.33.23-.49l.09-.21,0-.08a.83.83,0,0,1,.07-.13.27.27,0,0,1,.06-.1s.05,0,.07,0a.79.79,0,0,1,0,.13c0,.06,0,.12,0,.18s0,.09,0,.14l.06.78c0,.12,0,.24,0,.36l0,.28c0,.13,0,.25,0,.38s0,.36,0,.54a3.78,3.78,0,0,0,.12.7,1.38,1.38,0,0,0,.11.27.79.79,0,0,0,.14.17.31.31,0,0,0,.2.07.27.27,0,0,0,.25-.15.31.31,0,0,0,.06-.19.77.77,0,0,0,0-.26c-.09-.36-.16-.7-.21-1,0-.13,0-.28-.05-.44a2.83,2.83,0,0,1,0-.29c0-.27-.05-.55-.08-.82s0-.38,0-.58,0-.65-.1-1a2.25,2.25,0,0,1,0-.44,1.15,1.15,0,0,1,0-.26V135a1,1,0,0,0,0-.25.3.3,0,0,0-.27-.23.31.31,0,0,0-.24.08l-.11.13a.82.82,0,0,0-.09.19c-.09.24-.19.47-.29.7l-.08.17a5.54,5.54,0,0,0-.21.57l-.1.27c-.2.53-.41,1.06-.6,1.51l0,.08-.15.36h0l-.06.14s0,.05,0,.06a.08.08,0,0,1-.07.05.1.1,0,0,1-.07,0l-.1-.19c-.07-.18-.16-.38-.23-.57L12,137.2c-.08-.22-.17-.44-.25-.65l-.15-.38-.21-.57-.06-.2s0,0,0,0a.27.27,0,0,1,.07-.31,5.82,5.82,0,0,1,1.12-.9l1.42-.77a7.11,7.11,0,0,1,1.09-.47,12.35,12.35,0,0,1,1.52-.47c.36-.09.74-.16,1.12-.22s.58-.08,1-.11a7.22,7.22,0,0,1,.81,0l.43,0H20l.44.05.4,0c.33,0,.66.07,1,.13l.25.05.48.1a7,7,0,0,1,.95.29l.11,0,.92.35a6.9,6.9,0,0,1,.84.4,8.83,8.83,0,0,1,1,.65l.17.14.07.08a.11.11,0,0,1,0,.05.05.05,0,0,1,0,0h-.14a3.67,3.67,0,0,0-.73,0H25l-.21,0h0l-.1,0a.46.46,0,0,0-.23.6.3.3,0,0,0,.28.2h.14a.14.14,0,0,1,.13.11.62.62,0,0,1,0,.13l0,1.09v.42c0,.1,0,.2,0,.3v.25a2.71,2.71,0,0,1,0,.29c0,.35,0,.69,0,1a.41.41,0,0,1,0,.11.3.3,0,0,1,0,.1.11.11,0,0,1-.11.1h0l-.12,0h0l-.11,0-.16-.05-.15,0h0a.17.17,0,0,0-.17.16.47.47,0,0,0,0,.17,1.82,1.82,0,0,0,.2.42.8.8,0,0,0,.49.37,2.28,2.28,0,0,0,.39.06l.41,0,.54,0a4.72,4.72,0,0,0,1-.15,3.32,3.32,0,0,0,.8-.34,2.06,2.06,0,0,0,.81-.82,3.49,3.49,0,0,0,.41-1.16,2.88,2.88,0,0,0,.05-.59v-.14a.32.32,0,0,1,0-.09h0l.06,0,.08.09a5.66,5.66,0,0,1,.62,1,4,4,0,0,1,.18.36,10.08,10.08,0,0,0,.46.93,4.43,4.43,0,0,1,.46,1.06l0,0c.08.25.15.51.22.76l.12.56,0,.15a.51.51,0,0,1,0,.17.44.44,0,0,1,0,.1s0,0,0,0h0l-.06,0a.22.22,0,0,1-.09-.07,2.54,2.54,0,0,0-.86-.48,3.19,3.19,0,0,0-.77-.21,2.48,2.48,0,0,0-.54,0h-.75a.63.63,0,0,0-.24,0,.46.46,0,0,0-.33.26.54.54,0,0,0,0,.43.27.27,0,0,0,.33.18h.12a.11.11,0,0,1,.09.07.53.53,0,0,1,0,.12c0,.18,0,.35,0,.51v2.45a6.3,6.3,0,0,1,0,.65s0,.07,0,.1a.12.12,0,0,1-.11.08h0l-.13,0-.08,0-.1,0-.11,0a.16.16,0,0,0-.17.13.26.26,0,0,0,0,.15,1.4,1.4,0,0,0,.21.57.65.65,0,0,0,.31.23,1.5,1.5,0,0,0,.29.06l.4,0H29a5,5,0,0,0,1.08-.12,2.45,2.45,0,0,0,.73-.3,3.43,3.43,0,0,0,.65-.48l.09-.08.06,0h.05s0,0,0,.06a1.07,1.07,0,0,1,0,.25v0a7.81,7.81,0,0,1-.29,1.22,14.88,14.88,0,0,1-.69,1.76l-.22.43,0,0c-.15.29-.31.58-.45.88a4.81,4.81,0,0,1-.45.73,11.8,11.8,0,0,1-1,1.2l0,0-.07.06-.05,0a.13.13,0,0,1-.2,0,.27.27,0,0,1-.07-.08l-.06-.11c-.08-.12-.16-.25-.23-.38a3,3,0,0,1-.27-.67,1.18,1.18,0,0,0-.07-.2,3.3,3.3,0,0,0-.3-.73ZM6.94,144.09a4.24,4.24,0,0,1,0-.61,2.37,2.37,0,0,1,.08-.42c0-.14.07-.27.11-.4l0-.1a.14.14,0,0,1,.12-.09h0s.09,0,.11.11a2,2,0,0,1,0,.2c0,.16,0,.31,0,.46V144c0,.16,0,.32,0,.48s0,.23,0,.34,0,.41,0,.67,0,.23,0,.35a2,2,0,0,0,0,.25,1,1,0,0,1,0,.17c0,.08,0,.09-.07.1s-.07,0-.1-.08a.09.09,0,0,1,0-.06,3.83,3.83,0,0,1-.16-.7,3.23,3.23,0,0,1,0-.53A4.31,4.31,0,0,0,6.94,144.09Zm3.1-.6a.74.74,0,0,1-.59.55,1.07,1.07,0,0,1-.25,0H8.09A.17.17,0,0,1,8,143.9a.93.93,0,0,1,0-.14v-.24l0-.5a1.21,1.21,0,0,0,0-.19,1.27,1.27,0,0,0,0-.2.6.6,0,0,1,0-.12.19.19,0,0,1,.12-.16l.16,0,.11,0,.31-.05a1.6,1.6,0,0,1,.73.05,1.21,1.21,0,0,1,.46.26A.91.91,0,0,1,10,143.49ZM7.9,145.44a1.09,1.09,0,0,0,0-.31v0a.53.53,0,0,1,0-.13.17.17,0,0,1,.14-.14l.16,0,.56,0h.63a1.8,1.8,0,0,1,.37.05.58.58,0,0,1,.41.39.93.93,0,0,1,0,.23,1.66,1.66,0,0,1,0,.59.74.74,0,0,1-.59.62,2.2,2.2,0,0,1-.55.06H8.51l-.28,0H8a.2.2,0,0,1-.17-.2,1.28,1.28,0,0,1,0-.19v-.18a1.28,1.28,0,0,1,0-.19A2.4,2.4,0,0,1,7.9,145.44Zm20.67-7.19a1,1,0,0,1-.25.51,2.71,2.71,0,0,1-1.29.82,2.12,2.12,0,0,1-.9,0h-.06l-.14,0a.21.21,0,0,1-.19-.2c0-.06,0-.14,0-.22s0-.44-.05-.66a8.8,8.8,0,0,1,0-.89v-.32c0-.3,0-.62,0-.93l0-.46a1.64,1.64,0,0,0,0-.22s0-.07,0-.11h0a.28.28,0,0,0,0-.09v0a.2.2,0,0,1,.2-.18H27a2,2,0,0,1,.42.05,1.12,1.12,0,0,1,.67.44,2.31,2.31,0,0,1,.38.77,3.39,3.39,0,0,1,.11.76c0,.22,0,.43,0,.64S28.58,138.13,28.57,138.25Zm1.88,8.26a1.75,1.75,0,0,1-.86.17l-.24,0h-.09l-.06,0h0a.18.18,0,0,1-.12-.13.44.44,0,0,1,0-.1l0-.35v-.09a7.16,7.16,0,0,1,0-.9c0-.26,0-.53,0-.8s0-.29,0-.43v-.29c0-.2,0-.39,0-.59l0-.33a.78.78,0,0,1,0-.14.16.16,0,0,1,.13-.13h.89a2.19,2.19,0,0,1,.47.08,1.07,1.07,0,0,1,.53.36,2,2,0,0,1,.22.39,3.1,3.1,0,0,1,.23,1c0,.18,0,.37,0,.56v.43a1.12,1.12,0,0,1-.23.66A2.58,2.58,0,0,1,30.45,146.51Z"/><path class="cls-3" d="M16.72,136c0,.32,0,.69,0,1.07v.49c0,.46,0,.94,0,1.51,0,.19,0,.37,0,.56a2.53,2.53,0,0,0,0,.28.83.83,0,0,0,0,.24.42.42,0,0,0,.11.21.29.29,0,0,0,.18.07.28.28,0,0,0,.17-.07.45.45,0,0,0,.1-.14,1.49,1.49,0,0,0,.07-.25c0-.14,0-.28,0-.42v0c0-.08,0-.15,0-.22s0-.2,0-.3c0-.47,0-.94,0-1.4v-2.17c0-.1,0-.2,0-.3v0a1.37,1.37,0,0,0,0-.27.51.51,0,0,0-.1-.26.3.3,0,0,0-.23-.11.27.27,0,0,0-.23.12.37.37,0,0,0-.09.19v0a.88.88,0,0,0,0,.17c0,.14,0,.29,0,.43S16.72,135.85,16.72,136Z"/><path class="cls-3" d="M26.39,141.55a.28.28,0,0,0-.32.15A.46.46,0,0,0,26,142v.33c0,.39,0,.81,0,1.37v1.11a3.24,3.24,0,0,0,0,.44l0,.09c0,.09,0,.18,0,.28a2.44,2.44,0,0,1,0,.27.33.33,0,0,1,0,.15s-.06,0-.1,0a.1.1,0,0,1,0-.06l-.08-.1-.05-.09c-.07-.13-.15-.25-.21-.37l-1.13-2.09c-.09-.17-.18-.34-.26-.51l-.28-.53c-.08-.15-.16-.28-.25-.42a1,1,0,0,0-.14-.17.57.57,0,0,0-.13-.1.28.28,0,0,0-.15,0,.29.29,0,0,0-.29.3.81.81,0,0,0,0,.16,1.21,1.21,0,0,1,.05.18v0a1.66,1.66,0,0,1,.08.48v.67l0,.67c0,.17,0,.33-.05.49l0,.21c0,.2-.06.41-.1.64a2.18,2.18,0,0,1-.61,1.15l-.07.08a.35.35,0,0,0-.05.33l0,.08a1.54,1.54,0,0,0,.24.35.3.3,0,0,0,.08.08.26.26,0,0,0,.34,0,.87.87,0,0,0,.12-.14,1.69,1.69,0,0,0,.19-.33,2.84,2.84,0,0,0,.21-.66,7.87,7.87,0,0,0,.18-1.43c0-.25,0-.51,0-.76s0-.3,0-.45a2.72,2.72,0,0,0,0-.28v-.15a.2.2,0,0,1,0-.11l0,0h0a.3.3,0,0,1,.08.08v0a1.63,1.63,0,0,1,.09.19,4.22,4.22,0,0,0,.25.53c.48.89,1,1.84,1.53,2.78l.26.44.17.23.12.1.12,0a.25.25,0,0,0,.17-.08.54.54,0,0,0,.07-.13.7.7,0,0,0,0-.33v0c0-.11,0-.24,0-.35s0-.44,0-.65v-.1c0-.2,0-.42,0-.62s0-.41,0-.61v-.83c0-.46,0-.93,0-1.4,0-.13,0-.25,0-.36a.64.64,0,0,0-.07-.28A.27.27,0,0,0,26.39,141.55Z"/><path class="cls-3" d="M21.75,153.66h-.14a1.77,1.77,0,0,1-.49,0,7.91,7.91,0,0,0-1-.11c-.5,0-.89,0-1.27,0l-.25,0-.48,0h-.15a.14.14,0,0,1-.12-.09.61.61,0,0,1,0-.12,1.46,1.46,0,0,1,0-.59,4.75,4.75,0,0,0,.09-.65.29.29,0,0,1,0-.09.16.16,0,0,1,.12-.12h.14l.75,0h.63l.45,0h.31a.55.55,0,0,0,.18,0,.38.38,0,0,0,.31-.35.33.33,0,0,0-.23-.34l-.12,0h-.08l-.38,0c-.52,0-1.06,0-1.76,0H18a.21.21,0,0,1-.2-.16v0a1.81,1.81,0,0,1-.06-.85c0-.11.05-.22.08-.35a.24.24,0,0,1,.1-.14.26.26,0,0,1,.12-.05h.12l.3,0H19a9.76,9.76,0,0,1,1,.05,3.16,3.16,0,0,1,.63.13l.12,0a.29.29,0,0,0,.32-.09.91.91,0,0,0,.2-.39.14.14,0,0,0,0-.09c0-.06,0-.14-.18-.17l-.15,0H20.7l-.49,0c-.15,0-.3,0-.44,0l-.3,0-.51,0H17.13a.67.67,0,0,0-.24,0,.4.4,0,0,0-.26.4.29.29,0,0,0,.22.28l.08,0h.15a.15.15,0,0,1,.11.12,1,1,0,0,1,0,.16c0,.09,0,.19,0,.28v.59c0,.19,0,.4,0,.6,0,.46,0,.91,0,1.33,0,.15,0,.32,0,.47a1.7,1.7,0,0,0,0,.22.06.06,0,0,1,0,0v0a.29.29,0,0,1-.17.24l-.11,0,0,0a.67.67,0,0,0-.2.16.45.45,0,0,0-.1.45.25.25,0,0,0,.32.19l.1,0h0l.18-.07.34-.12a4.51,4.51,0,0,1,1.26-.22,4,4,0,0,1,1,.07,3,3,0,0,1,1,.39l.13.09.13.06a.35.35,0,0,0,.35,0l.06-.06a2.28,2.28,0,0,0,.43-.6.33.33,0,0,0,0-.14.19.19,0,0,0,0-.15A.22.22,0,0,0,21.75,153.66Z"/><path class="cls-4" d="M77.5,136.77a15.87,15.87,0,0,1,5.18-4.86,36.86,36.86,0,0,0,5.48-1.41c1-.19.15-.9.15-.9A14.54,14.54,0,0,0,84,127.73c-.76-.2-.12-.62-.12-.62h0a16.35,16.35,0,0,0,2.89-2.47c1-1,.65-1.26.65-1.26a5.06,5.06,0,0,0-1.88-1.23,2.4,2.4,0,0,0-2.25.18c-.3.18-1.3.6-1.91.86-.16.06-.32.12-.49.2h0c-1,.43-2.16,1-3.16,1.57h0c-1.71.89-2.32.4-2.32.4h0a2.36,2.36,0,1,0,.78,2.76h0a.49.49,0,0,0,0-.11.14.14,0,0,0,0-.06,6.16,6.16,0,0,1,1-2,4.86,4.86,0,0,1,4.18-1.37h.16c.22,0,.56.13.35.42a44.61,44.61,0,0,1-4.84,5.7,59.92,59.92,0,0,1-6,3.4,2.28,2.28,0,0,0-1.54,1.17c-.79,1.54,0,1.72,0,1.72,1.39.41,4-1.1,4-1.1a4.86,4.86,0,0,1,.77-.32c.56-.18.4.16.4.16-.26.58-1.95,3.34-1.95,3.34a17.25,17.25,0,0,1-7.12,6.45,5.08,5.08,0,0,0-1.6,1.28,1,1,0,0,0-.24.83.43.43,0,0,0,.45.33C71.31,147.93,77.5,136.77,77.5,136.77Z"/><path class="cls-4" d="M91.82,138.74c-6.35-4.46-10.62-3.38-10.62-3.38-.71.13-.32.39-.32.39a12.46,12.46,0,0,0,2,1.12,37.54,37.54,0,0,1,5.53,3h0a.31.31,0,0,1,.06.49,13,13,0,0,1-2.83,2.14c-.4.21-.51-.11-.51-.11h0a2.33,2.33,0,0,0-.85-.92s-.76-.52-1.37-.86a3.43,3.43,0,0,1-.73-1.89s.09-.62-.72-1.06c0,0-1.42-.91-1.92-.26a1.53,1.53,0,0,0-.29,1.17,27.11,27.11,0,0,1-.15,3.16,3,3,0,0,1-.52,1.06s-1.24,1.72-4.91,3.25c0,0-.58.19-.63.52,0,0-.11.48.93.85,0,0,1.82.77,2.71,0l1.5-.67s.34-.14.42.17a13.39,13.39,0,0,1,.36,2.8c-2.41.85-4.21,1.55-4.21,1.55a2.49,2.49,0,0,1-3.15-1.17h0a2.08,2.08,0,1,0-1.78,3.16h0a14.06,14.06,0,0,0,3.82-.9h0a.35.35,0,0,1,.29.08,23.07,23.07,0,0,1,3.5,2.82s1,1.47,1.91,1.49c0,0,1.09.14,1.87-1.54a10.4,10.4,0,0,1,.84-1.44,2.52,2.52,0,0,0,.54-1.5,4.09,4.09,0,0,0-.23-1.71,9.85,9.85,0,0,1-.17-1.19,15.48,15.48,0,0,1,3.16-.18c1,.17,1.2,1.72,1.2,1.72h0a3.61,3.61,0,1,0,3.66-4.19h-.13c-1.6,0-4.83.89-7.93,1.89a7.31,7.31,0,0,1,.15-1.59s.29-1.08.44-1.76h0a1,1,0,0,1,.65-.59l.06,0a5,5,0,0,0,1.47-1h0a.88.88,0,0,1,.39-.27,33.78,33.78,0,0,1,6.16-.87,2,2,0,0,1,1.09.37h0c.87.56,1.8,1.05,1.8,1.05,1.88,1.21,1.93-.08,1.93-.08C96.46,141.71,91.82,138.74,91.82,138.74Zm-13.75,14a1.15,1.15,0,0,1-.83.11,24.65,24.65,0,0,1-3-.57s-.14-.06,0-.12c1.92-.71,3.59-1.49,3.59-1.49.38-.17.74-.32,1.11-.45C79,150.81,78.81,152.25,78.07,152.72Z"/><path class="cls-4" d="M87.59,50.07l.48.18,1.83.94a16.44,16.44,0,0,0,2,.86,2.68,2.68,0,0,0,.72.13,1,1,0,0,0,.46-.1,1.2,1.2,0,0,0,.51-.72c0-.16.09-.39.15-.71a6.76,6.76,0,0,0,0-1.44l-.1-1.16a12.14,12.14,0,0,1,1.4.32c.76.28,1.3.48,1.62.62a10.07,10.07,0,0,1,1,.47,1.18,1.18,0,0,0,.81.14c.25-.06.54-.26.54-.84a1.43,1.43,0,0,0-.17-.65,1.47,1.47,0,0,0-.85-.77c-.39-.12-.78-.22-1.15-.31l-1.4-.28c-.2,0-.56-.08-1-.13l-.85-.1a22.28,22.28,0,0,1-.13-2.3c0-.52,0-1,0-1.46h.19c3.1,0,3.94-1.16,4-1.2a1.84,1.84,0,0,0-.11-2.18c-.27-.41-.52-.61-.76-.61a.35.35,0,0,0-.19,0h0c-.21.13-.08.45,0,.53.25,1.15-1.23,1.51-1.28,1.52a15.52,15.52,0,0,1-1.79.12c0-1.14,0-2,0-2.78.47,0,.81,0,.9,0h.07a1.21,1.21,0,0,0,.82-.4.73.73,0,0,0,.14-.51c-.09-.48-.56-.76-1.31-.76h-.24l-.3,0a3.73,3.73,0,0,1,.15-1.06l0,0a1.57,1.57,0,0,1,.21-.49.25.25,0,0,1,.21-.13l.08,0h0a1,1,0,0,0,.54.24.24.24,0,0,0,.15,0c.27-.19,0-.64,0-.74a1.59,1.59,0,0,0-1.39-.8,2,2,0,0,0-.65.11s-1,.36-1.14,2.71a6.4,6.4,0,0,1-2.27-1.2,1,1,0,0,0-.72-.35.82.82,0,0,0-.28.06c-.37.23-.21.75-.06,1a4.76,4.76,0,0,0,2.36,1.87,14.26,14.26,0,0,1-1.73.68C87.2,38.92,87.17,40,87.17,40c0,1.73,3,2.38,4.38,2.58,0,.58,0,1.11,0,1.54,0,1,0,1.78,0,2.3a12.07,12.07,0,0,0-2.7.5,4.11,4.11,0,0,0-1.53.93,1.72,1.72,0,0,0-.28.84,2.12,2.12,0,0,0,0,.93A.75.75,0,0,0,87.59,50.07Zm4-9.17a9.61,9.61,0,0,1-2.21-.52c-.31-.1-.49-.22-.5-.34s.4-.54.72-.7a7,7,0,0,1,2-.82C91.59,39.14,91.57,40,91.56,40.9Zm-2.74,7.91a.41.41,0,0,1,.17-.26,4.77,4.77,0,0,1,2.75-.65,12.26,12.26,0,0,1,.07,1.46c0,.54-.16.86-.35.91a1.89,1.89,0,0,1-1.17-.14A3.39,3.39,0,0,1,89,49.27.69.69,0,0,1,88.82,48.81Z"/><path class="cls-4" d="M89.15,72.22a6.5,6.5,0,0,0,2.65.53h.37a5.84,5.84,0,0,0,3.1-.8,5.59,5.59,0,0,0,2-2.16,6,6,0,0,0,.52-2.42,3.57,3.57,0,0,0-.37-1.68,5.52,5.52,0,0,0-1.23-1.56c-.72-.46-1.26-.78-1.6-1-1.19-.67-1.29-1-1.29-1.06s.07-.35,1.35-1.48l1.59-1.38a1,1,0,0,0,.36-.77A2.18,2.18,0,0,0,95.79,57a2.08,2.08,0,0,0-1.35-.72H94.3a1.12,1.12,0,0,0-.69.54,1.67,1.67,0,0,1-.73.57c-.06,0-.37.12-1,.36a7.6,7.6,0,0,1-1.91.57c-.09,0-.25-.18-.39-.66s-.37-.74-.7-.74h0c-.23,0-.42.19-.6.5a1.57,1.57,0,0,0-.19.89c.09.57.18,1,.26,1.33s.43.63,1,.75a1.57,1.57,0,0,0,1.23-.11,14.6,14.6,0,0,1,2.05-1.15c.35-.14.8-.31,1.32-.49a10,10,0,0,1-1.45,2.25,1.08,1.08,0,0,0-.28.75,2.11,2.11,0,0,0,.44,1.24,9.12,9.12,0,0,0,2.37,2.35,2.52,2.52,0,0,1,.8,1.91,3.47,3.47,0,0,1-1.87,3.3,3.83,3.83,0,0,1-2.11.48,7.17,7.17,0,0,1-1-.08,3.76,3.76,0,0,1-1.87-.67,1.64,1.64,0,0,1-.75-1.31,1.05,1.05,0,0,1,.33-.79,1.34,1.34,0,0,1,.86-.38,2.42,2.42,0,0,1,1.91.76.89.89,0,0,1,.26.75.93.93,0,0,0,.19.77.56.56,0,0,0,.43.17c.34,0,.62-.23.83-.68a2.21,2.21,0,0,0,.25-1,1.76,1.76,0,0,0-.29-1,3.33,3.33,0,0,0-2.1-1.32,3.87,3.87,0,0,0-.92-.11,5.14,5.14,0,0,0-2.06.48,2.52,2.52,0,0,0-1.21,1.31,2.78,2.78,0,0,0,.08,1.85A4.24,4.24,0,0,0,89.15,72.22Z"/><path class="cls-4" d="M93.66,81.09c0,.12.06.41.62.41h0l.8,0h1.27c.87,0,2-.09,2-.87a1.83,1.83,0,0,0-.61-1.07,3.87,3.87,0,0,0-1.75-1,20.17,20.17,0,0,0-3-.43C92.23,78,91.16,78,89.87,78c-1,0-1.53.18-1.64.54a.43.43,0,0,0,.07.41c.2.26.72.4,1.63.44.76,0,1.84.14,3.21.33q1.14.16,2.1.39l-.31.12C94,80.53,93.66,80.79,93.66,81.09Z"/><path class="cls-4" d="M97.29,88.84a5.83,5.83,0,0,0-1.06.13,17.12,17.12,0,0,1-4.4.23,6.46,6.46,0,0,1-2.91-.85,1.86,1.86,0,0,1-1-1.64,3.73,3.73,0,0,1,.36-1.43c.2-.44.4-.92.11-1.07a.45.45,0,0,0-.28-.09c-.43,0-.86.35-1.31,1.07A3.4,3.4,0,0,0,86.25,87a3.07,3.07,0,0,0,.43,1.57,4.78,4.78,0,0,0,2.63,2,10.5,10.5,0,0,0,3.16.65c.59,0,1.2.06,1.81.06l1.43,0a11.44,11.44,0,0,0,2.35-.32c.63-.18,1-.46,1-.84a.83.83,0,0,0-.25-.53A1.78,1.78,0,0,0,97.29,88.84Z"/><path class="cls-4" d="M95.73,112.72l-.87.1a12.56,12.56,0,0,1-3.47-.2,5.22,5.22,0,0,1-2.08-.75,1.51,1.51,0,0,1-.67-1.31,5.13,5.13,0,0,1,1.74-3.25,13.06,13.06,0,0,1,2.42-2.08A11.64,11.64,0,0,1,95.22,104c.61-.22.91-.43,1-.69s-.22-.8-.91-1.24A2.73,2.73,0,0,0,94,101.6a.52.52,0,0,0-.56.58,1.06,1.06,0,0,1-.07.41L91,104.41a4.42,4.42,0,0,1-.43-1,9.33,9.33,0,0,1-.23-3.1A18.13,18.13,0,0,1,90.61,98a1.53,1.53,0,0,0,0-.3c0-.31-.25-.62-.81-1-.37-.2-.69-.35-.93-.46-.58-.29-.88-.33-1.06-.13s-.14.63.29,1.07a1.15,1.15,0,0,1,.29.79,9.14,9.14,0,0,1,0,1.22c-.06.66-.09,1.19-.09,1.57a7.92,7.92,0,0,0,.43,3,4.24,4.24,0,0,0,1.3,1.5,15.57,15.57,0,0,0-2.37,3.24,4,4,0,0,0-.48,1.91,3.18,3.18,0,0,0,.89,2.31,5.93,5.93,0,0,0,.83.7l.88.48a9,9,0,0,0,2.27.81,14.1,14.1,0,0,0,2.06.37c.33,0,.63,0,.9,0a2.39,2.39,0,0,0,1.52-.35,1.37,1.37,0,0,0,.36-1.07,1,1,0,0,0-.28-.83A1.23,1.23,0,0,0,95.73,112.72Z"/><path class="cls-4" d="M63.47,39.68a4,4,0,0,0,2,.73h.06A12.64,12.64,0,0,0,68.72,40c.75.87,1.31,1.5,1.71,1.91s.76.84.95,1a5.38,5.38,0,0,1,.89,1.32,1.28,1.28,0,0,1,.1.56.69.69,0,0,1-.06.35H72.2a4.38,4.38,0,0,1-.76-.11l-2.83-.59a19.86,19.86,0,0,0-2.14-.38,3.86,3.86,0,0,0-2.14.38,2.82,2.82,0,0,0-1.25,1.1,2,2,0,0,0-.23,1,2.94,2.94,0,0,0,.5,1.77,7.17,7.17,0,0,0,1.55,1.74,15.82,15.82,0,0,0,2.45,1.55,10.48,10.48,0,0,0,2.3.81,4.55,4.55,0,0,0,.94.12,1.08,1.08,0,0,0,.76-.23c.3-.31.27-.79-.09-1.43s-.87-1-1.31-1h0a6.45,6.45,0,0,1-3.3-1,5.32,5.32,0,0,1-2-1.87,1.18,1.18,0,0,1-.22-.72.88.88,0,0,1,.49-.89,3,3,0,0,1,1.3-.29,4.46,4.46,0,0,1,.63,0c.93.25,1.55.43,2,.56a17.21,17.21,0,0,1,2.69.9l1,.59a1.31,1.31,0,0,0,.76.21h.11a1.1,1.1,0,0,0,.85-.29,2.45,2.45,0,0,0,.46-2,4.05,4.05,0,0,0-.33-1.38.08.08,0,0,0,0-.06,5.21,5.21,0,0,0-.76-.81c-.52-.54-.91-.94-1.15-1.17-.75-.79-1.24-1.31-1.45-1.55l-.64-.73a15.68,15.68,0,0,0,1.9-.75,10.2,10.2,0,0,0,1.81-1,1.76,1.76,0,0,0,.51-1.25,1.24,1.24,0,0,0-.25-1.18A1.83,1.83,0,0,0,73,35a8.26,8.26,0,0,1-2.14-.39,6.21,6.21,0,0,1-1.74-.66,1.82,1.82,0,0,0-.92-.35h0a1.24,1.24,0,0,0-1.09.64,1.9,1.9,0,0,0-.29,1,3.85,3.85,0,0,0,.21,1.13,10,10,0,0,0,.88,2,18.27,18.27,0,0,1-2.08.34,2.72,2.72,0,0,1-2-.67c-.45-.38-.74-.54-1-.54a.36.36,0,0,0-.14,0,.52.52,0,0,0-.34.53C62.24,38.61,62.65,39.17,63.47,39.68Zm5.13-4.41a.62.62,0,0,1,.45-.12,4.62,4.62,0,0,1,1.65.54c.47.22.9.41,1.27.56l.49.2a4.92,4.92,0,0,1-1.08.7,12.79,12.79,0,0,1-2,.83,6.16,6.16,0,0,1-.75-1.68C68.44,35.59,68.53,35.34,68.6,35.27Z"/><path class="cls-4" d="M79.24,65.84c-.29,0-.59.2-.94.64-.73.84-1.19,1.35-1.38,1.51-.42.41-1.07,1-1.93,1.7a8.08,8.08,0,0,1-1.92,1.17,2.86,2.86,0,0,1-1.24.26,1.64,1.64,0,0,1-.93-.23,3.65,3.65,0,0,1-1.08-2.34c-.08-.69-.17-1.38-.27-2.06a2.38,2.38,0,0,0-1.22-1.7,5.14,5.14,0,0,0-2.47-.35c.83-1.36,1.48-2.41,1.93-3.13a16.43,16.43,0,0,1,1.26-1.78c.21-.26.42-.51.64-.76a1.2,1.2,0,0,0,.36-.85.75.75,0,0,0-.22-.49,6.91,6.91,0,0,0-.69-.46q-.56-.33-1.11-.69a2.79,2.79,0,0,0-1.29-.49.52.52,0,0,0-.59.54c0,.23.18.48.55.82a3.62,3.62,0,0,1,.55.6.79.79,0,0,1,.06.32,7.31,7.31,0,0,1-1.16,2.69c-1.3,2.08-2.31,3.65-3,4.66C62,67.16,61.3,68.12,61,68.53c-.66,1-1.2,1.75-1.58,2.28a8.36,8.36,0,0,1-.8.86c-.27.29-.27.74,0,1.35a1.46,1.46,0,0,0,.52.57,1.11,1.11,0,0,0,.58.23l.15,0c.36-.13.73-.61,1.19-1.51.68-1.33,1.06-2.05,1.17-2.21s.11-.22,1-1.65a14.89,14.89,0,0,1,1.08-1.61,2.54,2.54,0,0,1,2-1.06h.28a1.06,1.06,0,0,1,1,.74,11.42,11.42,0,0,1,.37,1.74,7.49,7.49,0,0,0,1.26,3.47,3.22,3.22,0,0,0,2.6,1.12,4.66,4.66,0,0,0,2.48-.7c1.32-.8,1.49-.89,1.49-.89l.08,0a28.79,28.79,0,0,0,2.65-2.7,9.37,9.37,0,0,0,.88-1.24,2,2,0,0,0,.38-.9A.46.46,0,0,0,79.24,65.84Z"/><path class="cls-4" d="M64.24,91.29a2.49,2.49,0,0,0,.59,0,5,5,0,0,0,2.35-.53,4,4,0,0,0,1.88-2.49,13,13,0,0,0,.58-2.73,6.41,6.41,0,0,0-.25-3,1.87,1.87,0,0,0-1.83-1l-.39,0c-.61.09-1.1.17-1.46.24a4.78,4.78,0,0,1,.14-.55A5.69,5.69,0,0,0,66,80a2.86,2.86,0,0,0-.2-1.57,1.52,1.52,0,0,0-1.06-.84,2.07,2.07,0,0,0-1.32.16c-.64.29-.91.52-.91.78a.58.58,0,0,0,.52.59l.54.1c.42.1.57.65.45,1.63a9.36,9.36,0,0,1-.3,1.34c-.72.1-1.29.17-1.74.21a3.79,3.79,0,0,1-1.84-.14s-.15-.07-.33-.39a.65.65,0,0,0-.59-.39h-.05c-.19,0-.43.14-.54.6a1.75,1.75,0,0,0,0,.88,1.25,1.25,0,0,0,.86,1,5.53,5.53,0,0,0,2.33,0l1.44-.24A10.84,10.84,0,0,1,62.62,85a20.1,20.1,0,0,1-1.95,2.85,8.52,8.52,0,0,1-1.6,1.48c-.85.61-1,.75-1,.85a1.45,1.45,0,0,0,.31,1.26.8.8,0,0,0,.68.41,1.09,1.09,0,0,0,.25,0l.06,0a3.11,3.11,0,0,0,.73-.61A27.72,27.72,0,0,0,62.6,88.3a17.89,17.89,0,0,0,2.25-4.11c.16-.4.27-.7.34-.91L66.36,83a2.88,2.88,0,0,1,1-.16c.36.12.42.72.41,1.2-.08,2.91-.7,4.68-1.84,5.25a.86.86,0,0,1-.93-.13l-.66-.51c-.56-.4-.77-.45-.9-.45a.46.46,0,0,0-.51.49,2.39,2.39,0,0,0,.41,1c0,.06.11.25.33.89C63.84,91,64,91.24,64.24,91.29Z"/><path class="cls-4" d="M78.26,83.57a6,6,0,0,0-2.51-2,7.68,7.68,0,0,0-1.64-.61c-.9-.23-1.43-.18-1.61.11a.43.43,0,0,0-.1.27c0,.23.2.46,1.16.85.48.25.85.46,1.09.62A13.08,13.08,0,0,1,76,83.9a2.7,2.7,0,0,1,.74,1.54,3.33,3.33,0,0,1-.83.13c-.82.05-1.35.07-1.59.07s-1.06,0-1.1.58c0,.38.31.6,1,.66l1.65.25,1.24.35.52.27a1.46,1.46,0,0,0,.66.18h.07c.29,0,.66-.13.85-.74a3.42,3.42,0,0,0,0-1.85A6.71,6.71,0,0,0,78.26,83.57Z"/><path class="cls-4" d="M69.28,95.53c-.49-.43-.81-.59-1.1-.47s-.36.36-.36.75v.62a8.51,8.51,0,0,1-1.08,2.63c-.6,1.14-1,1.89-1.17,2.18l-1.25,2a4,4,0,0,0-.67,1.84,5.59,5.59,0,0,0,.61,2.48l1.23,2.23c.41.75.85,1.63,1.31,2.62a13.22,13.22,0,0,1,.59,1.73c.14.51.24.86.29,1.09a.17.17,0,0,0,.08.12,1,1,0,0,0,.62.15,1.29,1.29,0,0,0,1.43-1.77,5.52,5.52,0,0,0-.73-1.79c-.63-1-1.1-1.71-1.47-2.25l-.4-.6-1-1.53-.16-.23a4.46,4.46,0,0,1-.86-2.16,2.41,2.41,0,0,1,.51-1.19L67,102.19a39.81,39.81,0,0,0,2.24-3.34,9.48,9.48,0,0,0,.93-1.76C70.22,96.64,69.94,96.13,69.28,95.53Z"/><path class="cls-4" d="M99.76,76a1.46,1.46,0,1,0,1.52,1.45A1.5,1.5,0,0,0,99.76,76Z"/><path class="cls-4" d="M103.52,74.41a1.45,1.45,0,1,0,1.53,1.45A1.49,1.49,0,0,0,103.52,74.41Z"/><rect class="cls-2" x="130" y="12.94" width="17.55" height="47.93" rx="1.43"/><path class="cls-4" d="M146.82,62.56h-16.1a.22.22,0,1,1,0-.44h16.1a.22.22,0,0,1,0,.44Zm2.28-2.28a.22.22,0,0,1-.22-.22V13.59a.22.22,0,1,1,.44,0V60.06A.22.22,0,0,1,149.1,60.28Zm-20.65,0a.22.22,0,0,1-.22-.22V13.59a.22.22,0,1,1,.44,0V60.06A.22.22,0,0,1,128.45,60.28Zm18.37-48.75h-16.1a.22.22,0,0,1,0-.44h16.1a.22.22,0,0,1,0,.44Z"/><path class="cls-5" d="M144.71,27.29c-2-.34-3.52-2.37-4.05-3.44h1.8c.35,0,.4-.18.4-.29,0-.27-.62-1.08-1.05-1.08a.4.4,0,0,0-.24.1,3.49,3.49,0,0,0-.3.32,1,1,0,0,1-.13.15c-.09.12-.11.15-.28.15h-.34c0-.46,0-.91,0-1.36h2.62c.37,0,.41-.21.41-.31a1.65,1.65,0,0,0-1.09-1.12c-.13,0-.23.06-.66.58a.27.27,0,0,1-.29.15h-1c0-1.45,0-1.53.12-1.56.29-.12.43-.26.43-.43,0-.41-1.07-.52-1.19-.52s-.24.11-.24.21,0,0,0,.06v0a21.36,21.36,0,0,1,.14,2.21h-.08a18,18,0,0,1-2.12-.16.16.16,0,0,0-.16.16,1.08,1.08,0,0,0,.26.51c.11.12.3.33.51.33h0a13.83,13.83,0,0,1,1.59-.14V23.2c-.55,0-1.08-.06-1.86-.15a.14.14,0,0,0-.16.15c0,.16.21.42.25.48s.31.32.48.32h0L139,24l.55-.07a10.93,10.93,0,0,1-3.34,3.65c0-.79-.06-2-.06-3.3.48-.19.81-.33,1.33-.59a.25.25,0,0,0,.1-.21c0-.18-.12-.43-.31-.43a.16.16,0,0,0-.1,0l-.08,0-.94.38v-1.2h1.07c.29,0,.39-.15.39-.29s-.55-1-.89-1a.34.34,0,0,0-.24.11,1.87,1.87,0,0,0-.2.28l-.11.16,0,0c0-.78,0-1.4,0-1.82,0-.1,0-.12.06-.13.28-.11.41-.24.41-.4a.34.34,0,0,0-.22-.28,3.67,3.67,0,0,0-.94-.21.2.2,0,0,0-.23.21s0,0,0,.08a8.1,8.1,0,0,1,.07,1.13c0,.2,0,.42,0,.66v.86c-.59,0-1.46-.13-1.83-.18a.16.16,0,0,0-.16.16,1.11,1.11,0,0,0,.23.48c.12.15.29.33.47.33h0c.35,0,.86-.1,1.25-.13,0,.21,0,.43,0,.65s0,.48,0,.73a12.85,12.85,0,0,1-2.28.53s-.16,0-.16.16.39.88.69.88c.13,0,.19-.1.24-.17a.28.28,0,0,1,0-.08l1.46-.52c0,.88,0,1.86,0,3,0,.18-.06.41-.54.41a3.58,3.58,0,0,1-.69-.1l-.18,0h0c-.16,0-.26.2-.26.38a.26.26,0,0,0,.18.27,1.61,1.61,0,0,1,.9.38.32.32,0,0,0,.27.15,1.46,1.46,0,0,0,.72-.3l.17-.07A9.65,9.65,0,0,0,139.79,25c0,.65,0,1.29,0,1.9s0,1.15,0,1.68a.39.39,0,0,0,.4.41.47.47,0,0,0,.49-.46c0-1.16-.05-2.36-.06-3.57A11.78,11.78,0,0,0,143,28.16s0,0,0,0a.23.23,0,0,0,.14,0,.28.28,0,0,0,.13,0,4.27,4.27,0,0,1,1.27-.31c.16,0,.26-.19.26-.35A.22.22,0,0,0,144.71,27.29Z"/><path class="cls-5" d="M137.29,40.23c.05,0,.06-.06.12,0h0l.19,0c.22,0,.29-.12.29-.23,0-.28-.48-.63-.74-.8a.28.28,0,0,0-.17-.07.19.19,0,0,0-.16.12,5.37,5.37,0,0,1-2.59,2,.19.19,0,0,0-.14.2c0,.2.17.44.36.44C134.49,41.86,135.53,41.84,137.29,40.23Z"/><path class="cls-5" d="M141.17,41.12a.85.85,0,0,0,.59.39c.24,0,.41-.22.41-.53a1,1,0,0,0-.32-.71,5.35,5.35,0,0,0-2.14-1.09c-.18,0-.31.23-.31.39a.22.22,0,0,0,.12.21A4.13,4.13,0,0,1,141.17,41.12Z"/><path class="cls-5" d="M144.62,38.11a8.53,8.53,0,0,1-5.33-2.81.27.27,0,0,0,.21-.25c0-.18-.16-.38-.92-.78h0l-.09,0a.18.18,0,0,0-.18.15c-.33,1-2.81,3.68-5.46,4.78a.2.2,0,0,0-.13.2.47.47,0,0,0,.41.45A10.22,10.22,0,0,0,136,38.16c.12.24.46.6.69.6h0c.27,0,1.09-.11,1.51-.14,0,.91,0,2-.06,3.05a.4.4,0,0,0,.4.45A.54.54,0,0,0,139,42a.48.48,0,0,0,.12-.33c0-1.08-.06-1.92-.06-2.63v-.37h1.5c.33,0,.4-.15.4-.28,0-.35-.66-.94-1-.94a.29.29,0,0,0-.18.07h0a4.36,4.36,0,0,0-.35.4l0,0c-.06.06-.06.07-.19.07h-.14l0-.58c0-.14,0-.15.07-.17a.38.38,0,0,0,.26-.32c0-.38-1.09-.47-1.1-.47-.19,0-.2.14-.2.18a.43.43,0,0,0,0,.11.44.44,0,0,0,0,.1l0,.16a5.45,5.45,0,0,1,.07,1c-.51,0-1.39,0-1.86-.1a14.32,14.32,0,0,0,2.32-2.31c1.51,1.82,3.62,3.65,4,3.65a.49.49,0,0,0,.2-.05,6.82,6.82,0,0,1,1.73-.45c.12,0,.17-.24.17-.36S144.68,38.12,144.62,38.11Z"/><path class="cls-5" d="M134.29,33.31a.16.16,0,0,0-.17.17.9.9,0,0,0,.26.5c.12.14.35.36.57.32a12.5,12.5,0,0,1,2-.16l0,.77v0a.37.37,0,0,0,.39.38.51.51,0,0,0,.37-.16.37.37,0,0,0,.11-.28l0-.75h1.92c0,.37,0,.69,0,.82v0a.36.36,0,0,0,.39.38.48.48,0,0,0,.36-.15.35.35,0,0,0,.11-.28l0-.8h2.44c.38,0,.42-.22.42-.31,0-.44-.86-1.16-1.17-1.16-.11,0-.3.08-.7.67a.32.32,0,0,1-.27.12h-.74c0-.8,0-.83.11-.87s.38-.19.38-.4c0-.42-1.16-.43-1.17-.43-.17,0-.26.06-.26.18a.5.5,0,0,0,0,.16l0,0a4.37,4.37,0,0,1,.08.61l0,.7H137.7c0-.82,0-.83.11-.87h0c.28-.12.49-.22.49-.39,0-.41-1.1-.43-1.31-.43s-.25.11-.25.19,0,.06,0,.1a.41.41,0,0,1,0,.1,7.11,7.11,0,0,1,.11,1.31c-.77,0-1.58-.06-2.59-.14Z"/><path class="cls-5" d="M144.53,54.09A7.09,7.09,0,0,1,139.14,47c0-.08.07-.1.16-.15l0,0c.27-.11.39-.25.39-.41,0-.37-.75-.78-1-.78a.36.36,0,0,0-.24.13l-.05.06c-.12.12-.19.2-.36.2h-.33a7.07,7.07,0,0,1-1.43-.14l-.38-.06h0a.15.15,0,0,0-.15.16,1.27,1.27,0,0,0,.27.51c.13.17.34.37.52.37h.05a5.61,5.61,0,0,1,1.28-.14h.45c.08,0,.1,0,.11,0s0,.09,0,.14v.31h0a2.16,2.16,0,0,0-.42-.08c-.2,0-.23.11-.23.18a.13.13,0,0,0,0,.06v0a1.37,1.37,0,0,1,0,.28,8.45,8.45,0,0,1-5,7.15.22.22,0,0,0-.15.22.44.44,0,0,0,.37.41.2.2,0,0,0,.1,0,8.54,8.54,0,0,0,5.5-6.67c.75,3.75,3.51,6.35,4,6.35a.28.28,0,0,0,.18-.06,6.09,6.09,0,0,1,1.63-.39.35.35,0,0,0,.22-.36C144.7,54.2,144.64,54.11,144.53,54.09Z"/></g></g></svg>