<svg xmlns="http://www.w3.org/2000/svg" viewBox="0 0 138 28.8"><defs><style>.cls-1{fill:#4d4d4d;}</style></defs><g id="レイヤー_2" data-name="レイヤー 2"><g id="footer"><path class="cls-1" d="M28.5,6.13C28.5,1.81,26,0,20.31,0H0V18.52c0,7.21,2.9,10,11,10l17.54,0Z"/><path class="cls-1" d="M54.43,6.43c0,3.88-2.72,6.28-6.8,6.28H31V5.61A5.23,5.23,0,0,1,36.59,0H54.43Z"/><path class="cls-1" d="M70.67,12.84v1.9H65.41V28.56H62V14.74H56.74v-1.9Z"/><path class="cls-1" d="M71.79,22.46c-.17,3.35,1.93,4.6,3.93,4.6a9.06,9.06,0,0,0,3.65-1l.76,1.5a10.71,10.71,0,0,1-5,1.24c-4.53,0-6.84-2.94-6.84-6.15,0-3.74,3-6.1,6.55-6.1,6.29,0,6,5.55,6,5.91Zm6-1.48a2.75,2.75,0,0,0-2.83-2.9,3,3,0,0,0-3,2.9Z"/><path class="cls-1" d="M90.73,28.56l-.24-2A5.39,5.39,0,0,1,86,28.8c-2.64,0-4.19-1.53-4.19-3.2,0-2.9,4.35-3.73,8.48-4.92v-.34c0-1.6-1.76-2-3.12-2a9.22,9.22,0,0,0-3.86.93l-.57-1.57a12.34,12.34,0,0,1,5.15-1.12c2.14,0,4.24.6,5,1.84a3.86,3.86,0,0,1,.51,2.36v3.5a15.38,15.38,0,0,0,.42,4.31ZM85,25.32C85,26.46,86.11,27,87.18,27a2.93,2.93,0,0,0,2.53-1.31,5.44,5.44,0,0,0,.57-2.9v-.63c-3.14,1-5.31,1.48-5.31,3.13Z"/><path class="cls-1" d="M100.92,12.84V26.56h7.25v2H97.52V12.84Z"/><path class="cls-1" d="M113.58,16.79V28.56h-3.24V16.79Zm0-4.22v2.59h-3.24V12.57Z"/><path class="cls-1" d="M124.84,13.91a8.19,8.19,0,0,0-1.26-.16c-1.88,0-1.81,1.24-1.81,2.19v1.8h3v1.6h-2.91v9.22H118.6V19.34h-2.07v-1.6h2.07V15.79c0-.73-.28-3.74,4.29-3.74a10.91,10.91,0,0,1,2.29.24Z"/><path class="cls-1" d="M129,22.46c-.17,3.35,1.93,4.6,3.93,4.6a9.05,9.05,0,0,0,3.64-1l.77,1.5a10.79,10.79,0,0,1-5,1.24c-4.52,0-6.83-2.94-6.83-6.15,0-3.74,3-6.1,6.55-6.1,6.29,0,6,5.55,6,5.91ZM135,21a2.77,2.77,0,0,0-2.84-2.9,3,3,0,0,0-3,2.9Z"/></g></g></svg>