<svg xmlns="http://www.w3.org/2000/svg" viewBox="0 0 195.31 29.51"><defs><style>.cls-1{fill:#231815;}.cls-2{fill:#6fb72c;}.cls-3{fill:#fff;}</style></defs><g id="レイヤー_2" data-name="レイヤー 2"><g id="header"><path class="cls-1" d="M11.34,19.51c-.39-.13-.8-.23-1.2-.33l-1.45-.29c-.22,0-.59-.09-1.09-.14l-.89-.1c-.08-.89-.13-1.7-.13-2.39s0-1.05,0-1.52h.2c3.23,0,4.11-1.21,4.13-1.25.85-1-.1-2.26-.11-2.27-.28-.42-.55-.64-.79-.64a.32.32,0,0,0-.2.06h0c-.21.13-.08.47,0,.55.27,1.2-1.28,1.57-1.33,1.58a16.77,16.77,0,0,1-1.86.13c0-1.19,0-2.14,0-2.89a9.13,9.13,0,0,1,.94,0H7.6a1.18,1.18,0,0,0,.85-.42A.7.7,0,0,0,8.6,9c-.09-.5-.59-.79-1.36-.79H7l-.31,0a4.39,4.39,0,0,1,.15-1.11.05.05,0,0,0,0,0,1.48,1.48,0,0,1,.22-.51.29.29,0,0,1,.22-.14l.09,0h0a.94.94,0,0,0,.55.25.25.25,0,0,0,.16,0c.28-.2,0-.67,0-.77a1.66,1.66,0,0,0-1.45-.84,1.93,1.93,0,0,0-.67.12c-.05,0-1,.38-1.19,2.83A6.86,6.86,0,0,1,2.38,6.76a1.05,1.05,0,0,0-.75-.36.84.84,0,0,0-.29.06c-.39.24-.22.78-.06,1.06a4.87,4.87,0,0,0,2.46,2,16.8,16.8,0,0,1-1.8.71C.13,10.73.1,11.85.1,11.9c0,1.8,3.16,2.48,4.56,2.69,0,.6,0,1.16,0,1.6,0,1.07.06,1.86.06,2.4a12.39,12.39,0,0,0-2.82.52,4.15,4.15,0,0,0-1.6,1A1.85,1.85,0,0,0,.05,21a2,2,0,0,0,0,1,.78.78,0,0,0,.48.42l.5.19,1.9,1A16,16,0,0,0,5,24.41a2.56,2.56,0,0,0,.75.14,1.12,1.12,0,0,0,.48-.1,1.34,1.34,0,0,0,.53-.75c0-.16.09-.39.15-.74a6.8,6.8,0,0,0,0-1.51l-.1-1.2a14.39,14.39,0,0,1,1.46.33l1.69.64,1,.5a1.31,1.31,0,0,0,.85.15c.25-.07.55-.28.55-.88a1.52,1.52,0,0,0-.17-.68A1.5,1.5,0,0,0,11.34,19.51ZM4.93,21.62c0,.56-.16.89-.36.94a2,2,0,0,1-1.22-.15A3.4,3.4,0,0,1,2,21.52.68.68,0,0,1,1.82,21,.41.41,0,0,1,2,20.77a4.85,4.85,0,0,1,2.86-.68A9.87,9.87,0,0,1,4.93,21.62Zm-.26-8.83a9.7,9.7,0,0,1-2.3-.54c-.32-.1-.51-.23-.52-.35s.42-.56.75-.73a6.93,6.93,0,0,1,2.12-.85C4.7,11,4.69,11.85,4.67,12.79Z"/><path class="cls-1" d="M28.66,14.61c-.75-.48-1.31-.81-1.67-1-1.24-.7-1.34-1-1.34-1.11s.07-.36,1.41-1.54c.77-.68,1.31-1.14,1.66-1.43a1.06,1.06,0,0,0,.37-.8,2.31,2.31,0,0,0-.85-1.53,2.16,2.16,0,0,0-1.4-.75h-.15A1.16,1.16,0,0,0,26,7a1.81,1.81,0,0,1-.75.58L24.12,8a8.55,8.55,0,0,1-2,.6h0c-.1,0-.26-.19-.4-.69s-.4-.78-.73-.78h-.06c-.24,0-.44.19-.62.52a1.7,1.7,0,0,0-.21.93c.1.59.2,1.06.28,1.38s.44.66,1,.79a1.71,1.71,0,0,0,1.29-.12,15.93,15.93,0,0,1,2.13-1.2c.37-.14.83-.32,1.39-.51a10.65,10.65,0,0,1-1.52,2.34,1.13,1.13,0,0,0-.3.79,2.26,2.26,0,0,0,.46,1.29,9.46,9.46,0,0,0,2.48,2.45,2.58,2.58,0,0,1,.83,2,3.61,3.61,0,0,1-1.95,3.44,4,4,0,0,1-2.2.5,7.85,7.85,0,0,1-1.08-.08A4.11,4.11,0,0,1,21,21a1.74,1.74,0,0,1-.79-1.37,1.12,1.12,0,0,1,.35-.82,1.37,1.37,0,0,1,.9-.4,2.56,2.56,0,0,1,2,.79.93.93,0,0,1,.27.78,1,1,0,0,0,.2.81.61.61,0,0,0,.45.17c.35,0,.64-.24.86-.71a2.39,2.39,0,0,0,.26-1,1.85,1.85,0,0,0-.3-1A3.47,3.47,0,0,0,23,16.84a4.81,4.81,0,0,0-3.1.39,2.56,2.56,0,0,0-1.26,1.36,2.86,2.86,0,0,0,.08,1.92,4.38,4.38,0,0,0,2.63,2.54,6.66,6.66,0,0,0,2.75.56h.4a6.14,6.14,0,0,0,3.22-.84,5.76,5.76,0,0,0,2.08-2.26A6,6,0,0,0,30.33,18a3.59,3.59,0,0,0-.39-1.75A5.77,5.77,0,0,0,28.66,14.61Z"/><path class="cls-1" d="M70.12,22.4l-.89.11a13.65,13.65,0,0,1-3.62-.21,5.43,5.43,0,0,1-2.17-.79,1.57,1.57,0,0,1-.7-1.37,5.32,5.32,0,0,1,1.82-3.38,13.11,13.11,0,0,1,2.52-2.17,11.57,11.57,0,0,1,2.51-1.26c.65-.23,1-.45,1-.72s-.23-.84-.94-1.29a2.8,2.8,0,0,0-1.33-.51.55.55,0,0,0-.58.6,1.12,1.12,0,0,1-.07.43l-2.54,1.9a4.11,4.11,0,0,1-.45-1,9.56,9.56,0,0,1-.24-3.23A19.48,19.48,0,0,1,64.79,7a1.55,1.55,0,0,0,0-.31c0-.32-.26-.64-.83-1-.4-.21-.73-.37-1-.48-.61-.3-.92-.34-1.12-.13s-.26.54.3,1.11a1.16,1.16,0,0,1,.31.83,9.9,9.9,0,0,1,0,1.27c-.06.69-.09,1.24-.09,1.64a8.32,8.32,0,0,0,.44,3.15,4.51,4.51,0,0,0,1.36,1.56A16.59,16.59,0,0,0,61.72,18a4.27,4.27,0,0,0-.51,2,3.31,3.31,0,0,0,.94,2.41,6.31,6.31,0,0,0,.86.72c.19.12.51.29.91.51a9.57,9.57,0,0,0,2.38.84,13.89,13.89,0,0,0,2.14.38c.34,0,.65,0,.94,0A2.46,2.46,0,0,0,71,24.53a1.45,1.45,0,0,0,.37-1.11,1,1,0,0,0-.3-.87A1.26,1.26,0,0,0,70.12,22.4Z"/><path class="cls-1" d="M91,15.64h0l0-.05a6.2,6.2,0,0,0-.79-.84c-.54-.56-1-1-1.21-1.22-.76-.8-1.27-1.36-1.5-1.61l-.67-.76a16.32,16.32,0,0,0,2-.79,10.67,10.67,0,0,0,1.88-1,1.87,1.87,0,0,0,.54-1.32A1.31,1.31,0,0,0,91,6.83a1.91,1.91,0,0,0-1.32-.36,8.62,8.62,0,0,1-2.23-.4,7.3,7.3,0,0,1-1.82-.69,1.92,1.92,0,0,0-1-.37h-.06a1.27,1.27,0,0,0-1.13.66,2,2,0,0,0-.3,1.07,4,4,0,0,0,.22,1.19A10.46,10.46,0,0,0,84.29,10a18.44,18.44,0,0,1-2.18.35A2.84,2.84,0,0,1,80,9.64a1.85,1.85,0,0,0-1-.57.41.41,0,0,0-.15,0,.54.54,0,0,0-.35.55c0,.61.43,1.19,1.28,1.73a4.1,4.1,0,0,0,2.11.75h.06a12.83,12.83,0,0,0,3.3-.48c.77.9,1.37,1.57,1.78,2l1,1.09a5.68,5.68,0,0,1,.93,1.38,1.49,1.49,0,0,1,.1.57c0,.31-.07.37-.07.37h-.11a4.62,4.62,0,0,1-.79-.11l-3-.61c-1.07-.23-1.82-.37-2.23-.41a4.07,4.07,0,0,0-2.23.4,3,3,0,0,0-1.3,1.14,2.09,2.09,0,0,0-.24,1.07,3.11,3.11,0,0,0,.51,1.85,7.8,7.8,0,0,0,1.62,1.81,16.54,16.54,0,0,0,2.56,1.61,10.32,10.32,0,0,0,2.39.85,4.89,4.89,0,0,0,1,.12,1.05,1.05,0,0,0,.79-.24c.32-.32.29-.82-.09-1.49S87,22,86.5,22h0A6.72,6.72,0,0,1,83,21,5.44,5.44,0,0,1,81,19a1.19,1.19,0,0,1-.23-.75.92.92,0,0,1,.51-.92,3,3,0,0,1,1.36-.31,3.49,3.49,0,0,1,.65.06c1,.26,1.61.44,2,.58a19,19,0,0,1,2.81.93l1,.62a1.41,1.41,0,0,0,.79.22H90a1.15,1.15,0,0,0,.89-.3,2.54,2.54,0,0,0,.48-2.06A4.29,4.29,0,0,0,91,15.64ZM89.12,8A5,5,0,0,1,88,8.73a12.49,12.49,0,0,1-2.12.86,6.31,6.31,0,0,1-.78-1.75c-.17-.74-.07-1,0-1.08a.66.66,0,0,1,.47-.12,4.78,4.78,0,0,1,1.72.57c.47.22.92.41,1.32.57Z"/><path class="cls-1" d="M119.56,16.15c-.29,0-.61.22-1,.66-.75.88-1.24,1.41-1.43,1.58-.43.42-1.09,1-2,1.77a8.11,8.11,0,0,1-2,1.22,2.87,2.87,0,0,1-1.28.27,1.71,1.71,0,0,1-1-.24A3.77,3.77,0,0,1,109.74,19c-.08-.73-.17-1.45-.27-2.15a2.46,2.46,0,0,0-1.27-1.77,5.17,5.17,0,0,0-2.58-.37c.91-1.49,1.57-2.55,2-3.26a17.87,17.87,0,0,1,1.31-1.86c.22-.26.44-.53.67-.79a1.17,1.17,0,0,0,.37-.89.72.72,0,0,0-.22-.51,5.24,5.24,0,0,0-.72-.47l-1.15-.72a2.89,2.89,0,0,0-1.35-.51.54.54,0,0,0-.62.56c0,.23.19.5.58.85a3.08,3.08,0,0,1,.57.63.88.88,0,0,1,.06.33,7.8,7.8,0,0,1-1.2,2.81c-1.36,2.15-2.41,3.79-3.13,4.86L100.56,19c-.7,1-1.26,1.83-1.64,2.37a10.22,10.22,0,0,1-.84.89c-.29.3-.28.78,0,1.41a1.51,1.51,0,0,0,.54.6,1.08,1.08,0,0,0,.61.23.39.39,0,0,0,.15,0c.37-.13.76-.63,1.24-1.57s1.07-2.09,1.22-2.3c0,0,.12-.23,1-1.73A16.47,16.47,0,0,1,104,17.17a2.67,2.67,0,0,1,2.07-1.11l.3,0a1.12,1.12,0,0,1,1,.77,12.57,12.57,0,0,1,.37,1.81,7.79,7.79,0,0,0,1.32,3.61,3.32,3.32,0,0,0,2.71,1.17,5,5,0,0,0,2.59-.72c1.37-.84,1.55-.93,1.55-.93l.08-.05a31.52,31.52,0,0,0,2.77-2.82,8.7,8.7,0,0,0,.91-1.3,2.09,2.09,0,0,0,.4-.93A.48.48,0,0,0,119.56,16.15Z"/><path class="cls-1" d="M134.08,12.17a3,3,0,0,0-.41,0c-.64.09-1.15.18-1.52.25,0-.23.1-.42.14-.57a6.29,6.29,0,0,0,.19-1.28A3.11,3.11,0,0,0,132.26,9a1.59,1.59,0,0,0-1.1-.88,2.21,2.21,0,0,0-1.38.18c-.66.3-.94.54-.94.81a.6.6,0,0,0,.54.61l.56.1c.43.11.59.69.47,1.71a9,9,0,0,1-.31,1.39c-.74.1-1.33.17-1.82.22a4.14,4.14,0,0,1-1.92-.14s-.14-.08-.33-.41a.71.71,0,0,0-.62-.41h0c-.2,0-.46.14-.57.61a1.92,1.92,0,0,0,0,.92,1.29,1.29,0,0,0,.9,1,5.77,5.77,0,0,0,2.43,0l1.49-.25a11,11,0,0,1-.67,1.39,21.21,21.21,0,0,1-2,3,8.93,8.93,0,0,1-1.67,1.54c-.88.62-1,.77-1.06.89a1.52,1.52,0,0,0,.33,1.3.83.83,0,0,0,.71.43.93.93,0,0,0,.27,0l.06,0a3.51,3.51,0,0,0,.75-.64,27.85,27.85,0,0,0,2.62-3,18.78,18.78,0,0,0,2.35-4.28c.15-.42.27-.73.35-1l1.21-.29a3.08,3.08,0,0,1,1.08-.16c.37.13.44.75.43,1.25-.08,3-.73,4.87-1.93,5.46a.88.88,0,0,1-1-.13l-.68-.54c-.59-.41-.82-.46-.95-.46a.48.48,0,0,0-.52.51,2.49,2.49,0,0,0,.42,1.06,8.24,8.24,0,0,1,.34.92c.15.44.33.67.57.73a2.56,2.56,0,0,0,.61.06,5.21,5.21,0,0,0,2.45-.56,4.07,4.07,0,0,0,2-2.6,14.19,14.19,0,0,0,.61-2.83,6.75,6.75,0,0,0-.27-3.15A1.94,1.94,0,0,0,134.08,12.17Z"/><path class="cls-1" d="M145.23,14.28a6.35,6.35,0,0,0-2.62-2.12,8.25,8.25,0,0,0-1.7-.63c-.94-.24-1.5-.19-1.69.11a.46.46,0,0,0-.1.29c0,.23.21.47,1.2.88a10.41,10.41,0,0,1,1.15.65,11.74,11.74,0,0,1,1.36,1.17,2.72,2.72,0,0,1,.77,1.6,3.52,3.52,0,0,1-.86.13c-.84.05-1.41.08-1.65.08s-1.11,0-1.15.6c0,.39.31.62,1,.68l1.72.26,1.26.36.57.29a1.44,1.44,0,0,0,.69.19h.07c.3,0,.69-.14.88-.78a3.49,3.49,0,0,0,0-1.92A7.05,7.05,0,0,0,145.23,14.28Z"/><path class="cls-1" d="M157.49,22c-.63-1-1.14-1.76-1.54-2.34l-1.6-2.47a4.69,4.69,0,0,1-.9-2.24,2.39,2.39,0,0,1,.54-1.24c.69-1,1.14-1.61,1.32-1.86.91-1.24,1.7-2.41,2.34-3.48a10.35,10.35,0,0,0,1-1.83c.07-.48-.23-1-.92-1.63-.51-.45-.83-.62-1.14-.49s-.38.37-.38.78v.65a8.59,8.59,0,0,1-1.12,2.73c-.61,1.17-1.05,2-1.22,2.28l-1.3,2.08a4.12,4.12,0,0,0-.7,1.91,5.92,5.92,0,0,0,.63,2.58l1.28,2.33c.43.77.89,1.69,1.37,2.73a12.92,12.92,0,0,1,.62,1.81l.3,1.12a.22.22,0,0,0,.09.14,1.08,1.08,0,0,0,.64.14,1.59,1.59,0,0,0,1.36-.54,1.61,1.61,0,0,0,.13-1.3A5.82,5.82,0,0,0,157.49,22Z"/><path class="cls-1" d="M41,10.27c.78,0,1.91.15,3.35.34.79.12,1.52.26,2.19.41l-.33.13c-.94.34-1.32.61-1.32.92,0,.13.06.43.64.43h0l.73,0h1.42c.53,0,2.13,0,2.13-.91a1.9,1.9,0,0,0-.64-1.11,3.94,3.94,0,0,0-1.82-1,20,20,0,0,0-3.12-.46c-.85-.07-2-.11-3.31-.11-1.08,0-1.59.19-1.72.57a.48.48,0,0,0,.08.42C39.49,10.08,40,10.23,41,10.27Z"/><path class="cls-1" d="M48.65,20.14a6.52,6.52,0,0,0-1.1.14,17.65,17.65,0,0,1-4.58.24,6.67,6.67,0,0,1-3-.88,2,2,0,0,1-1-1.71,3.85,3.85,0,0,1,.37-1.49c.22-.46.42-1,.11-1.12a.45.45,0,0,0-.28-.09c-.45,0-.9.36-1.37,1.11a3.51,3.51,0,0,0-.57,1.9,3.36,3.36,0,0,0,.44,1.64A5,5,0,0,0,40.33,22a11.38,11.38,0,0,0,3.3.68q.94.06,1.89.06c.49,0,1,0,1.48,0a11.68,11.68,0,0,0,2.45-.32c.66-.19,1-.49,1-.88a.85.85,0,0,0-.26-.55A1.85,1.85,0,0,0,48.65,20.14Z"/><path class="cls-1" d="M51.22,6.78a1.56,1.56,0,0,0-1.59,1.51,1.59,1.59,0,0,0,3.18,0A1.55,1.55,0,0,0,51.22,6.78Z"/><path class="cls-1" d="M55.14,5.11a1.55,1.55,0,0,0-1.58,1.51,1.59,1.59,0,0,0,3.17,0A1.55,1.55,0,0,0,55.14,5.11Z"/><path class="cls-2" d="M195.23,14.79c0,.13,0,.26,0,.4s.13.28.12.41,0,.27-.06.4-.19.26-.2.39,0,.28,0,.41,0,.27-.06.4-.1.26-.13.39.14.3.11.43-.23.23-.27.36.07.3,0,.43-.06.26-.1.39-.11.25-.16.38-.05.27-.1.39-.11.25-.16.38-.14.23-.19.36-.25.18-.31.3,0,.31-.05.43-.09.26-.15.38a3.88,3.88,0,0,1-.23.33c-.07.12-.19.21-.26.32s0,.29-.12.41-.21.18-.28.29a4,4,0,0,1-.26.32l-.24.33c-.08.1-.21.17-.3.27s-.08.29-.17.39-.28.11-.38.21-.07.3-.16.4-.21.17-.31.27l-.29.28c-.09.09-.23.14-.34.23s-.27.1-.37.18-.12.28-.23.36l-.32.25c-.11.08-.27.08-.38.16s-.17.24-.28.32-.25.11-.37.18-.27.06-.39.13a3.87,3.87,0,0,1-.34.21c-.12.07-.22.17-.34.23s-.27.05-.4.11l-.36.18c-.12.05-.21.17-.34.22s-.24.14-.36.19-.28,0-.4.07l-.38.14c-.13,0-.27,0-.4.08s-.24.16-.37.19-.27,0-.41.05-.25.11-.38.13l-.4.08c-.13,0-.28-.08-.42-.06s-.25.21-.38.23-.29-.15-.42-.14-.26.1-.4.11l-.4,0c-.14,0-.27-.08-.41-.08h-.4c-.14,0-.27,0-.41,0s-.26-.05-.4-.06-.28.14-.41.13-.25-.2-.39-.22-.26-.07-.39-.1-.29.11-.42.08-.24-.19-.37-.22-.31.14-.44.11-.21-.27-.34-.31l-.39-.1c-.13,0-.32.1-.45.06l-.38-.13c-.13,0-.18-.28-.31-.33l-.36-.16c-.13-.06-.27-.07-.39-.12l-.36-.19c-.12-.06-.27-.06-.39-.13s-.26-.09-.38-.16-.19-.21-.3-.28-.21-.17-.32-.24-.3,0-.42-.12-.15-.25-.25-.33l-.34-.23a4.05,4.05,0,0,1-.35-.21l-.29-.29c-.1-.08-.23-.14-.33-.23s-.18-.21-.28-.3-.22-.16-.32-.25-.1-.28-.19-.37-.23-.16-.32-.26-.21-.18-.3-.28,0-.32-.12-.42-.16-.22-.24-.33-.16-.21-.23-.32-.24-.17-.32-.28-.22-.18-.3-.29,0-.33,0-.44-.12-.24-.19-.36-.28-.16-.34-.28,0-.31,0-.43-.21-.2-.27-.33-.11-.24-.16-.37-.09-.25-.14-.38-.12-.24-.16-.37,0-.28,0-.41-.06-.27-.1-.4-.15-.23-.18-.36-.07-.27-.1-.4,0-.28,0-.41-.09-.25-.11-.39,0-.27-.05-.4-.12-.26-.13-.39,0-.27,0-.41-.08-.26-.09-.4,0-.27,0-.41.13-.27.13-.4,0-.27,0-.41-.09-.27-.09-.4-.09-.28-.07-.42.07-.26.09-.4.18-.25.2-.38.05-.26.07-.39-.14-.3-.12-.44,0-.27.07-.4.12-.25.16-.38.07-.26.11-.39.05-.27.09-.4.16-.23.21-.35.07-.26.11-.39.17-.22.22-.35.09-.25.14-.38,0-.31,0-.43.21-.2.27-.32,0-.3.08-.42.18-.21.25-.33a3.73,3.73,0,0,1,.15-.38c.07-.12.18-.21.25-.32s.14-.23.22-.34.25-.16.33-.26l.23-.34c.08-.11.11-.26.2-.36s.22-.17.31-.27.24-.14.34-.24l.27-.29c.1-.1.13-.25.23-.35s.25-.12.35-.21.12-.27.22-.36.15-.24.25-.33.28-.09.39-.17.18-.2.29-.28.25-.13.36-.2.16-.25.27-.32.26-.1.38-.17.24-.12.36-.19.26-.08.38-.14.18-.25.3-.32.31,0,.43,0,.23-.14.36-.19.2-.22.33-.27.28,0,.41-.07.28,0,.41,0,.22-.18.35-.22.29,0,.42,0,.21-.24.34-.27.3.1.43.07.25-.15.38-.17.29.06.42,0,.26-.09.39-.11l.4-.07c.13,0,.27,0,.4,0s.26-.2.39-.21.28.06.41.06.28.08.41.08.27,0,.4,0,.28-.1.41-.09.27.11.4.12.28-.11.42-.1.26.07.39.09.28,0,.41,0l.41,0,.4.08a2.84,2.84,0,0,1,.38.13c.14,0,.22.23.35.26s.27,0,.4.08.29,0,.42,0,.28,0,.4.07.18.29.31.34.29,0,.41.06.22.17.34.23l.37.16c.12.06.29,0,.41.09s.17.26.28.33.31,0,.42.08.14.28.25.36.28.08.39.15.17.22.28.3.27.09.37.18.29.07.4.16.13.26.23.35l.31.26c.09.1.13.25.23.35a3.76,3.76,0,0,1,.31.25c.1.1.23.15.33.25s.09.28.18.38a3.85,3.85,0,0,1,.27.3c.09.1.17.21.25.31s.2.19.28.3.22.17.29.28.14.24.22.35.06.28.13.39.11.25.18.37.33.12.39.24,0,.29.1.41l.19.36c0,.12.12.24.18.36s.14.24.19.36.12.25.17.37,0,.29,0,.42.09.25.13.38,0,.29,0,.42.24.21.27.34.07.26.1.39,0,.29,0,.42.1.26.12.39.07.27.09.4-.09.28-.07.42.12.26.14.39,0,.27.05.4-.16.28-.15.41S195.23,14.65,195.23,14.79Z"/><path class="cls-3" d="M178.62,12.6a10.28,10.28,0,0,1,3.3-3.11,24.2,24.2,0,0,0,3.5-.89c.66-.12.1-.58.1-.58a9.54,9.54,0,0,0-2.73-1.19c-.48-.13-.07-.4-.07-.4h0a10.28,10.28,0,0,0,1.85-1.57c.63-.63.41-.81.41-.81a3.09,3.09,0,0,0-1.19-.78,1.56,1.56,0,0,0-1.44.11,12.9,12.9,0,0,1-1.22.55l-.31.13h0c-.64.27-1.38.66-2,1h0c-1.1.57-1.49.25-1.49.25h0a1.47,1.47,0,0,0-.89-.3,1.51,1.51,0,1,0,1.4,2.06h0a.64.64,0,0,0,0-.07s0,0,0,0a3.7,3.7,0,0,1,.6-1.25,3.1,3.1,0,0,1,2.67-.88h.1c.14,0,.36.08.22.26a28,28,0,0,1-3.09,3.64,37.65,37.65,0,0,1-3.86,2.17,1.46,1.46,0,0,0-1,.75c-.5,1,0,1.1,0,1.1.89.26,2.52-.71,2.52-.71a4.61,4.61,0,0,1,.49-.2c.36-.11.26.1.26.1-.17.37-1.24,2.13-1.24,2.13A11,11,0,0,1,171,18.2a3.2,3.2,0,0,0-1,.82.63.63,0,0,0-.16.53.28.28,0,0,0,.29.21C174.67,19.72,178.62,12.6,178.62,12.6Z"/><path class="cls-3" d="M187.76,13.86C183.71,11,181,11.7,181,11.7c-.45.08-.21.25-.21.25a8.47,8.47,0,0,0,1.3.71,23.75,23.75,0,0,1,3.52,1.94h0a.2.2,0,0,1,0,.31,8.41,8.41,0,0,1-1.8,1.37c-.26.14-.33-.07-.33-.07h0a1.47,1.47,0,0,0-.54-.59s-.49-.33-.88-.54a2.24,2.24,0,0,1-.46-1.21s.06-.39-.46-.68c0,0-.91-.58-1.23-.16a1,1,0,0,0-.19.74,17.47,17.47,0,0,1-.09,2,1.79,1.79,0,0,1-.33.67,7.43,7.43,0,0,1-3.13,2.08s-.37.12-.41.33c0,0-.07.31.6.55,0,0,1.16.48,1.73,0l.95-.42s.22-.1.28.1a9.39,9.39,0,0,1,.23,1.79c-1.54.54-2.69,1-2.69,1a1.58,1.58,0,0,1-2-.75h0a1.33,1.33,0,1,0-1.14,2h0a9,9,0,0,0,2.44-.58h0a.21.21,0,0,1,.19.05,16.24,16.24,0,0,1,2.23,1.8s.61.94,1.22.95c0,0,.69.09,1.19-1a6.07,6.07,0,0,1,.54-.92,1.65,1.65,0,0,0,.34-1,2.46,2.46,0,0,0-.15-1.09,5.46,5.46,0,0,1-.1-.76,9.46,9.46,0,0,1,2-.11c.66.11.77,1.1.77,1.1h0a2.3,2.3,0,1,0,2.34-2.67h-.09a21.48,21.48,0,0,0-5.06,1.2,4.44,4.44,0,0,1,.1-1s.18-.69.28-1.12h0a.58.58,0,0,1,.41-.38l0,0a3.27,3.27,0,0,0,.94-.67h0a.45.45,0,0,1,.25-.16,20.41,20.41,0,0,1,3.93-.56,1.28,1.28,0,0,1,.69.23h0c.56.36,1.15.67,1.15.67,1.2.77,1.23,0,1.23,0C190.72,15.75,187.76,13.86,187.76,13.86ZM179,22.78a.73.73,0,0,1-.53.07,15.47,15.47,0,0,1-1.9-.37s-.09,0,0-.07c1.23-.45,2.3-1,2.3-1,.23-.1.47-.2.7-.28C179.55,21.56,179.46,22.48,179,22.78Z"/></g></g></svg>