<svg xmlns="http://www.w3.org/2000/svg" viewBox="0 0 150.26 20.36"><defs><style>.cls-1{fill:#6fb12c;}</style></defs><g id="レイヤー_2" data-name="レイヤー 2"><g id="txt"><path class="cls-1" d="M149.26,20.36H1a1,1,0,0,1-.28-2L63.29,0a.86.86,0,0,1,.28,0H88.05a1,1,0,0,1,.29,0l61.2,18.36a1,1,0,0,1-.28,2ZM8,18.36H142.44L87.9,2H63.71Z"/><path class="cls-1" d="M103.59,11.52A6,6,0,0,1,99.45,10a4.31,4.31,0,0,0-5.86,0,6.26,6.26,0,0,1-8.29,0A4.2,4.2,0,0,0,82.37,8.8,4.16,4.16,0,0,0,79.45,10a6.26,6.26,0,0,1-8.29,0,4.31,4.31,0,0,0-5.86,0A6.26,6.26,0,0,1,57,10,4.2,4.2,0,0,0,54.08,8.8,4.16,4.16,0,0,0,51.16,10a6.27,6.27,0,0,1-8.3,0A4.16,4.16,0,0,0,39.94,8.8a1,1,0,1,1,0-2,6,6,0,0,1,4.14,1.57,4.31,4.31,0,0,0,5.86,0,6.26,6.26,0,0,1,8.29,0,4.29,4.29,0,0,0,5.85,0,6.26,6.26,0,0,1,8.29,0,4.31,4.31,0,0,0,5.86,0,6.26,6.26,0,0,1,8.29,0,4.29,4.29,0,0,0,5.85,0,6.26,6.26,0,0,1,8.29,0,4.31,4.31,0,0,0,5.86,0,6.05,6.05,0,0,1,4.15-1.57,1,1,0,0,1,0,2A4.2,4.2,0,0,0,107.74,10,6.07,6.07,0,0,1,103.59,11.52Z"/></g></g></svg>